G04 #@! TF.GenerationSoftware,KiCad,Pcbnew,(6.0.5)*
G04 #@! TF.CreationDate,2022-06-11T17:51:55-07:00*
G04 #@! TF.ProjectId,main_template,6d61696e-5f74-4656-9d70-6c6174652e6b,1*
G04 #@! TF.SameCoordinates,Original*
G04 #@! TF.FileFunction,Legend,Top*
G04 #@! TF.FilePolarity,Positive*
%FSLAX46Y46*%
G04 Gerber Fmt 4.6, Leading zero omitted, Abs format (unit mm)*
G04 Created by KiCad (PCBNEW (6.0.5)) date 2022-06-11 17:51:55*
%MOMM*%
%LPD*%
G01*
G04 APERTURE LIST*
G04 Aperture macros list*
%AMRoundRect*
0 Rectangle with rounded corners*
0 $1 Rounding radius*
0 $2 $3 $4 $5 $6 $7 $8 $9 X,Y pos of 4 corners*
0 Add a 4 corners polygon primitive as box body*
4,1,4,$2,$3,$4,$5,$6,$7,$8,$9,$2,$3,0*
0 Add four circle primitives for the rounded corners*
1,1,$1+$1,$2,$3*
1,1,$1+$1,$4,$5*
1,1,$1+$1,$6,$7*
1,1,$1+$1,$8,$9*
0 Add four rect primitives between the rounded corners*
20,1,$1+$1,$2,$3,$4,$5,0*
20,1,$1+$1,$4,$5,$6,$7,0*
20,1,$1+$1,$6,$7,$8,$9,0*
20,1,$1+$1,$8,$9,$2,$3,0*%
G04 Aperture macros list end*
%ADD10C,0.152400*%
%ADD11C,0.150000*%
%ADD12C,0.010000*%
%ADD13C,0.120000*%
%ADD14C,0.200000*%
%ADD15C,0.127000*%
%ADD16R,1.200000X2.200000*%
%ADD17R,5.800000X6.400000*%
%ADD18RoundRect,0.250000X0.475000X-0.250000X0.475000X0.250000X-0.475000X0.250000X-0.475000X-0.250000X0*%
%ADD19O,2.000000X4.200000*%
%ADD20O,4.200000X2.000000*%
%ADD21R,4.600000X2.000000*%
%ADD22R,3.400000X1.800000*%
%ADD23R,1.800000X3.400000*%
%ADD24R,1.000000X1.500000*%
%ADD25C,0.800000*%
%ADD26C,6.400000*%
%ADD27RoundRect,0.250000X-0.450000X0.262500X-0.450000X-0.262500X0.450000X-0.262500X0.450000X0.262500X0*%
%ADD28RoundRect,0.250000X0.262500X0.450000X-0.262500X0.450000X-0.262500X-0.450000X0.262500X-0.450000X0*%
%ADD29RoundRect,0.250000X-0.475000X0.250000X-0.475000X-0.250000X0.475000X-0.250000X0.475000X0.250000X0*%
%ADD30RoundRect,0.250000X0.250000X0.475000X-0.250000X0.475000X-0.250000X-0.475000X0.250000X-0.475000X0*%
%ADD31R,1.000000X1.600000*%
%ADD32RoundRect,0.250000X0.450000X-0.262500X0.450000X0.262500X-0.450000X0.262500X-0.450000X-0.262500X0*%
%ADD33R,2.200000X1.200000*%
%ADD34R,6.400000X5.800000*%
%ADD35C,2.400000*%
%ADD36R,2.400000X2.400000*%
%ADD37RoundRect,0.150000X0.825000X0.150000X-0.825000X0.150000X-0.825000X-0.150000X0.825000X-0.150000X0*%
%ADD38C,2.000000*%
%ADD39R,2.000000X2.000000*%
%ADD40C,3.000000*%
%ADD41RoundRect,0.250000X1.000000X-1.500000X1.000000X1.500000X-1.000000X1.500000X-1.000000X-1.500000X0*%
%ADD42R,3.200000X3.200000*%
%ADD43O,3.200000X3.200000*%
%ADD44RoundRect,0.250000X-1.425000X0.362500X-1.425000X-0.362500X1.425000X-0.362500X1.425000X0.362500X0*%
G04 APERTURE END LIST*
D10*
X163554895Y-129823530D02*
X164367695Y-129552597D01*
X163554895Y-129281663D01*
X163554895Y-128855911D02*
X163554895Y-128778501D01*
X163593600Y-128701092D01*
X163632304Y-128662387D01*
X163709714Y-128623682D01*
X163864533Y-128584978D01*
X164058057Y-128584978D01*
X164212876Y-128623682D01*
X164290285Y-128662387D01*
X164328990Y-128701092D01*
X164367695Y-128778501D01*
X164367695Y-128855911D01*
X164328990Y-128933320D01*
X164290285Y-128972025D01*
X164212876Y-129010730D01*
X164058057Y-129049435D01*
X163864533Y-129049435D01*
X163709714Y-129010730D01*
X163632304Y-128972025D01*
X163593600Y-128933320D01*
X163554895Y-128855911D01*
X164290285Y-128236635D02*
X164328990Y-128197930D01*
X164367695Y-128236635D01*
X164328990Y-128275340D01*
X164290285Y-128236635D01*
X164367695Y-128236635D01*
X164367695Y-127423835D02*
X164367695Y-127888292D01*
X164367695Y-127656063D02*
X163554895Y-127656063D01*
X163671009Y-127733473D01*
X163748419Y-127810882D01*
X163787123Y-127888292D01*
X162367695Y-129707416D02*
X161554895Y-129707416D01*
X162367695Y-129242959D02*
X161903238Y-129591301D01*
X161554895Y-129242959D02*
X162019352Y-129707416D01*
X162058057Y-128894616D02*
X162058057Y-128275340D01*
X161554895Y-127965701D02*
X161554895Y-127462540D01*
X161864533Y-127733473D01*
X161864533Y-127617359D01*
X161903238Y-127539949D01*
X161941942Y-127501244D01*
X162019352Y-127462540D01*
X162212876Y-127462540D01*
X162290285Y-127501244D01*
X162328990Y-127539949D01*
X162367695Y-127617359D01*
X162367695Y-127849587D01*
X162328990Y-127926997D01*
X162290285Y-127965701D01*
X161554895Y-126959378D02*
X161554895Y-126881968D01*
X161593600Y-126804559D01*
X161632304Y-126765854D01*
X161709714Y-126727149D01*
X161864533Y-126688444D01*
X162058057Y-126688444D01*
X162212876Y-126727149D01*
X162290285Y-126765854D01*
X162328990Y-126804559D01*
X162367695Y-126881968D01*
X162367695Y-126959378D01*
X162328990Y-127036787D01*
X162290285Y-127075492D01*
X162212876Y-127114197D01*
X162058057Y-127152901D01*
X161864533Y-127152901D01*
X161709714Y-127114197D01*
X161632304Y-127075492D01*
X161593600Y-127036787D01*
X161554895Y-126959378D01*
X161554895Y-126185282D02*
X161554895Y-126107873D01*
X161593600Y-126030463D01*
X161632304Y-125991759D01*
X161709714Y-125953054D01*
X161864533Y-125914349D01*
X162058057Y-125914349D01*
X162212876Y-125953054D01*
X162290285Y-125991759D01*
X162328990Y-126030463D01*
X162367695Y-126107873D01*
X162367695Y-126185282D01*
X162328990Y-126262692D01*
X162290285Y-126301397D01*
X162212876Y-126340101D01*
X162058057Y-126378806D01*
X161864533Y-126378806D01*
X161709714Y-126340101D01*
X161632304Y-126301397D01*
X161593600Y-126262692D01*
X161554895Y-126185282D01*
X162290285Y-124482273D02*
X162328990Y-124520978D01*
X162367695Y-124637092D01*
X162367695Y-124714501D01*
X162328990Y-124830616D01*
X162251580Y-124908025D01*
X162174171Y-124946730D01*
X162019352Y-124985435D01*
X161903238Y-124985435D01*
X161748419Y-124946730D01*
X161671009Y-124908025D01*
X161593600Y-124830616D01*
X161554895Y-124714501D01*
X161554895Y-124637092D01*
X161593600Y-124520978D01*
X161632304Y-124482273D01*
X161554895Y-123979111D02*
X161554895Y-123824292D01*
X161593600Y-123746882D01*
X161671009Y-123669473D01*
X161825828Y-123630768D01*
X162096761Y-123630768D01*
X162251580Y-123669473D01*
X162328990Y-123746882D01*
X162367695Y-123824292D01*
X162367695Y-123979111D01*
X162328990Y-124056520D01*
X162251580Y-124133930D01*
X162096761Y-124172635D01*
X161825828Y-124172635D01*
X161671009Y-124133930D01*
X161593600Y-124056520D01*
X161554895Y-123979111D01*
X162367695Y-123282425D02*
X161554895Y-123282425D01*
X162367695Y-122817968D01*
X161554895Y-122817968D01*
X161554895Y-122547035D02*
X161554895Y-122082578D01*
X162367695Y-122314806D02*
X161554895Y-122314806D01*
X162367695Y-121347187D02*
X161980647Y-121618120D01*
X162367695Y-121811644D02*
X161554895Y-121811644D01*
X161554895Y-121502006D01*
X161593600Y-121424597D01*
X161632304Y-121385892D01*
X161709714Y-121347187D01*
X161825828Y-121347187D01*
X161903238Y-121385892D01*
X161941942Y-121424597D01*
X161980647Y-121502006D01*
X161980647Y-121811644D01*
X161554895Y-120844025D02*
X161554895Y-120689206D01*
X161593600Y-120611797D01*
X161671009Y-120534387D01*
X161825828Y-120495682D01*
X162096761Y-120495682D01*
X162251580Y-120534387D01*
X162328990Y-120611797D01*
X162367695Y-120689206D01*
X162367695Y-120844025D01*
X162328990Y-120921435D01*
X162251580Y-120998844D01*
X162096761Y-121037549D01*
X161825828Y-121037549D01*
X161671009Y-120998844D01*
X161593600Y-120921435D01*
X161554895Y-120844025D01*
X162367695Y-119760292D02*
X162367695Y-120147340D01*
X161554895Y-120147340D01*
X162367695Y-119102311D02*
X162367695Y-119489359D01*
X161554895Y-119489359D01*
X161941942Y-118831378D02*
X161941942Y-118560444D01*
X162367695Y-118444330D02*
X162367695Y-118831378D01*
X161554895Y-118831378D01*
X161554895Y-118444330D01*
X162367695Y-117631530D02*
X161980647Y-117902463D01*
X162367695Y-118095987D02*
X161554895Y-118095987D01*
X161554895Y-117786349D01*
X161593600Y-117708940D01*
X161632304Y-117670235D01*
X161709714Y-117631530D01*
X161825828Y-117631530D01*
X161903238Y-117670235D01*
X161941942Y-117708940D01*
X161980647Y-117786349D01*
X161980647Y-118095987D01*
X94996000Y-130048000D02*
X119634000Y-130048000D01*
X119634000Y-130048000D02*
X119634000Y-143002000D01*
X119634000Y-143002000D02*
X94996000Y-143002000D01*
X94996000Y-143002000D02*
X94996000Y-130048000D01*
X87039000Y-100075000D02*
X103295000Y-100075000D01*
X103295000Y-100075000D02*
X103295000Y-109727000D01*
X103295000Y-109727000D02*
X87039000Y-109727000D01*
X87039000Y-109727000D02*
X87039000Y-100075000D01*
X87122000Y-111506000D02*
X113538000Y-111506000D01*
X113538000Y-111506000D02*
X113538000Y-127508000D01*
X113538000Y-127508000D02*
X87122000Y-127508000D01*
X87122000Y-127508000D02*
X87122000Y-111506000D01*
X102957085Y-111034285D02*
X102918380Y-111072990D01*
X102802266Y-111111695D01*
X102724857Y-111111695D01*
X102608742Y-111072990D01*
X102531333Y-110995580D01*
X102492628Y-110918171D01*
X102453923Y-110763352D01*
X102453923Y-110647238D01*
X102492628Y-110492419D01*
X102531333Y-110415009D01*
X102608742Y-110337600D01*
X102724857Y-110298895D01*
X102802266Y-110298895D01*
X102918380Y-110337600D01*
X102957085Y-110376304D01*
X103305428Y-110298895D02*
X103305428Y-110956876D01*
X103344133Y-111034285D01*
X103382838Y-111072990D01*
X103460247Y-111111695D01*
X103615066Y-111111695D01*
X103692476Y-111072990D01*
X103731180Y-111034285D01*
X103769885Y-110956876D01*
X103769885Y-110298895D01*
X104621390Y-111111695D02*
X104350457Y-110724647D01*
X104156933Y-111111695D02*
X104156933Y-110298895D01*
X104466571Y-110298895D01*
X104543980Y-110337600D01*
X104582685Y-110376304D01*
X104621390Y-110453714D01*
X104621390Y-110569828D01*
X104582685Y-110647238D01*
X104543980Y-110685942D01*
X104466571Y-110724647D01*
X104156933Y-110724647D01*
X105434190Y-111111695D02*
X105163257Y-110724647D01*
X104969733Y-111111695D02*
X104969733Y-110298895D01*
X105279371Y-110298895D01*
X105356780Y-110337600D01*
X105395485Y-110376304D01*
X105434190Y-110453714D01*
X105434190Y-110569828D01*
X105395485Y-110647238D01*
X105356780Y-110685942D01*
X105279371Y-110724647D01*
X104969733Y-110724647D01*
X105782533Y-110685942D02*
X106053466Y-110685942D01*
X106169580Y-111111695D02*
X105782533Y-111111695D01*
X105782533Y-110298895D01*
X106169580Y-110298895D01*
X106517923Y-111111695D02*
X106517923Y-110298895D01*
X106982380Y-111111695D01*
X106982380Y-110298895D01*
X107253314Y-110298895D02*
X107717771Y-110298895D01*
X107485542Y-111111695D02*
X107485542Y-110298895D01*
X108569276Y-111072990D02*
X108685390Y-111111695D01*
X108878914Y-111111695D01*
X108956323Y-111072990D01*
X108995028Y-111034285D01*
X109033733Y-110956876D01*
X109033733Y-110879466D01*
X108995028Y-110802057D01*
X108956323Y-110763352D01*
X108878914Y-110724647D01*
X108724095Y-110685942D01*
X108646685Y-110647238D01*
X108607980Y-110608533D01*
X108569276Y-110531123D01*
X108569276Y-110453714D01*
X108607980Y-110376304D01*
X108646685Y-110337600D01*
X108724095Y-110298895D01*
X108917619Y-110298895D01*
X109033733Y-110337600D01*
X109382076Y-110685942D02*
X109653009Y-110685942D01*
X109769123Y-111111695D02*
X109382076Y-111111695D01*
X109382076Y-110298895D01*
X109769123Y-110298895D01*
X110117466Y-111111695D02*
X110117466Y-110298895D01*
X110581923Y-111111695D01*
X110581923Y-110298895D01*
X110930266Y-111072990D02*
X111046380Y-111111695D01*
X111239904Y-111111695D01*
X111317314Y-111072990D01*
X111356019Y-111034285D01*
X111394723Y-110956876D01*
X111394723Y-110879466D01*
X111356019Y-110802057D01*
X111317314Y-110763352D01*
X111239904Y-110724647D01*
X111085085Y-110685942D01*
X111007676Y-110647238D01*
X110968971Y-110608533D01*
X110930266Y-110531123D01*
X110930266Y-110453714D01*
X110968971Y-110376304D01*
X111007676Y-110337600D01*
X111085085Y-110298895D01*
X111278609Y-110298895D01*
X111394723Y-110337600D01*
X111743066Y-111111695D02*
X111743066Y-110298895D01*
X112130114Y-111111695D02*
X112130114Y-110298895D01*
X112594571Y-111111695D01*
X112594571Y-110298895D01*
X113407371Y-110337600D02*
X113329961Y-110298895D01*
X113213847Y-110298895D01*
X113097733Y-110337600D01*
X113020323Y-110415009D01*
X112981619Y-110492419D01*
X112942914Y-110647238D01*
X112942914Y-110763352D01*
X112981619Y-110918171D01*
X113020323Y-110995580D01*
X113097733Y-111072990D01*
X113213847Y-111111695D01*
X113291257Y-111111695D01*
X113407371Y-111072990D01*
X113446076Y-111034285D01*
X113446076Y-110763352D01*
X113291257Y-110763352D01*
X103982761Y-100951695D02*
X103982761Y-100138895D01*
X104176285Y-100138895D01*
X104292400Y-100177600D01*
X104369809Y-100255009D01*
X104408514Y-100332419D01*
X104447219Y-100487238D01*
X104447219Y-100603352D01*
X104408514Y-100758171D01*
X104369809Y-100835580D01*
X104292400Y-100912990D01*
X104176285Y-100951695D01*
X103982761Y-100951695D01*
X105260019Y-100951695D02*
X104989085Y-100564647D01*
X104795561Y-100951695D02*
X104795561Y-100138895D01*
X105105200Y-100138895D01*
X105182609Y-100177600D01*
X105221314Y-100216304D01*
X105260019Y-100293714D01*
X105260019Y-100409828D01*
X105221314Y-100487238D01*
X105182609Y-100525942D01*
X105105200Y-100564647D01*
X104795561Y-100564647D01*
X105608361Y-100951695D02*
X105608361Y-100138895D01*
X105879295Y-100138895D02*
X106150228Y-100951695D01*
X106421161Y-100138895D01*
X106692095Y-100525942D02*
X106963028Y-100525942D01*
X107079142Y-100951695D02*
X106692095Y-100951695D01*
X106692095Y-100138895D01*
X107079142Y-100138895D01*
X107891942Y-100951695D02*
X107621009Y-100564647D01*
X107427485Y-100951695D02*
X107427485Y-100138895D01*
X107737123Y-100138895D01*
X107814533Y-100177600D01*
X107853238Y-100216304D01*
X107891942Y-100293714D01*
X107891942Y-100409828D01*
X107853238Y-100487238D01*
X107814533Y-100525942D01*
X107737123Y-100564647D01*
X107427485Y-100564647D01*
X110572247Y-129399695D02*
X110572247Y-128586895D01*
X110881885Y-128586895D01*
X110959295Y-128625600D01*
X110998000Y-128664304D01*
X111036704Y-128741714D01*
X111036704Y-128857828D01*
X110998000Y-128935238D01*
X110959295Y-128973942D01*
X110881885Y-129012647D01*
X110572247Y-129012647D01*
X111539866Y-128586895D02*
X111694685Y-128586895D01*
X111772095Y-128625600D01*
X111849504Y-128703009D01*
X111888209Y-128857828D01*
X111888209Y-129128761D01*
X111849504Y-129283580D01*
X111772095Y-129360990D01*
X111694685Y-129399695D01*
X111539866Y-129399695D01*
X111462457Y-129360990D01*
X111385047Y-129283580D01*
X111346342Y-129128761D01*
X111346342Y-128857828D01*
X111385047Y-128703009D01*
X111462457Y-128625600D01*
X111539866Y-128586895D01*
X112159142Y-128586895D02*
X112352666Y-129399695D01*
X112507485Y-128819123D01*
X112662304Y-129399695D01*
X112855828Y-128586895D01*
X113165466Y-128973942D02*
X113436400Y-128973942D01*
X113552514Y-129399695D02*
X113165466Y-129399695D01*
X113165466Y-128586895D01*
X113552514Y-128586895D01*
X114365314Y-129399695D02*
X114094380Y-129012647D01*
X113900857Y-129399695D02*
X113900857Y-128586895D01*
X114210495Y-128586895D01*
X114287904Y-128625600D01*
X114326609Y-128664304D01*
X114365314Y-128741714D01*
X114365314Y-128857828D01*
X114326609Y-128935238D01*
X114287904Y-128973942D01*
X114210495Y-129012647D01*
X113900857Y-129012647D01*
X115294228Y-129360990D02*
X115410342Y-129399695D01*
X115603866Y-129399695D01*
X115681276Y-129360990D01*
X115719980Y-129322285D01*
X115758685Y-129244876D01*
X115758685Y-129167466D01*
X115719980Y-129090057D01*
X115681276Y-129051352D01*
X115603866Y-129012647D01*
X115449047Y-128973942D01*
X115371638Y-128935238D01*
X115332933Y-128896533D01*
X115294228Y-128819123D01*
X115294228Y-128741714D01*
X115332933Y-128664304D01*
X115371638Y-128625600D01*
X115449047Y-128586895D01*
X115642571Y-128586895D01*
X115758685Y-128625600D01*
X116107028Y-128586895D02*
X116107028Y-129244876D01*
X116145733Y-129322285D01*
X116184438Y-129360990D01*
X116261847Y-129399695D01*
X116416666Y-129399695D01*
X116494076Y-129360990D01*
X116532780Y-129322285D01*
X116571485Y-129244876D01*
X116571485Y-128586895D01*
X116958533Y-129399695D02*
X116958533Y-128586895D01*
X117268171Y-128586895D01*
X117345580Y-128625600D01*
X117384285Y-128664304D01*
X117422990Y-128741714D01*
X117422990Y-128857828D01*
X117384285Y-128935238D01*
X117345580Y-128973942D01*
X117268171Y-129012647D01*
X116958533Y-129012647D01*
X117771333Y-129399695D02*
X117771333Y-128586895D01*
X118080971Y-128586895D01*
X118158380Y-128625600D01*
X118197085Y-128664304D01*
X118235790Y-128741714D01*
X118235790Y-128857828D01*
X118197085Y-128935238D01*
X118158380Y-128973942D01*
X118080971Y-129012647D01*
X117771333Y-129012647D01*
X118971180Y-129399695D02*
X118584133Y-129399695D01*
X118584133Y-128586895D01*
X119396933Y-129012647D02*
X119396933Y-129399695D01*
X119126000Y-128586895D02*
X119396933Y-129012647D01*
X119667866Y-128586895D01*
X79763257Y-148633542D02*
X79066571Y-148633542D01*
X79414914Y-148633542D02*
X79414914Y-147414342D01*
X79298800Y-147588514D01*
X79182685Y-147704628D01*
X79066571Y-147762685D01*
X80227714Y-147530457D02*
X80285771Y-147472400D01*
X80401885Y-147414342D01*
X80692171Y-147414342D01*
X80808285Y-147472400D01*
X80866342Y-147530457D01*
X80924400Y-147646571D01*
X80924400Y-147762685D01*
X80866342Y-147936857D01*
X80169657Y-148633542D01*
X80924400Y-148633542D01*
X81272742Y-147414342D02*
X81679142Y-148633542D01*
X82085542Y-147414342D01*
D11*
X108458095Y-138136380D02*
X108458095Y-138945904D01*
X108505714Y-139041142D01*
X108553333Y-139088761D01*
X108648571Y-139136380D01*
X108839047Y-139136380D01*
X108934285Y-139088761D01*
X108981904Y-139041142D01*
X109029523Y-138945904D01*
X109029523Y-138136380D01*
X109458095Y-138231619D02*
X109505714Y-138184000D01*
X109600952Y-138136380D01*
X109839047Y-138136380D01*
X109934285Y-138184000D01*
X109981904Y-138231619D01*
X110029523Y-138326857D01*
X110029523Y-138422095D01*
X109981904Y-138564952D01*
X109410476Y-139136380D01*
X110029523Y-139136380D01*
X86463142Y-116498666D02*
X86510761Y-116546285D01*
X86558380Y-116689142D01*
X86558380Y-116784380D01*
X86510761Y-116927238D01*
X86415523Y-117022476D01*
X86320285Y-117070095D01*
X86129809Y-117117714D01*
X85986952Y-117117714D01*
X85796476Y-117070095D01*
X85701238Y-117022476D01*
X85606000Y-116927238D01*
X85558380Y-116784380D01*
X85558380Y-116689142D01*
X85606000Y-116546285D01*
X85653619Y-116498666D01*
X85653619Y-116117714D02*
X85606000Y-116070095D01*
X85558380Y-115974857D01*
X85558380Y-115736761D01*
X85606000Y-115641523D01*
X85653619Y-115593904D01*
X85748857Y-115546285D01*
X85844095Y-115546285D01*
X85986952Y-115593904D01*
X86558380Y-116165333D01*
X86558380Y-115546285D01*
X87016666Y-132602380D02*
X87016666Y-133316666D01*
X86969047Y-133459523D01*
X86873809Y-133554761D01*
X86730952Y-133602380D01*
X86635714Y-133602380D01*
X88016666Y-133602380D02*
X87445238Y-133602380D01*
X87730952Y-133602380D02*
X87730952Y-132602380D01*
X87635714Y-132745238D01*
X87540476Y-132840476D01*
X87445238Y-132888095D01*
X162607809Y-133346372D02*
X163226857Y-133346372D01*
X162893523Y-133727325D01*
X163036380Y-133727325D01*
X163131619Y-133774944D01*
X163179238Y-133822563D01*
X163226857Y-133917801D01*
X163226857Y-134155896D01*
X163179238Y-134251134D01*
X163131619Y-134298753D01*
X163036380Y-134346372D01*
X162750666Y-134346372D01*
X162655428Y-134298753D01*
X162607809Y-134251134D01*
X163655428Y-134251134D02*
X163703047Y-134298753D01*
X163655428Y-134346372D01*
X163607809Y-134298753D01*
X163655428Y-134251134D01*
X163655428Y-134346372D01*
X164036380Y-133346372D02*
X164655428Y-133346372D01*
X164322095Y-133727325D01*
X164464952Y-133727325D01*
X164560190Y-133774944D01*
X164607809Y-133822563D01*
X164655428Y-133917801D01*
X164655428Y-134155896D01*
X164607809Y-134251134D01*
X164560190Y-134298753D01*
X164464952Y-134346372D01*
X164179238Y-134346372D01*
X164084000Y-134298753D01*
X164036380Y-134251134D01*
X164941142Y-133346372D02*
X165274476Y-134346372D01*
X165607809Y-133346372D01*
X114403142Y-136056666D02*
X114450761Y-136104285D01*
X114498380Y-136247142D01*
X114498380Y-136342380D01*
X114450761Y-136485238D01*
X114355523Y-136580476D01*
X114260285Y-136628095D01*
X114069809Y-136675714D01*
X113926952Y-136675714D01*
X113736476Y-136628095D01*
X113641238Y-136580476D01*
X113546000Y-136485238D01*
X113498380Y-136342380D01*
X113498380Y-136247142D01*
X113546000Y-136104285D01*
X113593619Y-136056666D01*
X113498380Y-135199523D02*
X113498380Y-135390000D01*
X113546000Y-135485238D01*
X113593619Y-135532857D01*
X113736476Y-135628095D01*
X113926952Y-135675714D01*
X114307904Y-135675714D01*
X114403142Y-135628095D01*
X114450761Y-135580476D01*
X114498380Y-135485238D01*
X114498380Y-135294761D01*
X114450761Y-135199523D01*
X114403142Y-135151904D01*
X114307904Y-135104285D01*
X114069809Y-135104285D01*
X113974571Y-135151904D01*
X113926952Y-135199523D01*
X113879333Y-135294761D01*
X113879333Y-135485238D01*
X113926952Y-135580476D01*
X113974571Y-135628095D01*
X114069809Y-135675714D01*
X117157523Y-134452380D02*
X116681333Y-134452380D01*
X116633714Y-134928571D01*
X116681333Y-134880952D01*
X116776571Y-134833333D01*
X117014666Y-134833333D01*
X117109904Y-134880952D01*
X117157523Y-134928571D01*
X117205142Y-135023809D01*
X117205142Y-135261904D01*
X117157523Y-135357142D01*
X117109904Y-135404761D01*
X117014666Y-135452380D01*
X116776571Y-135452380D01*
X116681333Y-135404761D01*
X116633714Y-135357142D01*
X117490857Y-134452380D02*
X117824190Y-135452380D01*
X118157523Y-134452380D01*
X72707619Y-114402380D02*
X72707619Y-113402380D01*
X73040952Y-114116666D01*
X73374285Y-113402380D01*
X73374285Y-114402380D01*
X73850476Y-114021428D02*
X74612380Y-114021428D01*
X101906666Y-125815880D02*
X101906666Y-126530166D01*
X101859047Y-126673023D01*
X101763809Y-126768261D01*
X101620952Y-126815880D01*
X101525714Y-126815880D01*
X102382857Y-126815880D02*
X102382857Y-125815880D01*
X102763809Y-125815880D01*
X102859047Y-125863500D01*
X102906666Y-125911119D01*
X102954285Y-126006357D01*
X102954285Y-126149214D01*
X102906666Y-126244452D01*
X102859047Y-126292071D01*
X102763809Y-126339690D01*
X102382857Y-126339690D01*
X103906666Y-126815880D02*
X103335238Y-126815880D01*
X103620952Y-126815880D02*
X103620952Y-125815880D01*
X103525714Y-125958738D01*
X103430476Y-126053976D01*
X103335238Y-126101595D01*
X105625714Y-125015880D02*
X105054285Y-125015880D01*
X105340000Y-125015880D02*
X105340000Y-124015880D01*
X105244761Y-124158738D01*
X105149523Y-124253976D01*
X105054285Y-124301595D01*
X99806666Y-124015880D02*
X100425714Y-124015880D01*
X100092380Y-124396833D01*
X100235238Y-124396833D01*
X100330476Y-124444452D01*
X100378095Y-124492071D01*
X100425714Y-124587309D01*
X100425714Y-124825404D01*
X100378095Y-124920642D01*
X100330476Y-124968261D01*
X100235238Y-125015880D01*
X99949523Y-125015880D01*
X99854285Y-124968261D01*
X99806666Y-124920642D01*
X74190476Y-141252380D02*
X74190476Y-140252380D01*
X74523809Y-140966666D01*
X74857142Y-140252380D01*
X74857142Y-141252380D01*
X75238095Y-140252380D02*
X75857142Y-140252380D01*
X75523809Y-140633333D01*
X75666666Y-140633333D01*
X75761904Y-140680952D01*
X75809523Y-140728571D01*
X75857142Y-140823809D01*
X75857142Y-141061904D01*
X75809523Y-141157142D01*
X75761904Y-141204761D01*
X75666666Y-141252380D01*
X75380952Y-141252380D01*
X75285714Y-141204761D01*
X75238095Y-141157142D01*
X117926380Y-117110166D02*
X117450190Y-117443500D01*
X117926380Y-117681595D02*
X116926380Y-117681595D01*
X116926380Y-117300642D01*
X116974000Y-117205404D01*
X117021619Y-117157785D01*
X117116857Y-117110166D01*
X117259714Y-117110166D01*
X117354952Y-117157785D01*
X117402571Y-117205404D01*
X117450190Y-117300642D01*
X117450190Y-117681595D01*
X116926380Y-116776833D02*
X116926380Y-116110166D01*
X117926380Y-116538738D01*
X95272333Y-120824880D02*
X94939000Y-120348690D01*
X94700904Y-120824880D02*
X94700904Y-119824880D01*
X95081857Y-119824880D01*
X95177095Y-119872500D01*
X95224714Y-119920119D01*
X95272333Y-120015357D01*
X95272333Y-120158214D01*
X95224714Y-120253452D01*
X95177095Y-120301071D01*
X95081857Y-120348690D01*
X94700904Y-120348690D01*
X95605666Y-119824880D02*
X96224714Y-119824880D01*
X95891380Y-120205833D01*
X96034238Y-120205833D01*
X96129476Y-120253452D01*
X96177095Y-120301071D01*
X96224714Y-120396309D01*
X96224714Y-120634404D01*
X96177095Y-120729642D01*
X96129476Y-120777261D01*
X96034238Y-120824880D01*
X95748523Y-120824880D01*
X95653285Y-120777261D01*
X95605666Y-120729642D01*
X95250095Y-148598000D02*
X95154857Y-148550380D01*
X95012000Y-148550380D01*
X94869142Y-148598000D01*
X94773904Y-148693238D01*
X94726285Y-148788476D01*
X94678666Y-148978952D01*
X94678666Y-149121809D01*
X94726285Y-149312285D01*
X94773904Y-149407523D01*
X94869142Y-149502761D01*
X95012000Y-149550380D01*
X95107238Y-149550380D01*
X95250095Y-149502761D01*
X95297714Y-149455142D01*
X95297714Y-149121809D01*
X95107238Y-149121809D01*
X95726285Y-149550380D02*
X95726285Y-148550380D01*
X96297714Y-149550380D01*
X96297714Y-148550380D01*
X96773904Y-149550380D02*
X96773904Y-148550380D01*
X97012000Y-148550380D01*
X97154857Y-148598000D01*
X97250095Y-148693238D01*
X97297714Y-148788476D01*
X97345333Y-148978952D01*
X97345333Y-149121809D01*
X97297714Y-149312285D01*
X97250095Y-149407523D01*
X97154857Y-149502761D01*
X97012000Y-149550380D01*
X96773904Y-149550380D01*
X120451714Y-122106753D02*
X120594571Y-122154372D01*
X120832666Y-122154372D01*
X120927904Y-122106753D01*
X120975523Y-122059134D01*
X121023142Y-121963896D01*
X121023142Y-121868658D01*
X120975523Y-121773420D01*
X120927904Y-121725801D01*
X120832666Y-121678182D01*
X120642190Y-121630563D01*
X120546952Y-121582944D01*
X120499333Y-121535325D01*
X120451714Y-121440087D01*
X120451714Y-121344849D01*
X120499333Y-121249611D01*
X120546952Y-121201992D01*
X120642190Y-121154372D01*
X120880285Y-121154372D01*
X121023142Y-121201992D01*
X121451714Y-122154372D02*
X121451714Y-121154372D01*
X121689809Y-121154372D01*
X121832666Y-121201992D01*
X121927904Y-121297230D01*
X121975523Y-121392468D01*
X122023142Y-121582944D01*
X122023142Y-121725801D01*
X121975523Y-121916277D01*
X121927904Y-122011515D01*
X121832666Y-122106753D01*
X121689809Y-122154372D01*
X121451714Y-122154372D01*
X122404095Y-121868658D02*
X122880285Y-121868658D01*
X122308857Y-122154372D02*
X122642190Y-121154372D01*
X122975523Y-122154372D01*
X98574333Y-119229142D02*
X98526714Y-119276761D01*
X98383857Y-119324380D01*
X98288619Y-119324380D01*
X98145761Y-119276761D01*
X98050523Y-119181523D01*
X98002904Y-119086285D01*
X97955285Y-118895809D01*
X97955285Y-118752952D01*
X98002904Y-118562476D01*
X98050523Y-118467238D01*
X98145761Y-118372000D01*
X98288619Y-118324380D01*
X98383857Y-118324380D01*
X98526714Y-118372000D01*
X98574333Y-118419619D01*
X99526714Y-119324380D02*
X98955285Y-119324380D01*
X99241000Y-119324380D02*
X99241000Y-118324380D01*
X99145761Y-118467238D01*
X99050523Y-118562476D01*
X98955285Y-118610095D01*
X100541333Y-116538642D02*
X100493714Y-116586261D01*
X100350857Y-116633880D01*
X100255619Y-116633880D01*
X100112761Y-116586261D01*
X100017523Y-116491023D01*
X99969904Y-116395785D01*
X99922285Y-116205309D01*
X99922285Y-116062452D01*
X99969904Y-115871976D01*
X100017523Y-115776738D01*
X100112761Y-115681500D01*
X100255619Y-115633880D01*
X100350857Y-115633880D01*
X100493714Y-115681500D01*
X100541333Y-115729119D01*
X100874666Y-115633880D02*
X101493714Y-115633880D01*
X101160380Y-116014833D01*
X101303238Y-116014833D01*
X101398476Y-116062452D01*
X101446095Y-116110071D01*
X101493714Y-116205309D01*
X101493714Y-116443404D01*
X101446095Y-116538642D01*
X101398476Y-116586261D01*
X101303238Y-116633880D01*
X101017523Y-116633880D01*
X100922285Y-116586261D01*
X100874666Y-116538642D01*
X73215619Y-125806384D02*
X73215619Y-124806384D01*
X73548952Y-125520670D01*
X73882285Y-124806384D01*
X73882285Y-125806384D01*
X74358476Y-125425432D02*
X75120380Y-125425432D01*
X74739428Y-125806384D02*
X74739428Y-125044480D01*
X107124666Y-144930761D02*
X107267523Y-144978380D01*
X107505619Y-144978380D01*
X107600857Y-144930761D01*
X107648476Y-144883142D01*
X107696095Y-144787904D01*
X107696095Y-144692666D01*
X107648476Y-144597428D01*
X107600857Y-144549809D01*
X107505619Y-144502190D01*
X107315142Y-144454571D01*
X107219904Y-144406952D01*
X107172285Y-144359333D01*
X107124666Y-144264095D01*
X107124666Y-144168857D01*
X107172285Y-144073619D01*
X107219904Y-144026000D01*
X107315142Y-143978380D01*
X107553238Y-143978380D01*
X107696095Y-144026000D01*
X108029428Y-143978380D02*
X108267523Y-144978380D01*
X108458000Y-144264095D01*
X108648476Y-144978380D01*
X108886571Y-143978380D01*
X109791333Y-144978380D02*
X109219904Y-144978380D01*
X109505619Y-144978380D02*
X109505619Y-143978380D01*
X109410380Y-144121238D01*
X109315142Y-144216476D01*
X109219904Y-144264095D01*
X72786952Y-133548380D02*
X72215523Y-133548380D01*
X72501238Y-133548380D02*
X72501238Y-132548380D01*
X72406000Y-132691238D01*
X72310761Y-132786476D01*
X72215523Y-132834095D01*
X73167904Y-132643619D02*
X73215523Y-132596000D01*
X73310761Y-132548380D01*
X73548857Y-132548380D01*
X73644095Y-132596000D01*
X73691714Y-132643619D01*
X73739333Y-132738857D01*
X73739333Y-132834095D01*
X73691714Y-132976952D01*
X73120285Y-133548380D01*
X73739333Y-133548380D01*
X74025047Y-132548380D02*
X74358380Y-133548380D01*
X74691714Y-132548380D01*
X102985380Y-106083666D02*
X102509190Y-106417000D01*
X102985380Y-106655095D02*
X101985380Y-106655095D01*
X101985380Y-106274142D01*
X102033000Y-106178904D01*
X102080619Y-106131285D01*
X102175857Y-106083666D01*
X102318714Y-106083666D01*
X102413952Y-106131285D01*
X102461571Y-106178904D01*
X102509190Y-106274142D01*
X102509190Y-106655095D01*
X101985380Y-105178904D02*
X101985380Y-105655095D01*
X102461571Y-105702714D01*
X102413952Y-105655095D01*
X102366333Y-105559857D01*
X102366333Y-105321761D01*
X102413952Y-105226523D01*
X102461571Y-105178904D01*
X102556809Y-105131285D01*
X102794904Y-105131285D01*
X102890142Y-105178904D01*
X102937761Y-105226523D01*
X102985380Y-105321761D01*
X102985380Y-105559857D01*
X102937761Y-105655095D01*
X102890142Y-105702714D01*
X96341761Y-105448619D02*
X96246523Y-105401000D01*
X96151285Y-105305761D01*
X96008428Y-105162904D01*
X95913190Y-105115285D01*
X95817952Y-105115285D01*
X95865571Y-105353380D02*
X95770333Y-105305761D01*
X95675095Y-105210523D01*
X95627476Y-105020047D01*
X95627476Y-104686714D01*
X95675095Y-104496238D01*
X95770333Y-104401000D01*
X95865571Y-104353380D01*
X96056047Y-104353380D01*
X96151285Y-104401000D01*
X96246523Y-104496238D01*
X96294142Y-104686714D01*
X96294142Y-105020047D01*
X96246523Y-105210523D01*
X96151285Y-105305761D01*
X96056047Y-105353380D01*
X95865571Y-105353380D01*
X97246523Y-105353380D02*
X96675095Y-105353380D01*
X96960809Y-105353380D02*
X96960809Y-104353380D01*
X96865571Y-104496238D01*
X96770333Y-104591476D01*
X96675095Y-104639095D01*
X94510333Y-126920880D02*
X94177000Y-126444690D01*
X93938904Y-126920880D02*
X93938904Y-125920880D01*
X94319857Y-125920880D01*
X94415095Y-125968500D01*
X94462714Y-126016119D01*
X94510333Y-126111357D01*
X94510333Y-126254214D01*
X94462714Y-126349452D01*
X94415095Y-126397071D01*
X94319857Y-126444690D01*
X93938904Y-126444690D01*
X94891285Y-126016119D02*
X94938904Y-125968500D01*
X95034142Y-125920880D01*
X95272238Y-125920880D01*
X95367476Y-125968500D01*
X95415095Y-126016119D01*
X95462714Y-126111357D01*
X95462714Y-126206595D01*
X95415095Y-126349452D01*
X94843666Y-126920880D01*
X95462714Y-126920880D01*
X120475523Y-116010753D02*
X120618380Y-116058372D01*
X120856476Y-116058372D01*
X120951714Y-116010753D01*
X120999333Y-115963134D01*
X121046952Y-115867896D01*
X121046952Y-115772658D01*
X120999333Y-115677420D01*
X120951714Y-115629801D01*
X120856476Y-115582182D01*
X120666000Y-115534563D01*
X120570761Y-115486944D01*
X120523142Y-115439325D01*
X120475523Y-115344087D01*
X120475523Y-115248849D01*
X120523142Y-115153611D01*
X120570761Y-115105992D01*
X120666000Y-115058372D01*
X120904095Y-115058372D01*
X121046952Y-115105992D01*
X122046952Y-115963134D02*
X121999333Y-116010753D01*
X121856476Y-116058372D01*
X121761238Y-116058372D01*
X121618380Y-116010753D01*
X121523142Y-115915515D01*
X121475523Y-115820277D01*
X121427904Y-115629801D01*
X121427904Y-115486944D01*
X121475523Y-115296468D01*
X121523142Y-115201230D01*
X121618380Y-115105992D01*
X121761238Y-115058372D01*
X121856476Y-115058372D01*
X121999333Y-115105992D01*
X122046952Y-115153611D01*
X122951714Y-116058372D02*
X122475523Y-116058372D01*
X122475523Y-115058372D01*
X77414380Y-117395523D02*
X76414380Y-117395523D01*
X77128666Y-117062190D01*
X76414380Y-116728857D01*
X77414380Y-116728857D01*
X77414380Y-115728857D02*
X77414380Y-116300285D01*
X77414380Y-116014571D02*
X76414380Y-116014571D01*
X76557238Y-116109809D01*
X76652476Y-116205047D01*
X76700095Y-116300285D01*
X119404095Y-109454372D02*
X119404095Y-108454372D01*
X119737428Y-109168658D01*
X120070761Y-108454372D01*
X120070761Y-109454372D01*
X120737428Y-108454372D02*
X120927904Y-108454372D01*
X121023142Y-108501992D01*
X121118380Y-108597230D01*
X121166000Y-108787706D01*
X121166000Y-109121039D01*
X121118380Y-109311515D01*
X121023142Y-109406753D01*
X120927904Y-109454372D01*
X120737428Y-109454372D01*
X120642190Y-109406753D01*
X120546952Y-109311515D01*
X120499333Y-109121039D01*
X120499333Y-108787706D01*
X120546952Y-108597230D01*
X120642190Y-108501992D01*
X120737428Y-108454372D01*
X121451714Y-108454372D02*
X122023142Y-108454372D01*
X121737428Y-109454372D02*
X121737428Y-108454372D01*
X122546952Y-108454372D02*
X122737428Y-108454372D01*
X122832666Y-108501992D01*
X122927904Y-108597230D01*
X122975523Y-108787706D01*
X122975523Y-109121039D01*
X122927904Y-109311515D01*
X122832666Y-109406753D01*
X122737428Y-109454372D01*
X122546952Y-109454372D01*
X122451714Y-109406753D01*
X122356476Y-109311515D01*
X122308857Y-109121039D01*
X122308857Y-108787706D01*
X122356476Y-108597230D01*
X122451714Y-108501992D01*
X122546952Y-108454372D01*
X123975523Y-109454372D02*
X123642190Y-108978182D01*
X123404095Y-109454372D02*
X123404095Y-108454372D01*
X123785047Y-108454372D01*
X123880285Y-108501992D01*
X123927904Y-108549611D01*
X123975523Y-108644849D01*
X123975523Y-108787706D01*
X123927904Y-108882944D01*
X123880285Y-108930563D01*
X123785047Y-108978182D01*
X123404095Y-108978182D01*
X123134571Y-148772571D02*
X123467904Y-148772571D01*
X123610761Y-149296380D02*
X123134571Y-149296380D01*
X123134571Y-148296380D01*
X123610761Y-148296380D01*
X123944095Y-148296380D02*
X124610761Y-149296380D01*
X124610761Y-148296380D02*
X123944095Y-149296380D01*
X124848857Y-148296380D02*
X125420285Y-148296380D01*
X125134571Y-149296380D02*
X125134571Y-148296380D01*
X100414380Y-119229404D02*
X101223904Y-119229404D01*
X101319142Y-119181785D01*
X101366761Y-119134166D01*
X101414380Y-119038928D01*
X101414380Y-118848452D01*
X101366761Y-118753214D01*
X101319142Y-118705595D01*
X101223904Y-118657976D01*
X100414380Y-118657976D01*
X101414380Y-117657976D02*
X101414380Y-118229404D01*
X101414380Y-117943690D02*
X100414380Y-117943690D01*
X100557238Y-118038928D01*
X100652476Y-118134166D01*
X100700095Y-118229404D01*
X153341095Y-150764380D02*
X153341095Y-151573904D01*
X153388714Y-151669142D01*
X153436333Y-151716761D01*
X153531571Y-151764380D01*
X153722047Y-151764380D01*
X153817285Y-151716761D01*
X153864904Y-151669142D01*
X153912523Y-151573904D01*
X153912523Y-150764380D01*
X154293476Y-150764380D02*
X154912523Y-150764380D01*
X154579190Y-151145333D01*
X154722047Y-151145333D01*
X154817285Y-151192952D01*
X154864904Y-151240571D01*
X154912523Y-151335809D01*
X154912523Y-151573904D01*
X154864904Y-151669142D01*
X154817285Y-151716761D01*
X154722047Y-151764380D01*
X154436333Y-151764380D01*
X154341095Y-151716761D01*
X154293476Y-151669142D01*
X103211333Y-139041142D02*
X103163714Y-139088761D01*
X103020857Y-139136380D01*
X102925619Y-139136380D01*
X102782761Y-139088761D01*
X102687523Y-138993523D01*
X102639904Y-138898285D01*
X102592285Y-138707809D01*
X102592285Y-138564952D01*
X102639904Y-138374476D01*
X102687523Y-138279238D01*
X102782761Y-138184000D01*
X102925619Y-138136380D01*
X103020857Y-138136380D01*
X103163714Y-138184000D01*
X103211333Y-138231619D01*
X104068476Y-138469714D02*
X104068476Y-139136380D01*
X103830380Y-138088761D02*
X103592285Y-138803047D01*
X104211333Y-138803047D01*
X102985380Y-102527666D02*
X102509190Y-102861000D01*
X102985380Y-103099095D02*
X101985380Y-103099095D01*
X101985380Y-102718142D01*
X102033000Y-102622904D01*
X102080619Y-102575285D01*
X102175857Y-102527666D01*
X102318714Y-102527666D01*
X102413952Y-102575285D01*
X102461571Y-102622904D01*
X102509190Y-102718142D01*
X102509190Y-103099095D01*
X102318714Y-101670523D02*
X102985380Y-101670523D01*
X101937761Y-101908619D02*
X102652047Y-102146714D01*
X102652047Y-101527666D01*
X86304380Y-125960095D02*
X85304380Y-125960095D01*
X85304380Y-125722000D01*
X85352000Y-125579142D01*
X85447238Y-125483904D01*
X85542476Y-125436285D01*
X85732952Y-125388666D01*
X85875809Y-125388666D01*
X86066285Y-125436285D01*
X86161523Y-125483904D01*
X86256761Y-125579142D01*
X86304380Y-125722000D01*
X86304380Y-125960095D01*
X86304380Y-124436285D02*
X86304380Y-125007714D01*
X86304380Y-124722000D02*
X85304380Y-124722000D01*
X85447238Y-124817238D01*
X85542476Y-124912476D01*
X85590095Y-125007714D01*
X79640380Y-128881904D02*
X78640380Y-128881904D01*
X79640380Y-128310476D02*
X79068952Y-128739047D01*
X78640380Y-128310476D02*
X79211809Y-128881904D01*
X93177380Y-121555166D02*
X92701190Y-121888500D01*
X93177380Y-122126595D02*
X92177380Y-122126595D01*
X92177380Y-121745642D01*
X92225000Y-121650404D01*
X92272619Y-121602785D01*
X92367857Y-121555166D01*
X92510714Y-121555166D01*
X92605952Y-121602785D01*
X92653571Y-121650404D01*
X92701190Y-121745642D01*
X92701190Y-122126595D01*
X93177380Y-120602785D02*
X93177380Y-121174214D01*
X93177380Y-120888500D02*
X92177380Y-120888500D01*
X92320238Y-120983738D01*
X92415476Y-121078976D01*
X92463095Y-121174214D01*
X100541333Y-114506642D02*
X100493714Y-114554261D01*
X100350857Y-114601880D01*
X100255619Y-114601880D01*
X100112761Y-114554261D01*
X100017523Y-114459023D01*
X99969904Y-114363785D01*
X99922285Y-114173309D01*
X99922285Y-114030452D01*
X99969904Y-113839976D01*
X100017523Y-113744738D01*
X100112761Y-113649500D01*
X100255619Y-113601880D01*
X100350857Y-113601880D01*
X100493714Y-113649500D01*
X100541333Y-113697119D01*
X101446095Y-113601880D02*
X100969904Y-113601880D01*
X100922285Y-114078071D01*
X100969904Y-114030452D01*
X101065142Y-113982833D01*
X101303238Y-113982833D01*
X101398476Y-114030452D01*
X101446095Y-114078071D01*
X101493714Y-114173309D01*
X101493714Y-114411404D01*
X101446095Y-114506642D01*
X101398476Y-114554261D01*
X101303238Y-114601880D01*
X101065142Y-114601880D01*
X100969904Y-114554261D01*
X100922285Y-114506642D01*
X118054380Y-120205166D02*
X117578190Y-120538500D01*
X118054380Y-120776595D02*
X117054380Y-120776595D01*
X117054380Y-120395642D01*
X117102000Y-120300404D01*
X117149619Y-120252785D01*
X117244857Y-120205166D01*
X117387714Y-120205166D01*
X117482952Y-120252785D01*
X117530571Y-120300404D01*
X117578190Y-120395642D01*
X117578190Y-120776595D01*
X117054380Y-119348023D02*
X117054380Y-119538500D01*
X117102000Y-119633738D01*
X117149619Y-119681357D01*
X117292476Y-119776595D01*
X117482952Y-119824214D01*
X117863904Y-119824214D01*
X117959142Y-119776595D01*
X118006761Y-119728976D01*
X118054380Y-119633738D01*
X118054380Y-119443261D01*
X118006761Y-119348023D01*
X117959142Y-119300404D01*
X117863904Y-119252785D01*
X117625809Y-119252785D01*
X117530571Y-119300404D01*
X117482952Y-119348023D01*
X117435333Y-119443261D01*
X117435333Y-119633738D01*
X117482952Y-119728976D01*
X117530571Y-119776595D01*
X117625809Y-119824214D01*
X109018666Y-125815880D02*
X109018666Y-126530166D01*
X108971047Y-126673023D01*
X108875809Y-126768261D01*
X108732952Y-126815880D01*
X108637714Y-126815880D01*
X109494857Y-126815880D02*
X109494857Y-125815880D01*
X109875809Y-125815880D01*
X109971047Y-125863500D01*
X110018666Y-125911119D01*
X110066285Y-126006357D01*
X110066285Y-126149214D01*
X110018666Y-126244452D01*
X109971047Y-126292071D01*
X109875809Y-126339690D01*
X109494857Y-126339690D01*
X110447238Y-125911119D02*
X110494857Y-125863500D01*
X110590095Y-125815880D01*
X110828190Y-125815880D01*
X110923428Y-125863500D01*
X110971047Y-125911119D01*
X111018666Y-126006357D01*
X111018666Y-126101595D01*
X110971047Y-126244452D01*
X110399619Y-126815880D01*
X111018666Y-126815880D01*
X112737714Y-125015880D02*
X112166285Y-125015880D01*
X112452000Y-125015880D02*
X112452000Y-124015880D01*
X112356761Y-124158738D01*
X112261523Y-124253976D01*
X112166285Y-124301595D01*
X106918666Y-124015880D02*
X107537714Y-124015880D01*
X107204380Y-124396833D01*
X107347238Y-124396833D01*
X107442476Y-124444452D01*
X107490095Y-124492071D01*
X107537714Y-124587309D01*
X107537714Y-124825404D01*
X107490095Y-124920642D01*
X107442476Y-124968261D01*
X107347238Y-125015880D01*
X107061523Y-125015880D01*
X106966285Y-124968261D01*
X106918666Y-124920642D01*
G36*
X165511127Y-110260674D02*
G01*
X165539429Y-110292325D01*
X165550893Y-110320110D01*
X165550168Y-110358085D01*
X165548321Y-110373160D01*
X165542948Y-110420274D01*
X165539869Y-110459244D01*
X165539585Y-110468743D01*
X165541445Y-110500767D01*
X165546114Y-110546568D01*
X165548321Y-110564326D01*
X165551735Y-110607943D01*
X165544320Y-110637255D01*
X165521427Y-110666320D01*
X165511127Y-110676812D01*
X165465196Y-110722743D01*
X164978602Y-110722743D01*
X164961758Y-110685774D01*
X164949282Y-110653941D01*
X164944914Y-110635317D01*
X164958718Y-110630542D01*
X164997286Y-110626079D01*
X165056356Y-110622225D01*
X165131663Y-110619278D01*
X165195286Y-110617857D01*
X165445657Y-110613886D01*
X165450556Y-110579241D01*
X165447131Y-110547732D01*
X165436041Y-110532292D01*
X165415308Y-110527977D01*
X165371145Y-110524292D01*
X165309146Y-110521531D01*
X165234909Y-110519988D01*
X165196706Y-110519765D01*
X164976783Y-110519543D01*
X164960849Y-110473834D01*
X164950015Y-110441482D01*
X164944962Y-110423885D01*
X164944914Y-110423377D01*
X164958648Y-110421612D01*
X164996730Y-110419671D01*
X165054482Y-110417718D01*
X165127227Y-110415916D01*
X165195286Y-110414657D01*
X165445657Y-110410686D01*
X165445657Y-110323600D01*
X165217240Y-110319604D01*
X164988822Y-110315608D01*
X164966868Y-110273153D01*
X164951793Y-110241808D01*
X164944951Y-110223256D01*
X164944914Y-110222721D01*
X164958663Y-110220167D01*
X164996850Y-110217952D01*
X165054886Y-110216216D01*
X165128180Y-110215101D01*
X165205055Y-110214743D01*
X165465196Y-110214743D01*
X165511127Y-110260674D01*
G37*
D12*
X165511127Y-110260674D02*
X165539429Y-110292325D01*
X165550893Y-110320110D01*
X165550168Y-110358085D01*
X165548321Y-110373160D01*
X165542948Y-110420274D01*
X165539869Y-110459244D01*
X165539585Y-110468743D01*
X165541445Y-110500767D01*
X165546114Y-110546568D01*
X165548321Y-110564326D01*
X165551735Y-110607943D01*
X165544320Y-110637255D01*
X165521427Y-110666320D01*
X165511127Y-110676812D01*
X165465196Y-110722743D01*
X164978602Y-110722743D01*
X164961758Y-110685774D01*
X164949282Y-110653941D01*
X164944914Y-110635317D01*
X164958718Y-110630542D01*
X164997286Y-110626079D01*
X165056356Y-110622225D01*
X165131663Y-110619278D01*
X165195286Y-110617857D01*
X165445657Y-110613886D01*
X165450556Y-110579241D01*
X165447131Y-110547732D01*
X165436041Y-110532292D01*
X165415308Y-110527977D01*
X165371145Y-110524292D01*
X165309146Y-110521531D01*
X165234909Y-110519988D01*
X165196706Y-110519765D01*
X164976783Y-110519543D01*
X164960849Y-110473834D01*
X164950015Y-110441482D01*
X164944962Y-110423885D01*
X164944914Y-110423377D01*
X164958648Y-110421612D01*
X164996730Y-110419671D01*
X165054482Y-110417718D01*
X165127227Y-110415916D01*
X165195286Y-110414657D01*
X165445657Y-110410686D01*
X165445657Y-110323600D01*
X165217240Y-110319604D01*
X164988822Y-110315608D01*
X164966868Y-110273153D01*
X164951793Y-110241808D01*
X164944951Y-110223256D01*
X164944914Y-110222721D01*
X164958663Y-110220167D01*
X164996850Y-110217952D01*
X165054886Y-110216216D01*
X165128180Y-110215101D01*
X165205055Y-110214743D01*
X165465196Y-110214743D01*
X165511127Y-110260674D01*
G36*
X165108159Y-115262904D02*
G01*
X165071949Y-115257932D01*
X165045299Y-115249287D01*
X165021722Y-115235995D01*
X165017338Y-115233057D01*
X164958249Y-115183687D01*
X164923947Y-115129891D01*
X164910331Y-115064398D01*
X164909665Y-115042158D01*
X164910426Y-115037008D01*
X165046514Y-115037008D01*
X165052152Y-115072636D01*
X165071686Y-115097006D01*
X165109042Y-115111907D01*
X165168150Y-115119125D01*
X165230192Y-115120571D01*
X165296430Y-115119727D01*
X165340386Y-115116404D01*
X165368779Y-115109417D01*
X165388325Y-115097584D01*
X165394857Y-115091543D01*
X165419680Y-115056814D01*
X165418548Y-115023097D01*
X165397016Y-114989005D01*
X165374029Y-114968671D01*
X165340478Y-114956629D01*
X165287569Y-114949866D01*
X165281399Y-114949402D01*
X165185513Y-114948248D01*
X165114299Y-114960312D01*
X165068194Y-114985430D01*
X165047635Y-115023440D01*
X165046514Y-115037008D01*
X164910426Y-115037008D01*
X164921962Y-114958885D01*
X164957733Y-114890855D01*
X165015301Y-114840649D01*
X165052312Y-114822815D01*
X165107882Y-114808937D01*
X165178096Y-114801833D01*
X165254727Y-114801160D01*
X165329552Y-114806573D01*
X165394342Y-114817730D01*
X165440873Y-114834286D01*
X165448887Y-114839374D01*
X165508707Y-114899645D01*
X165544535Y-114971231D01*
X165555020Y-115048908D01*
X165538810Y-115127452D01*
X165529092Y-115149311D01*
X165499143Y-115191878D01*
X165459433Y-115229237D01*
X165454397Y-115232768D01*
X165430124Y-115247119D01*
X165404178Y-115256606D01*
X165370022Y-115262210D01*
X165321119Y-115264914D01*
X165250935Y-115265701D01*
X165235200Y-115265714D01*
X165230192Y-115265678D01*
X165160413Y-115265174D01*
X165108159Y-115262904D01*
G37*
X165108159Y-115262904D02*
X165071949Y-115257932D01*
X165045299Y-115249287D01*
X165021722Y-115235995D01*
X165017338Y-115233057D01*
X164958249Y-115183687D01*
X164923947Y-115129891D01*
X164910331Y-115064398D01*
X164909665Y-115042158D01*
X164910426Y-115037008D01*
X165046514Y-115037008D01*
X165052152Y-115072636D01*
X165071686Y-115097006D01*
X165109042Y-115111907D01*
X165168150Y-115119125D01*
X165230192Y-115120571D01*
X165296430Y-115119727D01*
X165340386Y-115116404D01*
X165368779Y-115109417D01*
X165388325Y-115097584D01*
X165394857Y-115091543D01*
X165419680Y-115056814D01*
X165418548Y-115023097D01*
X165397016Y-114989005D01*
X165374029Y-114968671D01*
X165340478Y-114956629D01*
X165287569Y-114949866D01*
X165281399Y-114949402D01*
X165185513Y-114948248D01*
X165114299Y-114960312D01*
X165068194Y-114985430D01*
X165047635Y-115023440D01*
X165046514Y-115037008D01*
X164910426Y-115037008D01*
X164921962Y-114958885D01*
X164957733Y-114890855D01*
X165015301Y-114840649D01*
X165052312Y-114822815D01*
X165107882Y-114808937D01*
X165178096Y-114801833D01*
X165254727Y-114801160D01*
X165329552Y-114806573D01*
X165394342Y-114817730D01*
X165440873Y-114834286D01*
X165448887Y-114839374D01*
X165508707Y-114899645D01*
X165544535Y-114971231D01*
X165555020Y-115048908D01*
X165538810Y-115127452D01*
X165529092Y-115149311D01*
X165499143Y-115191878D01*
X165459433Y-115229237D01*
X165454397Y-115232768D01*
X165430124Y-115247119D01*
X165404178Y-115256606D01*
X165370022Y-115262210D01*
X165321119Y-115264914D01*
X165250935Y-115265701D01*
X165235200Y-115265714D01*
X165230192Y-115265678D01*
X165160413Y-115265174D01*
X165108159Y-115262904D01*
G36*
X165095384Y-109131804D02*
G01*
X165046695Y-109118116D01*
X165010849Y-109095904D01*
X164982513Y-109063426D01*
X164973355Y-109049267D01*
X164949507Y-108984947D01*
X164948135Y-108920590D01*
X165046364Y-108920590D01*
X165050122Y-108969678D01*
X165077884Y-109010773D01*
X165127152Y-109039242D01*
X165166257Y-109048369D01*
X165206247Y-109051993D01*
X165231126Y-109050977D01*
X165235200Y-109048444D01*
X165229665Y-109031726D01*
X165215017Y-108995751D01*
X165194190Y-108947669D01*
X165189714Y-108937614D01*
X165158814Y-108876848D01*
X165131657Y-108843368D01*
X165106220Y-108836010D01*
X165080481Y-108853609D01*
X165069109Y-108868144D01*
X165046364Y-108920590D01*
X164948135Y-108920590D01*
X164948006Y-108914527D01*
X164966966Y-108846405D01*
X165004497Y-108788979D01*
X165038096Y-108761281D01*
X165099064Y-108739338D01*
X165147308Y-108737595D01*
X165211816Y-108741543D01*
X165276934Y-108890314D01*
X165310202Y-108962651D01*
X165336964Y-109009916D01*
X165360144Y-109034493D01*
X165382667Y-109038763D01*
X165407455Y-109025111D01*
X165423886Y-109010057D01*
X165450235Y-108966254D01*
X165452081Y-108918611D01*
X165431546Y-108874855D01*
X165390752Y-108842711D01*
X165376347Y-108836962D01*
X165331356Y-108809424D01*
X165312182Y-108777742D01*
X165295779Y-108734286D01*
X165357966Y-108734286D01*
X165400283Y-108738128D01*
X165435969Y-108753177D01*
X165476943Y-108784720D01*
X165482267Y-108789408D01*
X165518720Y-108824494D01*
X165538283Y-108854653D01*
X165547283Y-108892385D01*
X165550230Y-108923665D01*
X165550965Y-108979615D01*
X165541660Y-109019445D01*
X165527846Y-109044292D01*
X165497467Y-109083344D01*
X165464613Y-109110375D01*
X165423294Y-109127483D01*
X165367521Y-109136762D01*
X165291305Y-109140307D01*
X165252622Y-109140590D01*
X165206247Y-109139628D01*
X165162249Y-109138715D01*
X165095384Y-109131804D01*
G37*
X165095384Y-109131804D02*
X165046695Y-109118116D01*
X165010849Y-109095904D01*
X164982513Y-109063426D01*
X164973355Y-109049267D01*
X164949507Y-108984947D01*
X164948135Y-108920590D01*
X165046364Y-108920590D01*
X165050122Y-108969678D01*
X165077884Y-109010773D01*
X165127152Y-109039242D01*
X165166257Y-109048369D01*
X165206247Y-109051993D01*
X165231126Y-109050977D01*
X165235200Y-109048444D01*
X165229665Y-109031726D01*
X165215017Y-108995751D01*
X165194190Y-108947669D01*
X165189714Y-108937614D01*
X165158814Y-108876848D01*
X165131657Y-108843368D01*
X165106220Y-108836010D01*
X165080481Y-108853609D01*
X165069109Y-108868144D01*
X165046364Y-108920590D01*
X164948135Y-108920590D01*
X164948006Y-108914527D01*
X164966966Y-108846405D01*
X165004497Y-108788979D01*
X165038096Y-108761281D01*
X165099064Y-108739338D01*
X165147308Y-108737595D01*
X165211816Y-108741543D01*
X165276934Y-108890314D01*
X165310202Y-108962651D01*
X165336964Y-109009916D01*
X165360144Y-109034493D01*
X165382667Y-109038763D01*
X165407455Y-109025111D01*
X165423886Y-109010057D01*
X165450235Y-108966254D01*
X165452081Y-108918611D01*
X165431546Y-108874855D01*
X165390752Y-108842711D01*
X165376347Y-108836962D01*
X165331356Y-108809424D01*
X165312182Y-108777742D01*
X165295779Y-108734286D01*
X165357966Y-108734286D01*
X165400283Y-108738128D01*
X165435969Y-108753177D01*
X165476943Y-108784720D01*
X165482267Y-108789408D01*
X165518720Y-108824494D01*
X165538283Y-108854653D01*
X165547283Y-108892385D01*
X165550230Y-108923665D01*
X165550965Y-108979615D01*
X165541660Y-109019445D01*
X165527846Y-109044292D01*
X165497467Y-109083344D01*
X165464613Y-109110375D01*
X165423294Y-109127483D01*
X165367521Y-109136762D01*
X165291305Y-109140307D01*
X165252622Y-109140590D01*
X165206247Y-109139628D01*
X165162249Y-109138715D01*
X165095384Y-109131804D01*
G36*
X165540044Y-113208314D02*
G01*
X165567697Y-113270000D01*
X165327670Y-113277257D01*
X165238028Y-113280256D01*
X165172962Y-113283402D01*
X165128026Y-113287299D01*
X165098770Y-113292553D01*
X165080748Y-113299769D01*
X165069511Y-113309550D01*
X165067079Y-113312688D01*
X165048083Y-113360239D01*
X165055600Y-113408303D01*
X165075543Y-113436914D01*
X165089675Y-113448553D01*
X165108220Y-113456609D01*
X165136334Y-113461729D01*
X165179173Y-113464559D01*
X165241895Y-113465744D01*
X165307261Y-113465943D01*
X165389268Y-113465982D01*
X165447316Y-113467386D01*
X165486465Y-113472086D01*
X165511780Y-113482013D01*
X165528323Y-113499097D01*
X165541156Y-113525268D01*
X165554491Y-113560225D01*
X165569007Y-113598404D01*
X165311389Y-113593859D01*
X165218519Y-113592029D01*
X165149889Y-113589888D01*
X165100711Y-113586819D01*
X165066198Y-113582206D01*
X165041562Y-113575432D01*
X165022016Y-113565881D01*
X165004770Y-113554366D01*
X164949680Y-113498810D01*
X164917822Y-113431020D01*
X164910191Y-113357287D01*
X164927780Y-113283907D01*
X164954723Y-113237328D01*
X164981466Y-113204943D01*
X165009484Y-113181258D01*
X165043748Y-113164941D01*
X165089227Y-113154661D01*
X165150892Y-113149086D01*
X165233711Y-113146884D01*
X165293246Y-113146629D01*
X165512391Y-113146629D01*
X165540044Y-113208314D01*
G37*
X165540044Y-113208314D02*
X165567697Y-113270000D01*
X165327670Y-113277257D01*
X165238028Y-113280256D01*
X165172962Y-113283402D01*
X165128026Y-113287299D01*
X165098770Y-113292553D01*
X165080748Y-113299769D01*
X165069511Y-113309550D01*
X165067079Y-113312688D01*
X165048083Y-113360239D01*
X165055600Y-113408303D01*
X165075543Y-113436914D01*
X165089675Y-113448553D01*
X165108220Y-113456609D01*
X165136334Y-113461729D01*
X165179173Y-113464559D01*
X165241895Y-113465744D01*
X165307261Y-113465943D01*
X165389268Y-113465982D01*
X165447316Y-113467386D01*
X165486465Y-113472086D01*
X165511780Y-113482013D01*
X165528323Y-113499097D01*
X165541156Y-113525268D01*
X165554491Y-113560225D01*
X165569007Y-113598404D01*
X165311389Y-113593859D01*
X165218519Y-113592029D01*
X165149889Y-113589888D01*
X165100711Y-113586819D01*
X165066198Y-113582206D01*
X165041562Y-113575432D01*
X165022016Y-113565881D01*
X165004770Y-113554366D01*
X164949680Y-113498810D01*
X164917822Y-113431020D01*
X164910191Y-113357287D01*
X164927780Y-113283907D01*
X164954723Y-113237328D01*
X164981466Y-113204943D01*
X165009484Y-113181258D01*
X165043748Y-113164941D01*
X165089227Y-113154661D01*
X165150892Y-113149086D01*
X165233711Y-113146884D01*
X165293246Y-113146629D01*
X165512391Y-113146629D01*
X165540044Y-113208314D01*
G36*
X165156927Y-109239721D02*
G01*
X165175357Y-109265933D01*
X165186516Y-109294036D01*
X165188572Y-109306905D01*
X165173649Y-109313171D01*
X165141175Y-109325544D01*
X165126502Y-109330972D01*
X165075744Y-109361410D01*
X165050427Y-109405480D01*
X165051206Y-109461990D01*
X165052203Y-109466175D01*
X165066507Y-109496345D01*
X165094393Y-109518524D01*
X165139287Y-109533673D01*
X165204615Y-109542750D01*
X165293804Y-109546714D01*
X165341261Y-109547086D01*
X165416071Y-109547270D01*
X165467069Y-109548478D01*
X165499471Y-109551691D01*
X165518495Y-109557891D01*
X165529356Y-109568060D01*
X165537272Y-109583181D01*
X165537670Y-109584054D01*
X165549981Y-109613172D01*
X165554514Y-109627597D01*
X165540809Y-109629814D01*
X165502925Y-109631711D01*
X165445715Y-109633153D01*
X165374027Y-109634002D01*
X165321565Y-109634171D01*
X165220047Y-109633308D01*
X165143032Y-109629930D01*
X165086023Y-109622858D01*
X165044526Y-109610912D01*
X165014043Y-109592910D01*
X164990080Y-109567673D01*
X164973355Y-109542753D01*
X164951097Y-109482829D01*
X164946076Y-109413089D01*
X164958752Y-109347400D01*
X164966334Y-109330052D01*
X164999128Y-109288644D01*
X165046547Y-109253235D01*
X165097151Y-109231336D01*
X165122098Y-109227771D01*
X165156927Y-109239721D01*
G37*
X165156927Y-109239721D02*
X165175357Y-109265933D01*
X165186516Y-109294036D01*
X165188572Y-109306905D01*
X165173649Y-109313171D01*
X165141175Y-109325544D01*
X165126502Y-109330972D01*
X165075744Y-109361410D01*
X165050427Y-109405480D01*
X165051206Y-109461990D01*
X165052203Y-109466175D01*
X165066507Y-109496345D01*
X165094393Y-109518524D01*
X165139287Y-109533673D01*
X165204615Y-109542750D01*
X165293804Y-109546714D01*
X165341261Y-109547086D01*
X165416071Y-109547270D01*
X165467069Y-109548478D01*
X165499471Y-109551691D01*
X165518495Y-109557891D01*
X165529356Y-109568060D01*
X165537272Y-109583181D01*
X165537670Y-109584054D01*
X165549981Y-109613172D01*
X165554514Y-109627597D01*
X165540809Y-109629814D01*
X165502925Y-109631711D01*
X165445715Y-109633153D01*
X165374027Y-109634002D01*
X165321565Y-109634171D01*
X165220047Y-109633308D01*
X165143032Y-109629930D01*
X165086023Y-109622858D01*
X165044526Y-109610912D01*
X165014043Y-109592910D01*
X164990080Y-109567673D01*
X164973355Y-109542753D01*
X164951097Y-109482829D01*
X164946076Y-109413089D01*
X164958752Y-109347400D01*
X164966334Y-109330052D01*
X164999128Y-109288644D01*
X165046547Y-109253235D01*
X165097151Y-109231336D01*
X165122098Y-109227771D01*
X165156927Y-109239721D01*
G36*
X165090086Y-111215274D02*
G01*
X165038600Y-111192865D01*
X164998443Y-111157876D01*
X164977861Y-111130625D01*
X164955625Y-111081093D01*
X164947837Y-111037776D01*
X165048843Y-111037776D01*
X165070159Y-111086204D01*
X165078073Y-111095550D01*
X165095647Y-111111460D01*
X165116587Y-111121390D01*
X165147782Y-111126722D01*
X165196122Y-111128837D01*
X165245647Y-111129143D01*
X165310550Y-111128524D01*
X165353514Y-111125686D01*
X165381622Y-111119160D01*
X165401953Y-111107477D01*
X165417288Y-111093517D01*
X165446890Y-111046635D01*
X165449419Y-110996299D01*
X165424705Y-110948724D01*
X165421356Y-110945021D01*
X165403935Y-110929217D01*
X165383209Y-110919307D01*
X165352362Y-110913942D01*
X165304577Y-110911772D01*
X165251748Y-110911429D01*
X165185381Y-110912173D01*
X165141106Y-110915252D01*
X165112009Y-110921939D01*
X165091173Y-110933504D01*
X165080107Y-110942987D01*
X165052198Y-110987040D01*
X165048843Y-111037776D01*
X164947837Y-111037776D01*
X164945304Y-111023684D01*
X164948067Y-110970318D01*
X164959212Y-110940457D01*
X164962383Y-110928739D01*
X164950557Y-110920963D01*
X164918866Y-110915535D01*
X164870593Y-110911429D01*
X164816829Y-110906933D01*
X164784482Y-110900687D01*
X164765985Y-110889324D01*
X164753770Y-110869472D01*
X164748362Y-110857000D01*
X164728601Y-110809829D01*
X165065358Y-110809883D01*
X165173837Y-110810067D01*
X165257287Y-110810781D01*
X165319704Y-110812325D01*
X165365085Y-110814999D01*
X165397429Y-110819106D01*
X165420733Y-110824945D01*
X165438995Y-110832818D01*
X165449418Y-110838779D01*
X165505945Y-110888145D01*
X165541377Y-110950736D01*
X165554090Y-111019987D01*
X165542463Y-111089332D01*
X165521568Y-111130625D01*
X165485422Y-111173975D01*
X165441276Y-111203519D01*
X165383462Y-111221345D01*
X165306313Y-111229537D01*
X165249714Y-111230698D01*
X165245647Y-111230542D01*
X165158568Y-111227190D01*
X165090086Y-111215274D01*
G37*
X165090086Y-111215274D02*
X165038600Y-111192865D01*
X164998443Y-111157876D01*
X164977861Y-111130625D01*
X164955625Y-111081093D01*
X164947837Y-111037776D01*
X165048843Y-111037776D01*
X165070159Y-111086204D01*
X165078073Y-111095550D01*
X165095647Y-111111460D01*
X165116587Y-111121390D01*
X165147782Y-111126722D01*
X165196122Y-111128837D01*
X165245647Y-111129143D01*
X165310550Y-111128524D01*
X165353514Y-111125686D01*
X165381622Y-111119160D01*
X165401953Y-111107477D01*
X165417288Y-111093517D01*
X165446890Y-111046635D01*
X165449419Y-110996299D01*
X165424705Y-110948724D01*
X165421356Y-110945021D01*
X165403935Y-110929217D01*
X165383209Y-110919307D01*
X165352362Y-110913942D01*
X165304577Y-110911772D01*
X165251748Y-110911429D01*
X165185381Y-110912173D01*
X165141106Y-110915252D01*
X165112009Y-110921939D01*
X165091173Y-110933504D01*
X165080107Y-110942987D01*
X165052198Y-110987040D01*
X165048843Y-111037776D01*
X164947837Y-111037776D01*
X164945304Y-111023684D01*
X164948067Y-110970318D01*
X164959212Y-110940457D01*
X164962383Y-110928739D01*
X164950557Y-110920963D01*
X164918866Y-110915535D01*
X164870593Y-110911429D01*
X164816829Y-110906933D01*
X164784482Y-110900687D01*
X164765985Y-110889324D01*
X164753770Y-110869472D01*
X164748362Y-110857000D01*
X164728601Y-110809829D01*
X165065358Y-110809883D01*
X165173837Y-110810067D01*
X165257287Y-110810781D01*
X165319704Y-110812325D01*
X165365085Y-110814999D01*
X165397429Y-110819106D01*
X165420733Y-110824945D01*
X165438995Y-110832818D01*
X165449418Y-110838779D01*
X165505945Y-110888145D01*
X165541377Y-110950736D01*
X165554090Y-111019987D01*
X165542463Y-111089332D01*
X165521568Y-111130625D01*
X165485422Y-111173975D01*
X165441276Y-111203519D01*
X165383462Y-111221345D01*
X165306313Y-111229537D01*
X165249714Y-111230698D01*
X165245647Y-111230542D01*
X165158568Y-111227190D01*
X165090086Y-111215274D01*
G36*
X165538580Y-112350509D02*
G01*
X165549420Y-112382973D01*
X165554468Y-112400785D01*
X165554514Y-112401309D01*
X165540828Y-112403063D01*
X165503076Y-112404556D01*
X165446224Y-112405674D01*
X165375234Y-112406303D01*
X165332073Y-112406400D01*
X165246973Y-112406602D01*
X165185981Y-112407642D01*
X165144177Y-112410169D01*
X165116642Y-112414836D01*
X165098456Y-112422293D01*
X165084698Y-112433189D01*
X165078073Y-112439993D01*
X165051375Y-112486728D01*
X165049375Y-112537728D01*
X165071955Y-112583999D01*
X165080107Y-112592556D01*
X165095436Y-112605107D01*
X165113618Y-112613812D01*
X165139909Y-112619369D01*
X165179562Y-112622474D01*
X165237832Y-112623824D01*
X165318173Y-112624114D01*
X165522646Y-112624114D01*
X165538580Y-112669823D01*
X165549420Y-112702287D01*
X165554468Y-112720099D01*
X165554514Y-112720623D01*
X165540623Y-112721963D01*
X165501439Y-112723172D01*
X165440700Y-112724199D01*
X165362141Y-112724998D01*
X165269498Y-112725519D01*
X165166509Y-112725714D01*
X164769342Y-112725714D01*
X164749444Y-112678543D01*
X164729547Y-112631371D01*
X164851289Y-112624114D01*
X164910613Y-112619861D01*
X164945572Y-112614975D01*
X164960820Y-112608205D01*
X164961015Y-112598298D01*
X164959195Y-112595086D01*
X164946015Y-112552356D01*
X164946785Y-112496773D01*
X164960333Y-112440263D01*
X164977861Y-112404918D01*
X165005861Y-112368679D01*
X165037549Y-112342187D01*
X165077813Y-112324001D01*
X165131543Y-112312678D01*
X165203626Y-112306778D01*
X165298951Y-112304857D01*
X165317237Y-112304823D01*
X165522646Y-112304800D01*
X165538580Y-112350509D01*
G37*
X165538580Y-112350509D02*
X165549420Y-112382973D01*
X165554468Y-112400785D01*
X165554514Y-112401309D01*
X165540828Y-112403063D01*
X165503076Y-112404556D01*
X165446224Y-112405674D01*
X165375234Y-112406303D01*
X165332073Y-112406400D01*
X165246973Y-112406602D01*
X165185981Y-112407642D01*
X165144177Y-112410169D01*
X165116642Y-112414836D01*
X165098456Y-112422293D01*
X165084698Y-112433189D01*
X165078073Y-112439993D01*
X165051375Y-112486728D01*
X165049375Y-112537728D01*
X165071955Y-112583999D01*
X165080107Y-112592556D01*
X165095436Y-112605107D01*
X165113618Y-112613812D01*
X165139909Y-112619369D01*
X165179562Y-112622474D01*
X165237832Y-112623824D01*
X165318173Y-112624114D01*
X165522646Y-112624114D01*
X165538580Y-112669823D01*
X165549420Y-112702287D01*
X165554468Y-112720099D01*
X165554514Y-112720623D01*
X165540623Y-112721963D01*
X165501439Y-112723172D01*
X165440700Y-112724199D01*
X165362141Y-112724998D01*
X165269498Y-112725519D01*
X165166509Y-112725714D01*
X164769342Y-112725714D01*
X164749444Y-112678543D01*
X164729547Y-112631371D01*
X164851289Y-112624114D01*
X164910613Y-112619861D01*
X164945572Y-112614975D01*
X164960820Y-112608205D01*
X164961015Y-112598298D01*
X164959195Y-112595086D01*
X164946015Y-112552356D01*
X164946785Y-112496773D01*
X164960333Y-112440263D01*
X164977861Y-112404918D01*
X165005861Y-112368679D01*
X165037549Y-112342187D01*
X165077813Y-112324001D01*
X165131543Y-112312678D01*
X165203626Y-112306778D01*
X165298951Y-112304857D01*
X165317237Y-112304823D01*
X165522646Y-112304800D01*
X165538580Y-112350509D01*
G36*
X165531678Y-111838284D02*
G01*
X165547110Y-111870237D01*
X165554423Y-111889530D01*
X165554514Y-111890422D01*
X165541022Y-111893761D01*
X165504626Y-111896413D01*
X165451452Y-111898044D01*
X165408393Y-111898400D01*
X165338641Y-111898408D01*
X165294837Y-111901597D01*
X165273944Y-111912712D01*
X165272925Y-111936499D01*
X165288741Y-111977704D01*
X165317815Y-112039914D01*
X165341963Y-112085659D01*
X165362913Y-112109187D01*
X165385747Y-112116104D01*
X165386877Y-112116114D01*
X165426212Y-112104701D01*
X165447462Y-112070908D01*
X165450539Y-112019191D01*
X165450006Y-111981939D01*
X165460735Y-111962297D01*
X165486505Y-111950048D01*
X165519337Y-111942998D01*
X165537966Y-111953158D01*
X165540632Y-111956983D01*
X165551340Y-111992999D01*
X165552856Y-112043434D01*
X165545759Y-112095374D01*
X165532788Y-112132178D01*
X165489585Y-112183062D01*
X165429446Y-112211986D01*
X165382462Y-112217714D01*
X165340082Y-112213343D01*
X165305488Y-112197525D01*
X165274763Y-112166203D01*
X165243990Y-112115322D01*
X165209252Y-112040824D01*
X165207288Y-112036286D01*
X165176287Y-111969179D01*
X165150862Y-111927768D01*
X165128014Y-111910019D01*
X165104745Y-111913893D01*
X165078056Y-111937357D01*
X165071914Y-111944373D01*
X165048100Y-111991370D01*
X165049103Y-112040067D01*
X165072451Y-112082478D01*
X165115675Y-112110616D01*
X165124160Y-112113231D01*
X165165308Y-112138692D01*
X165185128Y-112170999D01*
X165204770Y-112217714D01*
X165153950Y-112217714D01*
X165080082Y-112203504D01*
X165012327Y-112161325D01*
X164989661Y-112139376D01*
X164960569Y-112089483D01*
X164947400Y-112026033D01*
X164950968Y-111960256D01*
X164972087Y-111903384D01*
X164972493Y-111902733D01*
X164998380Y-111867560D01*
X165028633Y-111841593D01*
X165068058Y-111823330D01*
X165121462Y-111811268D01*
X165193651Y-111803904D01*
X165289432Y-111799736D01*
X165303078Y-111799371D01*
X165508842Y-111794124D01*
X165531678Y-111838284D01*
G37*
X165531678Y-111838284D02*
X165547110Y-111870237D01*
X165554423Y-111889530D01*
X165554514Y-111890422D01*
X165541022Y-111893761D01*
X165504626Y-111896413D01*
X165451452Y-111898044D01*
X165408393Y-111898400D01*
X165338641Y-111898408D01*
X165294837Y-111901597D01*
X165273944Y-111912712D01*
X165272925Y-111936499D01*
X165288741Y-111977704D01*
X165317815Y-112039914D01*
X165341963Y-112085659D01*
X165362913Y-112109187D01*
X165385747Y-112116104D01*
X165386877Y-112116114D01*
X165426212Y-112104701D01*
X165447462Y-112070908D01*
X165450539Y-112019191D01*
X165450006Y-111981939D01*
X165460735Y-111962297D01*
X165486505Y-111950048D01*
X165519337Y-111942998D01*
X165537966Y-111953158D01*
X165540632Y-111956983D01*
X165551340Y-111992999D01*
X165552856Y-112043434D01*
X165545759Y-112095374D01*
X165532788Y-112132178D01*
X165489585Y-112183062D01*
X165429446Y-112211986D01*
X165382462Y-112217714D01*
X165340082Y-112213343D01*
X165305488Y-112197525D01*
X165274763Y-112166203D01*
X165243990Y-112115322D01*
X165209252Y-112040824D01*
X165207288Y-112036286D01*
X165176287Y-111969179D01*
X165150862Y-111927768D01*
X165128014Y-111910019D01*
X165104745Y-111913893D01*
X165078056Y-111937357D01*
X165071914Y-111944373D01*
X165048100Y-111991370D01*
X165049103Y-112040067D01*
X165072451Y-112082478D01*
X165115675Y-112110616D01*
X165124160Y-112113231D01*
X165165308Y-112138692D01*
X165185128Y-112170999D01*
X165204770Y-112217714D01*
X165153950Y-112217714D01*
X165080082Y-112203504D01*
X165012327Y-112161325D01*
X164989661Y-112139376D01*
X164960569Y-112089483D01*
X164947400Y-112026033D01*
X164950968Y-111960256D01*
X164972087Y-111903384D01*
X164972493Y-111902733D01*
X164998380Y-111867560D01*
X165028633Y-111841593D01*
X165068058Y-111823330D01*
X165121462Y-111811268D01*
X165193651Y-111803904D01*
X165289432Y-111799736D01*
X165303078Y-111799371D01*
X165508842Y-111794124D01*
X165531678Y-111838284D01*
G36*
X162867839Y-109782943D02*
G01*
X162875995Y-109825337D01*
X162887899Y-109888600D01*
X162902116Y-109965038D01*
X162917210Y-110046957D01*
X162921355Y-110069600D01*
X162936053Y-110145194D01*
X162950505Y-110211047D01*
X162963375Y-110261634D01*
X162973322Y-110291426D01*
X162976287Y-110296388D01*
X162997283Y-110308574D01*
X163037967Y-110326047D01*
X163090322Y-110345423D01*
X163101600Y-110349266D01*
X163171523Y-110374661D01*
X163250418Y-110406183D01*
X163321266Y-110437031D01*
X163321595Y-110437183D01*
X163432733Y-110488553D01*
X163681253Y-110319601D01*
X163929772Y-110150648D01*
X164147058Y-110367571D01*
X164211726Y-110433181D01*
X164268733Y-110493021D01*
X164315033Y-110543733D01*
X164347584Y-110581954D01*
X164363343Y-110604325D01*
X164364343Y-110607534D01*
X164356469Y-110626374D01*
X164334578Y-110664820D01*
X164301267Y-110718670D01*
X164259131Y-110783724D01*
X164211943Y-110854060D01*
X164163810Y-110925445D01*
X164121928Y-110989092D01*
X164088871Y-111040959D01*
X164067218Y-111077005D01*
X164059543Y-111093133D01*
X164066037Y-111112811D01*
X164083150Y-111150125D01*
X164107326Y-111197379D01*
X164110013Y-111202388D01*
X164141927Y-111266023D01*
X164157579Y-111309659D01*
X164157745Y-111336798D01*
X164143204Y-111350943D01*
X164143000Y-111351025D01*
X164125779Y-111358095D01*
X164084899Y-111374958D01*
X164023525Y-111400305D01*
X163944819Y-111432829D01*
X163851947Y-111471222D01*
X163748072Y-111514178D01*
X163647502Y-111555778D01*
X163536516Y-111601496D01*
X163433703Y-111643474D01*
X163342215Y-111680452D01*
X163265201Y-111711173D01*
X163205815Y-111734378D01*
X163167209Y-111748810D01*
X163152800Y-111753257D01*
X163136272Y-111742104D01*
X163109930Y-111712931D01*
X163080887Y-111674029D01*
X162989039Y-111563243D01*
X162883759Y-111476649D01*
X162767266Y-111415284D01*
X162641776Y-111380185D01*
X162509507Y-111372392D01*
X162448457Y-111378057D01*
X162321795Y-111408922D01*
X162209941Y-111462080D01*
X162114001Y-111534233D01*
X162035076Y-111622083D01*
X161974270Y-111722335D01*
X161932687Y-111831690D01*
X161911428Y-111946853D01*
X161911599Y-112064525D01*
X161934301Y-112181410D01*
X161980638Y-112294211D01*
X162051713Y-112399631D01*
X162091911Y-112443632D01*
X162195129Y-112528021D01*
X162307925Y-112586778D01*
X162427010Y-112620296D01*
X162549095Y-112628965D01*
X162670893Y-112613177D01*
X162789116Y-112573322D01*
X162900475Y-112509793D01*
X163001684Y-112422979D01*
X163080887Y-112325971D01*
X163111162Y-112285563D01*
X163137219Y-112257018D01*
X163152825Y-112246743D01*
X163169843Y-112252123D01*
X163210500Y-112267425D01*
X163271642Y-112291388D01*
X163350119Y-112322756D01*
X163442780Y-112360268D01*
X163546472Y-112402667D01*
X163647526Y-112444337D01*
X163758607Y-112490310D01*
X163861541Y-112532893D01*
X163953165Y-112570779D01*
X164030316Y-112602660D01*
X164089831Y-112627229D01*
X164128544Y-112643180D01*
X164143000Y-112649090D01*
X164157685Y-112663052D01*
X164157642Y-112690060D01*
X164142099Y-112733587D01*
X164110284Y-112797110D01*
X164110013Y-112797612D01*
X164085323Y-112845440D01*
X164067338Y-112884103D01*
X164059614Y-112905905D01*
X164059543Y-112906867D01*
X164067378Y-112923279D01*
X164089165Y-112959513D01*
X164122328Y-113011526D01*
X164164291Y-113075275D01*
X164211943Y-113145940D01*
X164260191Y-113217884D01*
X164302151Y-113282726D01*
X164335227Y-113336265D01*
X164356821Y-113374303D01*
X164364343Y-113392467D01*
X164354457Y-113409192D01*
X164326826Y-113442820D01*
X164284495Y-113489990D01*
X164230505Y-113547342D01*
X164167899Y-113611516D01*
X164146983Y-113632503D01*
X163929623Y-113849501D01*
X163687220Y-113684332D01*
X163612781Y-113634136D01*
X163545972Y-113590081D01*
X163490665Y-113554638D01*
X163450729Y-113530281D01*
X163430036Y-113519478D01*
X163428563Y-113519162D01*
X163409058Y-113524857D01*
X163369822Y-113540174D01*
X163317430Y-113562463D01*
X163282355Y-113578107D01*
X163215201Y-113607359D01*
X163147358Y-113634906D01*
X163090034Y-113656263D01*
X163072572Y-113662065D01*
X163025938Y-113678548D01*
X162989905Y-113694660D01*
X162976287Y-113703510D01*
X162967952Y-113723040D01*
X162956137Y-113765666D01*
X162942181Y-113825855D01*
X162927422Y-113898078D01*
X162921355Y-113930400D01*
X162906273Y-114012478D01*
X162891669Y-114091205D01*
X162878980Y-114158891D01*
X162869642Y-114207840D01*
X162867839Y-114217057D01*
X162852799Y-114293257D01*
X162535492Y-114293257D01*
X162431154Y-114293086D01*
X162352213Y-114292384D01*
X162295038Y-114290866D01*
X162255999Y-114288251D01*
X162231465Y-114284254D01*
X162217805Y-114278591D01*
X162211389Y-114270980D01*
X162210199Y-114267857D01*
X162205980Y-114249022D01*
X162197562Y-114207412D01*
X162185961Y-114148370D01*
X162172195Y-114077243D01*
X162157280Y-113999375D01*
X162142232Y-113920113D01*
X162128069Y-113844802D01*
X162115806Y-113778787D01*
X162106461Y-113727413D01*
X162101050Y-113696025D01*
X162100114Y-113689041D01*
X162087596Y-113682715D01*
X162054246Y-113668710D01*
X162006377Y-113649645D01*
X161987629Y-113642366D01*
X161915195Y-113613004D01*
X161835170Y-113578429D01*
X161767728Y-113547463D01*
X161716159Y-113524677D01*
X161673785Y-113509518D01*
X161647834Y-113504458D01*
X161644356Y-113505264D01*
X161627936Y-113515959D01*
X161591417Y-113540380D01*
X161538687Y-113575905D01*
X161473635Y-113619913D01*
X161400151Y-113669783D01*
X161385645Y-113679644D01*
X161299704Y-113737508D01*
X161234261Y-113780044D01*
X161186304Y-113808946D01*
X161152820Y-113825910D01*
X161130795Y-113832633D01*
X161117217Y-113830810D01*
X161117131Y-113830764D01*
X161099297Y-113816414D01*
X161064817Y-113784677D01*
X161017268Y-113738990D01*
X160960222Y-113682796D01*
X160897255Y-113619532D01*
X160890227Y-113612398D01*
X160813020Y-113532670D01*
X160756330Y-113471143D01*
X160719110Y-113426579D01*
X160700315Y-113397743D01*
X160697889Y-113385042D01*
X160708471Y-113366506D01*
X160732916Y-113328039D01*
X160768612Y-113273614D01*
X160812947Y-113207202D01*
X160863311Y-113132775D01*
X160875160Y-113115399D01*
X161043626Y-112868703D01*
X160993062Y-112757294D01*
X160963595Y-112689543D01*
X160933959Y-112616817D01*
X160910330Y-112554297D01*
X160909358Y-112551543D01*
X160891457Y-112502640D01*
X160876320Y-112464943D01*
X160867210Y-112446575D01*
X160867184Y-112446544D01*
X160850717Y-112440715D01*
X160810219Y-112430808D01*
X160750242Y-112417805D01*
X160675340Y-112402691D01*
X160590064Y-112386448D01*
X160582875Y-112385119D01*
X160495014Y-112368825D01*
X160415260Y-112353867D01*
X160348681Y-112341209D01*
X160300347Y-112331814D01*
X160275325Y-112326646D01*
X160274943Y-112326556D01*
X160264299Y-112323411D01*
X160256262Y-112317296D01*
X160250467Y-112304547D01*
X160246547Y-112281500D01*
X160244135Y-112244491D01*
X160242865Y-112189856D01*
X160242371Y-112113933D01*
X160242286Y-112013056D01*
X160242286Y-112000000D01*
X160242348Y-111896090D01*
X160242778Y-111817546D01*
X160243942Y-111760702D01*
X160246207Y-111721895D01*
X160249940Y-111697462D01*
X160255506Y-111683738D01*
X160263273Y-111677060D01*
X160273605Y-111673764D01*
X160274943Y-111673444D01*
X160299079Y-111668438D01*
X160346701Y-111659171D01*
X160412741Y-111646608D01*
X160492128Y-111631713D01*
X160579796Y-111615449D01*
X160582875Y-111614881D01*
X160668789Y-111598590D01*
X160744696Y-111583348D01*
X160806045Y-111570139D01*
X160848282Y-111559946D01*
X160866855Y-111553752D01*
X160867184Y-111553457D01*
X160876253Y-111535212D01*
X160891367Y-111497595D01*
X160909262Y-111448729D01*
X160909358Y-111448457D01*
X160932493Y-111386907D01*
X160961965Y-111314343D01*
X160991597Y-111245943D01*
X160993062Y-111242706D01*
X161043626Y-111131298D01*
X160875160Y-110884601D01*
X160823803Y-110808923D01*
X160777889Y-110740369D01*
X160740030Y-110682912D01*
X160712837Y-110640524D01*
X160698921Y-110617175D01*
X160697889Y-110614958D01*
X160702484Y-110597990D01*
X160724655Y-110566299D01*
X160765447Y-110518648D01*
X160825905Y-110453802D01*
X160890227Y-110387603D01*
X160953612Y-110323786D01*
X161011451Y-110266671D01*
X161060175Y-110219695D01*
X161096210Y-110186297D01*
X161115984Y-110169915D01*
X161117002Y-110169306D01*
X161130572Y-110167495D01*
X161152733Y-110174317D01*
X161186478Y-110191460D01*
X161234800Y-110220607D01*
X161300692Y-110263445D01*
X161385517Y-110320552D01*
X161460177Y-110371234D01*
X161527140Y-110416539D01*
X161582516Y-110453850D01*
X161622420Y-110480548D01*
X161642962Y-110494015D01*
X161644356Y-110494863D01*
X161664038Y-110493219D01*
X161702293Y-110480755D01*
X161751889Y-110459952D01*
X161767728Y-110452538D01*
X161838290Y-110420186D01*
X161918353Y-110385672D01*
X161987629Y-110357635D01*
X162039045Y-110337432D01*
X162078119Y-110321385D01*
X162098541Y-110312112D01*
X162100114Y-110310959D01*
X162102721Y-110293904D01*
X162109863Y-110253702D01*
X162120523Y-110195698D01*
X162133685Y-110125237D01*
X162148333Y-110047665D01*
X162163449Y-109968328D01*
X162178018Y-109892569D01*
X162191022Y-109825736D01*
X162201445Y-109773172D01*
X162208270Y-109740224D01*
X162210199Y-109732143D01*
X162214962Y-109723795D01*
X162225718Y-109717494D01*
X162246098Y-109712955D01*
X162279734Y-109709896D01*
X162330255Y-109708033D01*
X162401292Y-109707082D01*
X162496476Y-109706760D01*
X162535492Y-109706743D01*
X162852799Y-109706743D01*
X162867839Y-109782943D01*
G37*
X162867839Y-109782943D02*
X162875995Y-109825337D01*
X162887899Y-109888600D01*
X162902116Y-109965038D01*
X162917210Y-110046957D01*
X162921355Y-110069600D01*
X162936053Y-110145194D01*
X162950505Y-110211047D01*
X162963375Y-110261634D01*
X162973322Y-110291426D01*
X162976287Y-110296388D01*
X162997283Y-110308574D01*
X163037967Y-110326047D01*
X163090322Y-110345423D01*
X163101600Y-110349266D01*
X163171523Y-110374661D01*
X163250418Y-110406183D01*
X163321266Y-110437031D01*
X163321595Y-110437183D01*
X163432733Y-110488553D01*
X163681253Y-110319601D01*
X163929772Y-110150648D01*
X164147058Y-110367571D01*
X164211726Y-110433181D01*
X164268733Y-110493021D01*
X164315033Y-110543733D01*
X164347584Y-110581954D01*
X164363343Y-110604325D01*
X164364343Y-110607534D01*
X164356469Y-110626374D01*
X164334578Y-110664820D01*
X164301267Y-110718670D01*
X164259131Y-110783724D01*
X164211943Y-110854060D01*
X164163810Y-110925445D01*
X164121928Y-110989092D01*
X164088871Y-111040959D01*
X164067218Y-111077005D01*
X164059543Y-111093133D01*
X164066037Y-111112811D01*
X164083150Y-111150125D01*
X164107326Y-111197379D01*
X164110013Y-111202388D01*
X164141927Y-111266023D01*
X164157579Y-111309659D01*
X164157745Y-111336798D01*
X164143204Y-111350943D01*
X164143000Y-111351025D01*
X164125779Y-111358095D01*
X164084899Y-111374958D01*
X164023525Y-111400305D01*
X163944819Y-111432829D01*
X163851947Y-111471222D01*
X163748072Y-111514178D01*
X163647502Y-111555778D01*
X163536516Y-111601496D01*
X163433703Y-111643474D01*
X163342215Y-111680452D01*
X163265201Y-111711173D01*
X163205815Y-111734378D01*
X163167209Y-111748810D01*
X163152800Y-111753257D01*
X163136272Y-111742104D01*
X163109930Y-111712931D01*
X163080887Y-111674029D01*
X162989039Y-111563243D01*
X162883759Y-111476649D01*
X162767266Y-111415284D01*
X162641776Y-111380185D01*
X162509507Y-111372392D01*
X162448457Y-111378057D01*
X162321795Y-111408922D01*
X162209941Y-111462080D01*
X162114001Y-111534233D01*
X162035076Y-111622083D01*
X161974270Y-111722335D01*
X161932687Y-111831690D01*
X161911428Y-111946853D01*
X161911599Y-112064525D01*
X161934301Y-112181410D01*
X161980638Y-112294211D01*
X162051713Y-112399631D01*
X162091911Y-112443632D01*
X162195129Y-112528021D01*
X162307925Y-112586778D01*
X162427010Y-112620296D01*
X162549095Y-112628965D01*
X162670893Y-112613177D01*
X162789116Y-112573322D01*
X162900475Y-112509793D01*
X163001684Y-112422979D01*
X163080887Y-112325971D01*
X163111162Y-112285563D01*
X163137219Y-112257018D01*
X163152825Y-112246743D01*
X163169843Y-112252123D01*
X163210500Y-112267425D01*
X163271642Y-112291388D01*
X163350119Y-112322756D01*
X163442780Y-112360268D01*
X163546472Y-112402667D01*
X163647526Y-112444337D01*
X163758607Y-112490310D01*
X163861541Y-112532893D01*
X163953165Y-112570779D01*
X164030316Y-112602660D01*
X164089831Y-112627229D01*
X164128544Y-112643180D01*
X164143000Y-112649090D01*
X164157685Y-112663052D01*
X164157642Y-112690060D01*
X164142099Y-112733587D01*
X164110284Y-112797110D01*
X164110013Y-112797612D01*
X164085323Y-112845440D01*
X164067338Y-112884103D01*
X164059614Y-112905905D01*
X164059543Y-112906867D01*
X164067378Y-112923279D01*
X164089165Y-112959513D01*
X164122328Y-113011526D01*
X164164291Y-113075275D01*
X164211943Y-113145940D01*
X164260191Y-113217884D01*
X164302151Y-113282726D01*
X164335227Y-113336265D01*
X164356821Y-113374303D01*
X164364343Y-113392467D01*
X164354457Y-113409192D01*
X164326826Y-113442820D01*
X164284495Y-113489990D01*
X164230505Y-113547342D01*
X164167899Y-113611516D01*
X164146983Y-113632503D01*
X163929623Y-113849501D01*
X163687220Y-113684332D01*
X163612781Y-113634136D01*
X163545972Y-113590081D01*
X163490665Y-113554638D01*
X163450729Y-113530281D01*
X163430036Y-113519478D01*
X163428563Y-113519162D01*
X163409058Y-113524857D01*
X163369822Y-113540174D01*
X163317430Y-113562463D01*
X163282355Y-113578107D01*
X163215201Y-113607359D01*
X163147358Y-113634906D01*
X163090034Y-113656263D01*
X163072572Y-113662065D01*
X163025938Y-113678548D01*
X162989905Y-113694660D01*
X162976287Y-113703510D01*
X162967952Y-113723040D01*
X162956137Y-113765666D01*
X162942181Y-113825855D01*
X162927422Y-113898078D01*
X162921355Y-113930400D01*
X162906273Y-114012478D01*
X162891669Y-114091205D01*
X162878980Y-114158891D01*
X162869642Y-114207840D01*
X162867839Y-114217057D01*
X162852799Y-114293257D01*
X162535492Y-114293257D01*
X162431154Y-114293086D01*
X162352213Y-114292384D01*
X162295038Y-114290866D01*
X162255999Y-114288251D01*
X162231465Y-114284254D01*
X162217805Y-114278591D01*
X162211389Y-114270980D01*
X162210199Y-114267857D01*
X162205980Y-114249022D01*
X162197562Y-114207412D01*
X162185961Y-114148370D01*
X162172195Y-114077243D01*
X162157280Y-113999375D01*
X162142232Y-113920113D01*
X162128069Y-113844802D01*
X162115806Y-113778787D01*
X162106461Y-113727413D01*
X162101050Y-113696025D01*
X162100114Y-113689041D01*
X162087596Y-113682715D01*
X162054246Y-113668710D01*
X162006377Y-113649645D01*
X161987629Y-113642366D01*
X161915195Y-113613004D01*
X161835170Y-113578429D01*
X161767728Y-113547463D01*
X161716159Y-113524677D01*
X161673785Y-113509518D01*
X161647834Y-113504458D01*
X161644356Y-113505264D01*
X161627936Y-113515959D01*
X161591417Y-113540380D01*
X161538687Y-113575905D01*
X161473635Y-113619913D01*
X161400151Y-113669783D01*
X161385645Y-113679644D01*
X161299704Y-113737508D01*
X161234261Y-113780044D01*
X161186304Y-113808946D01*
X161152820Y-113825910D01*
X161130795Y-113832633D01*
X161117217Y-113830810D01*
X161117131Y-113830764D01*
X161099297Y-113816414D01*
X161064817Y-113784677D01*
X161017268Y-113738990D01*
X160960222Y-113682796D01*
X160897255Y-113619532D01*
X160890227Y-113612398D01*
X160813020Y-113532670D01*
X160756330Y-113471143D01*
X160719110Y-113426579D01*
X160700315Y-113397743D01*
X160697889Y-113385042D01*
X160708471Y-113366506D01*
X160732916Y-113328039D01*
X160768612Y-113273614D01*
X160812947Y-113207202D01*
X160863311Y-113132775D01*
X160875160Y-113115399D01*
X161043626Y-112868703D01*
X160993062Y-112757294D01*
X160963595Y-112689543D01*
X160933959Y-112616817D01*
X160910330Y-112554297D01*
X160909358Y-112551543D01*
X160891457Y-112502640D01*
X160876320Y-112464943D01*
X160867210Y-112446575D01*
X160867184Y-112446544D01*
X160850717Y-112440715D01*
X160810219Y-112430808D01*
X160750242Y-112417805D01*
X160675340Y-112402691D01*
X160590064Y-112386448D01*
X160582875Y-112385119D01*
X160495014Y-112368825D01*
X160415260Y-112353867D01*
X160348681Y-112341209D01*
X160300347Y-112331814D01*
X160275325Y-112326646D01*
X160274943Y-112326556D01*
X160264299Y-112323411D01*
X160256262Y-112317296D01*
X160250467Y-112304547D01*
X160246547Y-112281500D01*
X160244135Y-112244491D01*
X160242865Y-112189856D01*
X160242371Y-112113933D01*
X160242286Y-112013056D01*
X160242286Y-112000000D01*
X160242348Y-111896090D01*
X160242778Y-111817546D01*
X160243942Y-111760702D01*
X160246207Y-111721895D01*
X160249940Y-111697462D01*
X160255506Y-111683738D01*
X160263273Y-111677060D01*
X160273605Y-111673764D01*
X160274943Y-111673444D01*
X160299079Y-111668438D01*
X160346701Y-111659171D01*
X160412741Y-111646608D01*
X160492128Y-111631713D01*
X160579796Y-111615449D01*
X160582875Y-111614881D01*
X160668789Y-111598590D01*
X160744696Y-111583348D01*
X160806045Y-111570139D01*
X160848282Y-111559946D01*
X160866855Y-111553752D01*
X160867184Y-111553457D01*
X160876253Y-111535212D01*
X160891367Y-111497595D01*
X160909262Y-111448729D01*
X160909358Y-111448457D01*
X160932493Y-111386907D01*
X160961965Y-111314343D01*
X160991597Y-111245943D01*
X160993062Y-111242706D01*
X161043626Y-111131298D01*
X160875160Y-110884601D01*
X160823803Y-110808923D01*
X160777889Y-110740369D01*
X160740030Y-110682912D01*
X160712837Y-110640524D01*
X160698921Y-110617175D01*
X160697889Y-110614958D01*
X160702484Y-110597990D01*
X160724655Y-110566299D01*
X160765447Y-110518648D01*
X160825905Y-110453802D01*
X160890227Y-110387603D01*
X160953612Y-110323786D01*
X161011451Y-110266671D01*
X161060175Y-110219695D01*
X161096210Y-110186297D01*
X161115984Y-110169915D01*
X161117002Y-110169306D01*
X161130572Y-110167495D01*
X161152733Y-110174317D01*
X161186478Y-110191460D01*
X161234800Y-110220607D01*
X161300692Y-110263445D01*
X161385517Y-110320552D01*
X161460177Y-110371234D01*
X161527140Y-110416539D01*
X161582516Y-110453850D01*
X161622420Y-110480548D01*
X161642962Y-110494015D01*
X161644356Y-110494863D01*
X161664038Y-110493219D01*
X161702293Y-110480755D01*
X161751889Y-110459952D01*
X161767728Y-110452538D01*
X161838290Y-110420186D01*
X161918353Y-110385672D01*
X161987629Y-110357635D01*
X162039045Y-110337432D01*
X162078119Y-110321385D01*
X162098541Y-110312112D01*
X162100114Y-110310959D01*
X162102721Y-110293904D01*
X162109863Y-110253702D01*
X162120523Y-110195698D01*
X162133685Y-110125237D01*
X162148333Y-110047665D01*
X162163449Y-109968328D01*
X162178018Y-109892569D01*
X162191022Y-109825736D01*
X162201445Y-109773172D01*
X162208270Y-109740224D01*
X162210199Y-109732143D01*
X162214962Y-109723795D01*
X162225718Y-109717494D01*
X162246098Y-109712955D01*
X162279734Y-109709896D01*
X162330255Y-109708033D01*
X162401292Y-109707082D01*
X162496476Y-109706760D01*
X162535492Y-109706743D01*
X162852799Y-109706743D01*
X162867839Y-109782943D01*
G36*
X165537670Y-109758226D02*
G01*
X165549981Y-109787344D01*
X165554514Y-109801769D01*
X165541025Y-109804528D01*
X165504653Y-109806718D01*
X165451542Y-109808058D01*
X165409372Y-109808343D01*
X165348447Y-109809566D01*
X165300115Y-109812864D01*
X165270518Y-109817679D01*
X165264229Y-109821504D01*
X165270652Y-109847217D01*
X165287125Y-109887582D01*
X165309458Y-109934321D01*
X165333457Y-109979155D01*
X165354930Y-110013807D01*
X165369685Y-110029998D01*
X165369845Y-110030062D01*
X165397152Y-110028670D01*
X165423219Y-110016182D01*
X165444392Y-109994257D01*
X165451474Y-109962257D01*
X165450649Y-109934908D01*
X165450042Y-109896174D01*
X165459116Y-109875842D01*
X165483092Y-109863631D01*
X165487613Y-109862091D01*
X165521806Y-109856797D01*
X165542568Y-109870953D01*
X165552462Y-109907852D01*
X165554292Y-109947711D01*
X165540727Y-110019438D01*
X165521355Y-110056568D01*
X165475845Y-110102424D01*
X165419983Y-110126744D01*
X165360957Y-110128927D01*
X165305953Y-110108371D01*
X165271486Y-110077451D01*
X165252189Y-110046580D01*
X165227759Y-109998058D01*
X165202985Y-109941515D01*
X165199199Y-109932090D01*
X165171791Y-109869981D01*
X165147634Y-109834178D01*
X165123619Y-109822663D01*
X165096635Y-109833420D01*
X165075543Y-109851886D01*
X165049572Y-109895531D01*
X165047624Y-109943554D01*
X165067637Y-109987594D01*
X165107551Y-110019291D01*
X165117848Y-110023451D01*
X165155724Y-110047673D01*
X165183842Y-110083035D01*
X165206917Y-110127657D01*
X165141485Y-110127657D01*
X165101506Y-110125031D01*
X165069997Y-110113770D01*
X165036378Y-110088801D01*
X165010484Y-110064831D01*
X164973817Y-110027559D01*
X164954121Y-109998599D01*
X164946220Y-109967495D01*
X164944914Y-109932287D01*
X164956335Y-109855124D01*
X164975344Y-109813333D01*
X164998378Y-109780531D01*
X165024133Y-109756497D01*
X165057358Y-109739903D01*
X165102800Y-109729423D01*
X165165207Y-109723729D01*
X165249327Y-109721493D01*
X165304721Y-109721257D01*
X165520826Y-109721257D01*
X165537670Y-109758226D01*
G37*
X165537670Y-109758226D02*
X165549981Y-109787344D01*
X165554514Y-109801769D01*
X165541025Y-109804528D01*
X165504653Y-109806718D01*
X165451542Y-109808058D01*
X165409372Y-109808343D01*
X165348447Y-109809566D01*
X165300115Y-109812864D01*
X165270518Y-109817679D01*
X165264229Y-109821504D01*
X165270652Y-109847217D01*
X165287125Y-109887582D01*
X165309458Y-109934321D01*
X165333457Y-109979155D01*
X165354930Y-110013807D01*
X165369685Y-110029998D01*
X165369845Y-110030062D01*
X165397152Y-110028670D01*
X165423219Y-110016182D01*
X165444392Y-109994257D01*
X165451474Y-109962257D01*
X165450649Y-109934908D01*
X165450042Y-109896174D01*
X165459116Y-109875842D01*
X165483092Y-109863631D01*
X165487613Y-109862091D01*
X165521806Y-109856797D01*
X165542568Y-109870953D01*
X165552462Y-109907852D01*
X165554292Y-109947711D01*
X165540727Y-110019438D01*
X165521355Y-110056568D01*
X165475845Y-110102424D01*
X165419983Y-110126744D01*
X165360957Y-110128927D01*
X165305953Y-110108371D01*
X165271486Y-110077451D01*
X165252189Y-110046580D01*
X165227759Y-109998058D01*
X165202985Y-109941515D01*
X165199199Y-109932090D01*
X165171791Y-109869981D01*
X165147634Y-109834178D01*
X165123619Y-109822663D01*
X165096635Y-109833420D01*
X165075543Y-109851886D01*
X165049572Y-109895531D01*
X165047624Y-109943554D01*
X165067637Y-109987594D01*
X165107551Y-110019291D01*
X165117848Y-110023451D01*
X165155724Y-110047673D01*
X165183842Y-110083035D01*
X165206917Y-110127657D01*
X165141485Y-110127657D01*
X165101506Y-110125031D01*
X165069997Y-110113770D01*
X165036378Y-110088801D01*
X165010484Y-110064831D01*
X164973817Y-110027559D01*
X164954121Y-109998599D01*
X164946220Y-109967495D01*
X164944914Y-109932287D01*
X164956335Y-109855124D01*
X164975344Y-109813333D01*
X164998378Y-109780531D01*
X165024133Y-109756497D01*
X165057358Y-109739903D01*
X165102800Y-109729423D01*
X165165207Y-109723729D01*
X165249327Y-109721493D01*
X165304721Y-109721257D01*
X165520826Y-109721257D01*
X165537670Y-109758226D01*
G36*
X165036212Y-114128450D02*
G01*
X164987302Y-114094544D01*
X164937878Y-114033347D01*
X164913359Y-113965937D01*
X164912910Y-113946154D01*
X165047950Y-113946154D01*
X165066717Y-113983897D01*
X165102915Y-114009966D01*
X165142748Y-114017486D01*
X165174753Y-114015676D01*
X165184093Y-114005778D01*
X165177105Y-113981102D01*
X165160587Y-113942205D01*
X165139881Y-113898725D01*
X165139333Y-113897644D01*
X165119949Y-113860791D01*
X165107013Y-113846000D01*
X165093451Y-113849647D01*
X165075632Y-113865005D01*
X165049845Y-113904077D01*
X165047950Y-113946154D01*
X164912910Y-113946154D01*
X164911797Y-113897120D01*
X164931239Y-113831697D01*
X164969735Y-113774473D01*
X165025335Y-113730251D01*
X165096086Y-113703833D01*
X165148162Y-113698490D01*
X165169893Y-113699097D01*
X165186531Y-113704178D01*
X165201437Y-113718145D01*
X165217973Y-113745411D01*
X165239498Y-113790388D01*
X165269374Y-113857489D01*
X165269524Y-113857829D01*
X165297813Y-113919593D01*
X165322933Y-113970241D01*
X165342179Y-114004596D01*
X165352848Y-114017482D01*
X165352934Y-114017486D01*
X165376166Y-114006128D01*
X165401774Y-113979569D01*
X165420221Y-113949077D01*
X165423886Y-113933630D01*
X165411212Y-113891485D01*
X165379471Y-113855192D01*
X165344572Y-113837483D01*
X165318845Y-113820448D01*
X165289546Y-113787078D01*
X165264235Y-113747851D01*
X165250471Y-113713244D01*
X165249714Y-113706007D01*
X165262160Y-113697861D01*
X165293972Y-113697370D01*
X165336866Y-113703357D01*
X165382558Y-113714643D01*
X165422761Y-113730050D01*
X165424322Y-113730829D01*
X165489062Y-113777196D01*
X165533097Y-113837289D01*
X165554711Y-113905535D01*
X165552185Y-113976362D01*
X165523804Y-114044196D01*
X165521808Y-114047212D01*
X165473448Y-114100573D01*
X165410352Y-114135660D01*
X165327387Y-114155078D01*
X165304078Y-114157684D01*
X165194055Y-114162299D01*
X165142748Y-114156767D01*
X165106027Y-114152806D01*
X165036212Y-114128450D01*
G37*
X165036212Y-114128450D02*
X164987302Y-114094544D01*
X164937878Y-114033347D01*
X164913359Y-113965937D01*
X164912910Y-113946154D01*
X165047950Y-113946154D01*
X165066717Y-113983897D01*
X165102915Y-114009966D01*
X165142748Y-114017486D01*
X165174753Y-114015676D01*
X165184093Y-114005778D01*
X165177105Y-113981102D01*
X165160587Y-113942205D01*
X165139881Y-113898725D01*
X165139333Y-113897644D01*
X165119949Y-113860791D01*
X165107013Y-113846000D01*
X165093451Y-113849647D01*
X165075632Y-113865005D01*
X165049845Y-113904077D01*
X165047950Y-113946154D01*
X164912910Y-113946154D01*
X164911797Y-113897120D01*
X164931239Y-113831697D01*
X164969735Y-113774473D01*
X165025335Y-113730251D01*
X165096086Y-113703833D01*
X165148162Y-113698490D01*
X165169893Y-113699097D01*
X165186531Y-113704178D01*
X165201437Y-113718145D01*
X165217973Y-113745411D01*
X165239498Y-113790388D01*
X165269374Y-113857489D01*
X165269524Y-113857829D01*
X165297813Y-113919593D01*
X165322933Y-113970241D01*
X165342179Y-114004596D01*
X165352848Y-114017482D01*
X165352934Y-114017486D01*
X165376166Y-114006128D01*
X165401774Y-113979569D01*
X165420221Y-113949077D01*
X165423886Y-113933630D01*
X165411212Y-113891485D01*
X165379471Y-113855192D01*
X165344572Y-113837483D01*
X165318845Y-113820448D01*
X165289546Y-113787078D01*
X165264235Y-113747851D01*
X165250471Y-113713244D01*
X165249714Y-113706007D01*
X165262160Y-113697861D01*
X165293972Y-113697370D01*
X165336866Y-113703357D01*
X165382558Y-113714643D01*
X165422761Y-113730050D01*
X165424322Y-113730829D01*
X165489062Y-113777196D01*
X165533097Y-113837289D01*
X165554711Y-113905535D01*
X165552185Y-113976362D01*
X165523804Y-114044196D01*
X165521808Y-114047212D01*
X165473448Y-114100573D01*
X165410352Y-114135660D01*
X165327387Y-114155078D01*
X165304078Y-114157684D01*
X165194055Y-114162299D01*
X165142748Y-114156767D01*
X165106027Y-114152806D01*
X165036212Y-114128450D01*
G36*
X165143186Y-111307534D02*
G01*
X165170217Y-111331438D01*
X165174813Y-111340283D01*
X165189144Y-111378470D01*
X165185472Y-111397972D01*
X165161407Y-111404578D01*
X165148114Y-111404914D01*
X165099210Y-111417008D01*
X165064999Y-111448529D01*
X165048476Y-111492341D01*
X165052634Y-111541305D01*
X165074227Y-111581106D01*
X165086544Y-111594550D01*
X165101487Y-111604079D01*
X165124075Y-111610515D01*
X165159328Y-111614683D01*
X165212266Y-111617403D01*
X165287907Y-111619498D01*
X165311857Y-111620040D01*
X165393790Y-111622019D01*
X165451455Y-111624269D01*
X165489608Y-111627643D01*
X165513004Y-111632994D01*
X165526398Y-111641176D01*
X165534545Y-111653041D01*
X165538144Y-111660638D01*
X165550452Y-111692898D01*
X165554514Y-111711889D01*
X165540948Y-111718164D01*
X165499934Y-111721994D01*
X165430999Y-111723400D01*
X165333669Y-111722402D01*
X165318657Y-111722092D01*
X165229859Y-111719899D01*
X165165019Y-111717307D01*
X165119067Y-111713618D01*
X165086935Y-111708136D01*
X165063553Y-111700165D01*
X165043852Y-111689007D01*
X165035410Y-111683170D01*
X164998057Y-111649704D01*
X164969003Y-111612273D01*
X164966467Y-111607691D01*
X164946443Y-111540574D01*
X164949755Y-111470074D01*
X164974084Y-111404142D01*
X165017117Y-111350727D01*
X165047409Y-111329836D01*
X165102994Y-111307061D01*
X165143186Y-111307534D01*
G37*
X165143186Y-111307534D02*
X165170217Y-111331438D01*
X165174813Y-111340283D01*
X165189144Y-111378470D01*
X165185472Y-111397972D01*
X165161407Y-111404578D01*
X165148114Y-111404914D01*
X165099210Y-111417008D01*
X165064999Y-111448529D01*
X165048476Y-111492341D01*
X165052634Y-111541305D01*
X165074227Y-111581106D01*
X165086544Y-111594550D01*
X165101487Y-111604079D01*
X165124075Y-111610515D01*
X165159328Y-111614683D01*
X165212266Y-111617403D01*
X165287907Y-111619498D01*
X165311857Y-111620040D01*
X165393790Y-111622019D01*
X165451455Y-111624269D01*
X165489608Y-111627643D01*
X165513004Y-111632994D01*
X165526398Y-111641176D01*
X165534545Y-111653041D01*
X165538144Y-111660638D01*
X165550452Y-111692898D01*
X165554514Y-111711889D01*
X165540948Y-111718164D01*
X165499934Y-111721994D01*
X165430999Y-111723400D01*
X165333669Y-111722402D01*
X165318657Y-111722092D01*
X165229859Y-111719899D01*
X165165019Y-111717307D01*
X165119067Y-111713618D01*
X165086935Y-111708136D01*
X165063553Y-111700165D01*
X165043852Y-111689007D01*
X165035410Y-111683170D01*
X164998057Y-111649704D01*
X164969003Y-111612273D01*
X164966467Y-111607691D01*
X164946443Y-111540574D01*
X164949755Y-111470074D01*
X164974084Y-111404142D01*
X165017117Y-111350727D01*
X165047409Y-111329836D01*
X165102994Y-111307061D01*
X165143186Y-111307534D01*
G36*
X165150333Y-114706323D02*
G01*
X165102958Y-114703550D01*
X165069290Y-114699612D01*
X165045498Y-114694151D01*
X165027753Y-114686808D01*
X165012224Y-114677223D01*
X165006381Y-114673113D01*
X164951185Y-114618595D01*
X164919890Y-114549664D01*
X164911776Y-114475509D01*
X165046514Y-114475509D01*
X165053926Y-114516234D01*
X165078330Y-114544168D01*
X165122980Y-114560983D01*
X165191130Y-114568350D01*
X165228603Y-114569029D01*
X165290499Y-114568245D01*
X165330997Y-114564760D01*
X165357708Y-114556876D01*
X165378244Y-114542895D01*
X165388260Y-114533403D01*
X165417567Y-114494596D01*
X165419952Y-114460237D01*
X165395750Y-114424784D01*
X165394857Y-114423886D01*
X165376153Y-114409461D01*
X165350732Y-114400687D01*
X165311584Y-114396261D01*
X165251697Y-114394882D01*
X165238430Y-114394857D01*
X165155901Y-114398188D01*
X165098691Y-114409031D01*
X165063766Y-114428660D01*
X165048094Y-114458350D01*
X165046514Y-114475509D01*
X164911776Y-114475509D01*
X164911165Y-114469928D01*
X164919918Y-114400256D01*
X164947568Y-114344799D01*
X164998480Y-114295852D01*
X165017338Y-114282371D01*
X165042015Y-114267686D01*
X165068816Y-114258158D01*
X165104587Y-114252707D01*
X165156169Y-114250253D01*
X165224267Y-114249714D01*
X165317588Y-114252148D01*
X165387657Y-114260606D01*
X165439931Y-114276826D01*
X165479869Y-114302546D01*
X165512929Y-114339503D01*
X165514886Y-114342218D01*
X165534908Y-114378640D01*
X165544815Y-114422498D01*
X165547257Y-114478276D01*
X165547257Y-114568952D01*
X165635283Y-114568990D01*
X165684308Y-114569834D01*
X165713065Y-114574976D01*
X165730311Y-114588413D01*
X165744808Y-114614142D01*
X165747769Y-114620321D01*
X165761648Y-114649236D01*
X165770414Y-114671624D01*
X165771171Y-114688271D01*
X165761023Y-114699964D01*
X165737073Y-114707490D01*
X165696426Y-114711634D01*
X165636186Y-114713185D01*
X165553455Y-114712929D01*
X165445339Y-114711651D01*
X165413000Y-114711252D01*
X165301524Y-114709815D01*
X165228603Y-114708528D01*
X165215245Y-114708292D01*
X165150333Y-114706323D01*
G37*
X165150333Y-114706323D02*
X165102958Y-114703550D01*
X165069290Y-114699612D01*
X165045498Y-114694151D01*
X165027753Y-114686808D01*
X165012224Y-114677223D01*
X165006381Y-114673113D01*
X164951185Y-114618595D01*
X164919890Y-114549664D01*
X164911776Y-114475509D01*
X165046514Y-114475509D01*
X165053926Y-114516234D01*
X165078330Y-114544168D01*
X165122980Y-114560983D01*
X165191130Y-114568350D01*
X165228603Y-114569029D01*
X165290499Y-114568245D01*
X165330997Y-114564760D01*
X165357708Y-114556876D01*
X165378244Y-114542895D01*
X165388260Y-114533403D01*
X165417567Y-114494596D01*
X165419952Y-114460237D01*
X165395750Y-114424784D01*
X165394857Y-114423886D01*
X165376153Y-114409461D01*
X165350732Y-114400687D01*
X165311584Y-114396261D01*
X165251697Y-114394882D01*
X165238430Y-114394857D01*
X165155901Y-114398188D01*
X165098691Y-114409031D01*
X165063766Y-114428660D01*
X165048094Y-114458350D01*
X165046514Y-114475509D01*
X164911776Y-114475509D01*
X164911165Y-114469928D01*
X164919918Y-114400256D01*
X164947568Y-114344799D01*
X164998480Y-114295852D01*
X165017338Y-114282371D01*
X165042015Y-114267686D01*
X165068816Y-114258158D01*
X165104587Y-114252707D01*
X165156169Y-114250253D01*
X165224267Y-114249714D01*
X165317588Y-114252148D01*
X165387657Y-114260606D01*
X165439931Y-114276826D01*
X165479869Y-114302546D01*
X165512929Y-114339503D01*
X165514886Y-114342218D01*
X165534908Y-114378640D01*
X165544815Y-114422498D01*
X165547257Y-114478276D01*
X165547257Y-114568952D01*
X165635283Y-114568990D01*
X165684308Y-114569834D01*
X165713065Y-114574976D01*
X165730311Y-114588413D01*
X165744808Y-114614142D01*
X165747769Y-114620321D01*
X165761648Y-114649236D01*
X165770414Y-114671624D01*
X165771171Y-114688271D01*
X165761023Y-114699964D01*
X165737073Y-114707490D01*
X165696426Y-114711634D01*
X165636186Y-114713185D01*
X165553455Y-114712929D01*
X165445339Y-114711651D01*
X165413000Y-114711252D01*
X165301524Y-114709815D01*
X165228603Y-114708528D01*
X165215245Y-114708292D01*
X165150333Y-114706323D01*
D13*
X112400000Y-138868000D02*
X112400000Y-139968000D01*
X112670000Y-138868000D02*
X112400000Y-138868000D01*
X105770000Y-138868000D02*
X106040000Y-138868000D01*
X105770000Y-137368000D02*
X105770000Y-138868000D01*
X106040000Y-138868000D02*
X106040000Y-141698000D01*
X112670000Y-137368000D02*
X112670000Y-138868000D01*
X86587000Y-113545252D02*
X86587000Y-113022748D01*
X85117000Y-113545252D02*
X85117000Y-113022748D01*
X91950000Y-149450000D02*
X82750000Y-149450000D01*
X82750000Y-149450000D02*
X82750000Y-134950000D01*
X82450000Y-134650000D02*
X82450000Y-135950000D01*
X84150000Y-134650000D02*
X82450000Y-134650000D01*
X82750000Y-134950000D02*
X84750000Y-134950000D01*
X91950000Y-140850000D02*
X91950000Y-149450000D01*
X89950000Y-134950000D02*
X91950000Y-134950000D01*
X91950000Y-134950000D02*
X91950000Y-136250000D01*
D11*
X162184000Y-135044000D02*
X165984000Y-135044000D01*
X165984000Y-135044000D02*
X165984000Y-137244000D01*
X165984000Y-137244000D02*
X162184000Y-137244000D01*
X162184000Y-137244000D02*
X162184000Y-135044000D01*
D13*
X115035000Y-139199252D02*
X115035000Y-138676748D01*
X113565000Y-139199252D02*
X113565000Y-138676748D01*
D11*
X118448000Y-140584000D02*
X116248000Y-140584000D01*
X118448000Y-136784000D02*
X118448000Y-140584000D01*
X116248000Y-136784000D02*
X118448000Y-136784000D01*
X116248000Y-140584000D02*
X116248000Y-136784000D01*
X76068000Y-112352000D02*
X72268000Y-112352000D01*
X72268000Y-112352000D02*
X72268000Y-110152000D01*
X72268000Y-110152000D02*
X76068000Y-110152000D01*
X76068000Y-110152000D02*
X76068000Y-112352000D01*
D13*
X100690000Y-125563500D02*
X100690000Y-123563500D01*
X104790000Y-125563500D02*
X100690000Y-125563500D01*
X104790000Y-123563500D02*
X104790000Y-125563500D01*
X100690000Y-123563500D02*
X104790000Y-123563500D01*
X116559000Y-116716436D02*
X116559000Y-117170564D01*
X115089000Y-116716436D02*
X115089000Y-117170564D01*
X95666064Y-119075500D02*
X95211936Y-119075500D01*
X95666064Y-117605500D02*
X95211936Y-117605500D01*
D11*
X94912000Y-143896000D02*
X97112000Y-143896000D01*
X94912000Y-147696000D02*
X94912000Y-143896000D01*
X97112000Y-147696000D02*
X94912000Y-147696000D01*
X97112000Y-143896000D02*
X97112000Y-147696000D01*
X123566000Y-122852000D02*
X123566000Y-125052000D01*
X119766000Y-122852000D02*
X123566000Y-122852000D01*
X119766000Y-125052000D02*
X119766000Y-122852000D01*
X123566000Y-125052000D02*
X119766000Y-125052000D01*
D13*
X99730000Y-121150748D02*
X99730000Y-121673252D01*
X98260000Y-121150748D02*
X98260000Y-121673252D01*
X103763252Y-115192500D02*
X103240748Y-115192500D01*
X103763252Y-116662500D02*
X103240748Y-116662500D01*
D11*
X72268000Y-128704000D02*
X72268000Y-126504000D01*
X76068000Y-128704000D02*
X72268000Y-128704000D01*
X76068000Y-126504000D02*
X76068000Y-128704000D01*
X72268000Y-126504000D02*
X76068000Y-126504000D01*
D13*
X113322000Y-147960000D02*
X114302000Y-147960000D01*
X110452000Y-147960000D02*
X110452000Y-144140000D01*
X119672000Y-144140000D02*
X118322000Y-144140000D01*
X118322000Y-147960000D02*
X119672000Y-147960000D01*
X119672000Y-147960000D02*
X119672000Y-144140000D01*
X115822000Y-147960000D02*
X116802000Y-147960000D01*
X115822000Y-144140000D02*
X116802000Y-144140000D01*
X110452000Y-144140000D02*
X111802000Y-144140000D01*
X113322000Y-144140000D02*
X114302000Y-144140000D01*
X110452000Y-147960000D02*
X111802000Y-147960000D01*
D11*
X76068000Y-136736000D02*
X72268000Y-136736000D01*
X72268000Y-136736000D02*
X72268000Y-134536000D01*
X72268000Y-134536000D02*
X76068000Y-134536000D01*
X76068000Y-134536000D02*
X76068000Y-136736000D01*
D13*
X100020000Y-106906064D02*
X100020000Y-106451936D01*
X101490000Y-106906064D02*
X101490000Y-106451936D01*
X96367000Y-108351000D02*
X96367000Y-108081000D01*
X96367000Y-101451000D02*
X96367000Y-101721000D01*
X96367000Y-101721000D02*
X97467000Y-101721000D01*
X94867000Y-101451000D02*
X96367000Y-101451000D01*
X96367000Y-108081000D02*
X99197000Y-108081000D01*
X94867000Y-108351000D02*
X96367000Y-108351000D01*
X95666064Y-123701500D02*
X95211936Y-123701500D01*
X95666064Y-125171500D02*
X95211936Y-125171500D01*
D11*
X119766000Y-116756000D02*
X123566000Y-116756000D01*
X119766000Y-118956000D02*
X119766000Y-116756000D01*
X123566000Y-118956000D02*
X119766000Y-118956000D01*
X123566000Y-116756000D02*
X123566000Y-118956000D01*
D13*
X75623000Y-117726000D02*
G75*
G03*
X75623000Y-117726000I-1555000J0D01*
G01*
X72636000Y-120618000D02*
G75*
G03*
X72635891Y-121833742I1432000J-608000D01*
G01*
X74676000Y-119794000D02*
G75*
G03*
X73460258Y-119793891I-607999J-1432003D01*
G01*
X73460000Y-122658000D02*
G75*
G03*
X74675742Y-122658109I608000J1432000D01*
G01*
X75623000Y-121226000D02*
G75*
G03*
X75499385Y-120618413I-1555000J0D01*
G01*
X75500000Y-121834000D02*
G75*
G03*
X75623493Y-121198989I-1431988J607998D01*
G01*
X77728000Y-123386000D02*
X77728000Y-115566000D01*
X70608000Y-115566000D02*
X77728000Y-115566000D01*
X70608000Y-123386000D02*
X77728000Y-123386000D01*
X76168000Y-123386000D02*
X76168000Y-115566000D01*
X76228000Y-123626000D02*
X77968000Y-123626000D01*
X77968000Y-123626000D02*
X77968000Y-122126000D01*
X70608000Y-123386000D02*
X70608000Y-115566000D01*
D11*
X119766000Y-112352000D02*
X119766000Y-110152000D01*
X123566000Y-110152000D02*
X123566000Y-112352000D01*
X119766000Y-110152000D02*
X123566000Y-110152000D01*
X123566000Y-112352000D02*
X119766000Y-112352000D01*
X125306000Y-147696000D02*
X123106000Y-147696000D01*
X123106000Y-147696000D02*
X123106000Y-143896000D01*
X123106000Y-143896000D02*
X125306000Y-143896000D01*
X125306000Y-143896000D02*
X125306000Y-147696000D01*
D13*
X105599000Y-122678500D02*
X103649000Y-122678500D01*
X105599000Y-117558500D02*
X107549000Y-117558500D01*
X105599000Y-117558500D02*
X103649000Y-117558500D01*
X105599000Y-122678500D02*
X109049000Y-122678500D01*
D14*
X157698000Y-139467000D02*
G75*
G03*
X157698000Y-139467000I-100000J0D01*
G01*
D15*
X133968000Y-98477000D02*
X128518000Y-98477000D01*
X128518000Y-149427000D02*
X128518000Y-98477000D01*
X157028000Y-149427000D02*
X145959000Y-149427000D01*
X128518000Y-98477000D02*
X157028000Y-98477000D01*
X157028000Y-98477000D02*
X157028000Y-149427000D01*
X151658000Y-98477000D02*
X133968000Y-98477000D01*
X157028000Y-149427000D02*
X128518000Y-149427000D01*
X128518000Y-149427000D02*
X128518000Y-98477000D01*
X157028000Y-98477000D02*
X151658000Y-98477000D01*
X139248000Y-149427000D02*
X128518000Y-149427000D01*
X145959000Y-149427000D02*
X139248000Y-149427000D01*
X157028000Y-98477000D02*
X157028000Y-149427000D01*
D13*
X97320000Y-141652000D02*
X98320000Y-141652000D01*
X97820000Y-142152000D02*
X97820000Y-141152000D01*
X103525563Y-140912000D02*
X104590000Y-139847563D01*
X96070000Y-132392000D02*
X98820000Y-132392000D01*
X97134437Y-140912000D02*
X98820000Y-140912000D01*
X104590000Y-139847563D02*
X104590000Y-132392000D01*
X103525563Y-140912000D02*
X101840000Y-140912000D01*
X96070000Y-139847563D02*
X96070000Y-132392000D01*
X97134437Y-140912000D02*
X96070000Y-139847563D01*
X104590000Y-132392000D02*
X101840000Y-132392000D01*
X101490000Y-103350064D02*
X101490000Y-102895936D01*
X100020000Y-103350064D02*
X100020000Y-102895936D01*
X79068000Y-116130000D02*
X79068000Y-125870000D01*
X79068000Y-124325000D02*
X84508000Y-124325000D01*
X79068000Y-125870000D02*
X84508000Y-125870000D01*
X79068000Y-124205000D02*
X84508000Y-124205000D01*
X84508000Y-125870000D02*
X84508000Y-116130000D01*
X84508000Y-116130000D02*
X79068000Y-116130000D01*
X81788000Y-115220000D02*
X81788000Y-116130000D01*
X79068000Y-124445000D02*
X84508000Y-124445000D01*
X81788000Y-126780000D02*
X81788000Y-125870000D01*
X88395000Y-119211436D02*
X88395000Y-123565564D01*
X91815000Y-119211436D02*
X91815000Y-123565564D01*
X103763252Y-114376500D02*
X103240748Y-114376500D01*
X103763252Y-112906500D02*
X103240748Y-112906500D01*
X116559000Y-120877064D02*
X116559000Y-120422936D01*
X115089000Y-120877064D02*
X115089000Y-120422936D01*
X111902000Y-125563500D02*
X107802000Y-125563500D01*
X111902000Y-123563500D02*
X111902000Y-125563500D01*
X107802000Y-125563500D02*
X107802000Y-123563500D01*
X107802000Y-123563500D02*
X111902000Y-123563500D01*
%LPC*%
D16*
X111500000Y-140598000D03*
D17*
X109220000Y-134298000D03*
D16*
X106940000Y-140598000D03*
D18*
X85852000Y-112334000D03*
X85852000Y-114234000D03*
D19*
X92150000Y-138550000D03*
D20*
X87350000Y-141950000D03*
D21*
X87350000Y-135650000D03*
D22*
X164084000Y-136144000D03*
D18*
X114300000Y-137988000D03*
X114300000Y-139888000D03*
D23*
X117348000Y-138684000D03*
D22*
X74168000Y-111252000D03*
D24*
X101440000Y-124563500D03*
X102740000Y-124563500D03*
X104040000Y-124563500D03*
D25*
X75000000Y-147400000D03*
X73302944Y-146697056D03*
D26*
X75000000Y-145000000D03*
D25*
X75000000Y-142600000D03*
X77400000Y-145000000D03*
X73302944Y-143302944D03*
X76697056Y-143302944D03*
X72600000Y-145000000D03*
X76697056Y-146697056D03*
D27*
X115824000Y-117856000D03*
X115824000Y-116031000D03*
D28*
X94526500Y-118340500D03*
X96351500Y-118340500D03*
D23*
X96012000Y-145796000D03*
D22*
X121666000Y-123952000D03*
D29*
X98995000Y-122362000D03*
X98995000Y-120462000D03*
D30*
X102552000Y-115927500D03*
X104452000Y-115927500D03*
D22*
X74168000Y-127604000D03*
D31*
X112562000Y-144850000D03*
X115062000Y-144850000D03*
X117562000Y-144850000D03*
X112562000Y-147250000D03*
X115062000Y-147250000D03*
X117562000Y-147250000D03*
D26*
X75000000Y-103000000D03*
D22*
X74168000Y-135636000D03*
D32*
X100755000Y-105766500D03*
X100755000Y-107591500D03*
D33*
X98097000Y-102621000D03*
D34*
X91797000Y-104901000D03*
D33*
X98097000Y-107181000D03*
D28*
X94526500Y-124436500D03*
X96351500Y-124436500D03*
D22*
X121666000Y-117856000D03*
D35*
X74068000Y-117726000D03*
D36*
X74068000Y-121226000D03*
D22*
X121666000Y-111252000D03*
D26*
X165000000Y-103000000D03*
D23*
X124206000Y-145796000D03*
D37*
X103124000Y-122023500D03*
X103124000Y-120753500D03*
X103124000Y-119483500D03*
X103124000Y-118213500D03*
X108074000Y-118213500D03*
X108074000Y-119483500D03*
X108074000Y-120753500D03*
X108074000Y-122023500D03*
D38*
X130048000Y-139467000D03*
X130048000Y-136927000D03*
X130048000Y-134387000D03*
X130048000Y-131847000D03*
X130048000Y-129307000D03*
X130048000Y-126767000D03*
X130048000Y-124227000D03*
X130048000Y-121687000D03*
X130048000Y-119147000D03*
X130048000Y-116607000D03*
X130048000Y-114067000D03*
X130048000Y-111527000D03*
X130048000Y-108987000D03*
X130048000Y-106447000D03*
X130048000Y-103907000D03*
X155448000Y-103907000D03*
X155448000Y-106447000D03*
X155448000Y-108987000D03*
X155448000Y-111527000D03*
X155448000Y-114067000D03*
X155448000Y-116607000D03*
X155448000Y-119147000D03*
X155448000Y-121687000D03*
X155448000Y-124227000D03*
X155448000Y-126767000D03*
X155448000Y-129307000D03*
X155448000Y-131847000D03*
X155448000Y-134387000D03*
X155448000Y-136927000D03*
D39*
X155448000Y-139467000D03*
D40*
X130518000Y-100477000D03*
X155028000Y-100477000D03*
X155028000Y-147427000D03*
X130518000Y-147427000D03*
D41*
X100330000Y-133402000D03*
X100330000Y-139902000D03*
D32*
X100755000Y-102210500D03*
X100755000Y-104035500D03*
D26*
X165000000Y-145000000D03*
D42*
X81788000Y-128620000D03*
D43*
X81788000Y-113380000D03*
D44*
X90105000Y-124351000D03*
X90105000Y-118426000D03*
D30*
X102552000Y-113641500D03*
X104452000Y-113641500D03*
D32*
X115824000Y-119737500D03*
X115824000Y-121562500D03*
D24*
X108552000Y-124563500D03*
X109852000Y-124563500D03*
X111152000Y-124563500D03*
M02*
