G04 #@! TF.GenerationSoftware,KiCad,Pcbnew,(6.0.5)*
G04 #@! TF.CreationDate,2022-06-11T17:51:55-07:00*
G04 #@! TF.ProjectId,main_template,6d61696e-5f74-4656-9d70-6c6174652e6b,1*
G04 #@! TF.SameCoordinates,Original*
G04 #@! TF.FileFunction,Legend,Bot*
G04 #@! TF.FilePolarity,Positive*
%FSLAX46Y46*%
G04 Gerber Fmt 4.6, Leading zero omitted, Abs format (unit mm)*
G04 Created by KiCad (PCBNEW (6.0.5)) date 2022-06-11 17:51:55*
%MOMM*%
%LPD*%
G01*
G04 APERTURE LIST*
%ADD10O,2.000000X4.200000*%
%ADD11O,4.200000X2.000000*%
%ADD12R,4.600000X2.000000*%
%ADD13C,0.800000*%
%ADD14C,6.400000*%
%ADD15C,2.400000*%
%ADD16R,2.400000X2.400000*%
%ADD17C,2.000000*%
%ADD18R,2.000000X2.000000*%
%ADD19C,3.000000*%
%ADD20R,3.200000X3.200000*%
%ADD21O,3.200000X3.200000*%
G04 APERTURE END LIST*
%LPC*%
D10*
X92150000Y-138550000D03*
D11*
X87350000Y-141950000D03*
D12*
X87350000Y-135650000D03*
D13*
X75000000Y-147400000D03*
X73302944Y-146697056D03*
D14*
X75000000Y-145000000D03*
D13*
X75000000Y-142600000D03*
X77400000Y-145000000D03*
X73302944Y-143302944D03*
X76697056Y-143302944D03*
X72600000Y-145000000D03*
X76697056Y-146697056D03*
D14*
X75000000Y-103000000D03*
D15*
X74068000Y-117726000D03*
D16*
X74068000Y-121226000D03*
D14*
X165000000Y-103000000D03*
D17*
X130048000Y-139467000D03*
X130048000Y-136927000D03*
X130048000Y-134387000D03*
X130048000Y-131847000D03*
X130048000Y-129307000D03*
X130048000Y-126767000D03*
X130048000Y-124227000D03*
X130048000Y-121687000D03*
X130048000Y-119147000D03*
X130048000Y-116607000D03*
X130048000Y-114067000D03*
X130048000Y-111527000D03*
X130048000Y-108987000D03*
X130048000Y-106447000D03*
X130048000Y-103907000D03*
X155448000Y-103907000D03*
X155448000Y-106447000D03*
X155448000Y-108987000D03*
X155448000Y-111527000D03*
X155448000Y-114067000D03*
X155448000Y-116607000D03*
X155448000Y-119147000D03*
X155448000Y-121687000D03*
X155448000Y-124227000D03*
X155448000Y-126767000D03*
X155448000Y-129307000D03*
X155448000Y-131847000D03*
X155448000Y-134387000D03*
X155448000Y-136927000D03*
D18*
X155448000Y-139467000D03*
D19*
X130518000Y-100477000D03*
X155028000Y-100477000D03*
X155028000Y-147427000D03*
X130518000Y-147427000D03*
D14*
X165000000Y-145000000D03*
D20*
X81788000Y-128620000D03*
D21*
X81788000Y-113380000D03*
M02*
