G04 #@! TF.GenerationSoftware,KiCad,Pcbnew,(6.0.5)*
G04 #@! TF.CreationDate,2022-06-11T17:51:55-07:00*
G04 #@! TF.ProjectId,main_template,6d61696e-5f74-4656-9d70-6c6174652e6b,1*
G04 #@! TF.SameCoordinates,Original*
G04 #@! TF.FileFunction,Paste,Top*
G04 #@! TF.FilePolarity,Positive*
%FSLAX46Y46*%
G04 Gerber Fmt 4.6, Leading zero omitted, Abs format (unit mm)*
G04 Created by KiCad (PCBNEW (6.0.5)) date 2022-06-11 17:51:55*
%MOMM*%
%LPD*%
G01*
G04 APERTURE LIST*
G04 Aperture macros list*
%AMRoundRect*
0 Rectangle with rounded corners*
0 $1 Rounding radius*
0 $2 $3 $4 $5 $6 $7 $8 $9 X,Y pos of 4 corners*
0 Add a 4 corners polygon primitive as box body*
4,1,4,$2,$3,$4,$5,$6,$7,$8,$9,$2,$3,0*
0 Add four circle primitives for the rounded corners*
1,1,$1+$1,$2,$3*
1,1,$1+$1,$4,$5*
1,1,$1+$1,$6,$7*
1,1,$1+$1,$8,$9*
0 Add four rect primitives between the rounded corners*
20,1,$1+$1,$2,$3,$4,$5,0*
20,1,$1+$1,$4,$5,$6,$7,0*
20,1,$1+$1,$6,$7,$8,$9,0*
20,1,$1+$1,$8,$9,$2,$3,0*%
G04 Aperture macros list end*
%ADD10R,1.200000X2.200000*%
%ADD11R,2.750000X3.050000*%
%ADD12RoundRect,0.250000X0.475000X-0.250000X0.475000X0.250000X-0.475000X0.250000X-0.475000X-0.250000X0*%
%ADD13R,3.400000X1.800000*%
%ADD14R,1.800000X3.400000*%
%ADD15RoundRect,0.250000X-0.450000X0.262500X-0.450000X-0.262500X0.450000X-0.262500X0.450000X0.262500X0*%
%ADD16RoundRect,0.250000X0.262500X0.450000X-0.262500X0.450000X-0.262500X-0.450000X0.262500X-0.450000X0*%
%ADD17RoundRect,0.250000X-0.475000X0.250000X-0.475000X-0.250000X0.475000X-0.250000X0.475000X0.250000X0*%
%ADD18RoundRect,0.250000X0.250000X0.475000X-0.250000X0.475000X-0.250000X-0.475000X0.250000X-0.475000X0*%
%ADD19R,1.000000X1.600000*%
%ADD20RoundRect,0.250000X0.450000X-0.262500X0.450000X0.262500X-0.450000X0.262500X-0.450000X-0.262500X0*%
%ADD21R,2.200000X1.200000*%
%ADD22R,3.050000X2.750000*%
%ADD23RoundRect,0.150000X0.825000X0.150000X-0.825000X0.150000X-0.825000X-0.150000X0.825000X-0.150000X0*%
%ADD24RoundRect,0.250000X1.000000X-1.500000X1.000000X1.500000X-1.000000X1.500000X-1.000000X-1.500000X0*%
%ADD25RoundRect,0.250000X-1.425000X0.362500X-1.425000X-0.362500X1.425000X-0.362500X1.425000X0.362500X0*%
G04 APERTURE END LIST*
D10*
X111500000Y-140598000D03*
X106940000Y-140598000D03*
D11*
X107695000Y-135973000D03*
X107695000Y-132623000D03*
X110745000Y-135973000D03*
X110745000Y-132623000D03*
D12*
X85852000Y-112334000D03*
X85852000Y-114234000D03*
D13*
X164084000Y-136144000D03*
D12*
X114300000Y-137988000D03*
X114300000Y-139888000D03*
D14*
X117348000Y-138684000D03*
D13*
X74168000Y-111252000D03*
D15*
X115824000Y-117856000D03*
X115824000Y-116031000D03*
D16*
X94526500Y-118340500D03*
X96351500Y-118340500D03*
D14*
X96012000Y-145796000D03*
D13*
X121666000Y-123952000D03*
D17*
X98995000Y-122362000D03*
X98995000Y-120462000D03*
D18*
X102552000Y-115927500D03*
X104452000Y-115927500D03*
D13*
X74168000Y-127604000D03*
D19*
X112562000Y-144850000D03*
X115062000Y-144850000D03*
X117562000Y-144850000D03*
X112562000Y-147250000D03*
X115062000Y-147250000D03*
X117562000Y-147250000D03*
D13*
X74168000Y-135636000D03*
D20*
X100755000Y-105766500D03*
X100755000Y-107591500D03*
D21*
X98097000Y-102621000D03*
X98097000Y-107181000D03*
D22*
X93472000Y-103376000D03*
X90122000Y-106426000D03*
X93472000Y-106426000D03*
X90122000Y-103376000D03*
D16*
X94526500Y-124436500D03*
X96351500Y-124436500D03*
D13*
X121666000Y-117856000D03*
X121666000Y-111252000D03*
D14*
X124206000Y-145796000D03*
D23*
X103124000Y-122023500D03*
X103124000Y-120753500D03*
X103124000Y-119483500D03*
X103124000Y-118213500D03*
X108074000Y-118213500D03*
X108074000Y-119483500D03*
X108074000Y-120753500D03*
X108074000Y-122023500D03*
D24*
X100330000Y-133402000D03*
X100330000Y-139902000D03*
D20*
X100755000Y-102210500D03*
X100755000Y-104035500D03*
D25*
X90105000Y-124351000D03*
X90105000Y-118426000D03*
D18*
X102552000Y-113641500D03*
X104452000Y-113641500D03*
D20*
X115824000Y-119737500D03*
X115824000Y-121562500D03*
M02*
