M48
; DRILL file {KiCad (6.0.5)} date Sat Jun 11 17:52:37 2022
; FORMAT={-:-/ absolute / metric / decimal}
; #@! TF.CreationDate,2022-06-11T17:52:37-07:00
; #@! TF.GenerationSoftware,Kicad,Pcbnew,(6.0.5)
; #@! TF.FileFunction,Plated,1,4,PTH
FMAT,2
METRIC
; #@! TA.AperFunction,Plated,PTH,ViaDrill
T1C0.300
; #@! TA.AperFunction,Plated,PTH,ComponentDrill
T2C0.500
; #@! TA.AperFunction,Plated,PTH,ComponentDrill
T3C1.000
; #@! TA.AperFunction,Plated,PTH,ComponentDrill
T4C1.020
; #@! TA.AperFunction,Plated,PTH,ComponentDrill
T5C1.200
; #@! TA.AperFunction,Plated,PTH,ComponentDrill
T6C1.600
; #@! TA.AperFunction,Plated,PTH,ComponentDrill
T7C3.200
%
G90
G05
T1
X79.0Y-132.0
X81.0Y-132.0
X82.0Y-103.0
X83.0Y-132.0
X84.0Y-103.0
X86.0Y-122.0
X86.0Y-124.0
X86.0Y-126.0
X91.0Y-113.0
X93.0Y-130.0
X94.0Y-113.0
X97.0Y-113.0
X99.0Y-126.0
X99.0Y-129.0
X106.0Y-124.0
X106.0Y-126.0
X109.0Y-103.0
X111.252Y-114.3
X112.0Y-103.0
X112.0Y-121.0
X112.0Y-122.0
X115.0Y-103.0
X118.0Y-103.0
X120.0Y-128.0
X120.0Y-132.0
X120.0Y-136.0
X120.904Y-141.224
X142.0Y-113.0
X142.0Y-117.0
X142.0Y-121.0
X142.0Y-125.0
X142.0Y-129.0
X151.0Y-119.0
X151.0Y-122.0
X151.0Y-125.0
X151.0Y-128.0
X151.0Y-131.0
X164.0Y-112.0
X164.0Y-115.0
T2
X72.6Y-145.0
X73.303Y-143.303
X73.303Y-146.697
X75.0Y-142.6
X75.0Y-147.4
X76.697Y-143.303
X76.697Y-146.697
X77.4Y-145.0
T4
X130.048Y-103.907
X130.048Y-106.447
X130.048Y-108.987
X130.048Y-111.527
X130.048Y-114.067
X130.048Y-116.607
X130.048Y-119.147
X130.048Y-121.687
X130.048Y-124.227
X130.048Y-126.767
X130.048Y-129.307
X130.048Y-131.847
X130.048Y-134.387
X130.048Y-136.927
X130.048Y-139.467
X155.448Y-103.907
X155.448Y-106.447
X155.448Y-108.987
X155.448Y-111.527
X155.448Y-114.067
X155.448Y-116.607
X155.448Y-119.147
X155.448Y-121.687
X155.448Y-124.227
X155.448Y-126.767
X155.448Y-129.307
X155.448Y-131.847
X155.448Y-134.387
X155.448Y-136.927
X155.448Y-139.467
T5
X74.068Y-117.726
X74.068Y-121.226
T6
X81.788Y-113.38
X81.788Y-128.62
T7
X75.0Y-103.0
X75.0Y-145.0
X165.0Y-103.0
X165.0Y-145.0
T3
X86.05Y-135.65G85X88.65Y-135.65
G05
X86.25Y-141.95G85X88.45Y-141.95
G05
X92.15Y-137.45G85X92.15Y-139.65
G05
T0
M30
