%FSLAX45Y45*%
G04 Gerber Fmt 4.5, Leading zero omitted, Abs format (unit mm)*
G04 Created by KiCad (PCBNEW (6.0.5)) date 2022-06-11 17:52:53*
%MOMM*%
%LPD*%
G01*
G04 APERTURE LIST*
%TA.AperFunction,Profile*%
%ADD10C,0.038100*%
%TD*%
%ADD11C,0.200000*%
%ADD12C,0.030000*%
%ADD13C,0.050000*%
%ADD14C,0.100000*%
%ADD15C,0.102000*%
%ADD16C,0.120000*%
%ADD17C,0.160000*%
%ADD18C,0.320000*%
G04 APERTURE END LIST*
D10*
X7000000Y-15000000D02*
X17000000Y-15000000D01*
X17000000Y-15000000D02*
X17000000Y-9800000D01*
X17000000Y-9800000D02*
X7000000Y-9800000D01*
X7000000Y-9800000D02*
X7000000Y-15000000D01*
D11*
D12*
X7885000Y-13185000D02*
X7915000Y-13215000D01*
X7915000Y-13185000D02*
X7885000Y-13215000D01*
X8085000Y-13185000D02*
X8115000Y-13215000D01*
X8115000Y-13185000D02*
X8085000Y-13215000D01*
X8185000Y-10285000D02*
X8215000Y-10315000D01*
X8215000Y-10285000D02*
X8185000Y-10315000D01*
X8285000Y-13185000D02*
X8315000Y-13215000D01*
X8315000Y-13185000D02*
X8285000Y-13215000D01*
X8385000Y-10285000D02*
X8415000Y-10315000D01*
X8415000Y-10285000D02*
X8385000Y-10315000D01*
X8585000Y-12185000D02*
X8615000Y-12215000D01*
X8615000Y-12185000D02*
X8585000Y-12215000D01*
X8585000Y-12385000D02*
X8615000Y-12415000D01*
X8615000Y-12385000D02*
X8585000Y-12415000D01*
X8585000Y-12585000D02*
X8615000Y-12615000D01*
X8615000Y-12585000D02*
X8585000Y-12615000D01*
X9085000Y-11285000D02*
X9115000Y-11315000D01*
X9115000Y-11285000D02*
X9085000Y-11315000D01*
X9285000Y-12985000D02*
X9315000Y-13015000D01*
X9315000Y-12985000D02*
X9285000Y-13015000D01*
X9385000Y-11285000D02*
X9415000Y-11315000D01*
X9415000Y-11285000D02*
X9385000Y-11315000D01*
X9685000Y-11285000D02*
X9715000Y-11315000D01*
X9715000Y-11285000D02*
X9685000Y-11315000D01*
X9885000Y-12585000D02*
X9915000Y-12615000D01*
X9915000Y-12585000D02*
X9885000Y-12615000D01*
X9885000Y-12885000D02*
X9915000Y-12915000D01*
X9915000Y-12885000D02*
X9885000Y-12915000D01*
X10585000Y-12385000D02*
X10615000Y-12415000D01*
X10615000Y-12385000D02*
X10585000Y-12415000D01*
X10585000Y-12585000D02*
X10615000Y-12615000D01*
X10615000Y-12585000D02*
X10585000Y-12615000D01*
X10885000Y-10285000D02*
X10915000Y-10315000D01*
X10915000Y-10285000D02*
X10885000Y-10315000D01*
X11110200Y-11415000D02*
X11140200Y-11445000D01*
X11140200Y-11415000D02*
X11110200Y-11445000D01*
X11185000Y-10285000D02*
X11215000Y-10315000D01*
X11215000Y-10285000D02*
X11185000Y-10315000D01*
X11185000Y-12085000D02*
X11215000Y-12115000D01*
X11215000Y-12085000D02*
X11185000Y-12115000D01*
X11185000Y-12185000D02*
X11215000Y-12215000D01*
X11215000Y-12185000D02*
X11185000Y-12215000D01*
X11485000Y-10285000D02*
X11515000Y-10315000D01*
X11515000Y-10285000D02*
X11485000Y-10315000D01*
X11785000Y-10285000D02*
X11815000Y-10315000D01*
X11815000Y-10285000D02*
X11785000Y-10315000D01*
X11985000Y-12785000D02*
X12015000Y-12815000D01*
X12015000Y-12785000D02*
X11985000Y-12815000D01*
X11985000Y-13185000D02*
X12015000Y-13215000D01*
X12015000Y-13185000D02*
X11985000Y-13215000D01*
X11985000Y-13585000D02*
X12015000Y-13615000D01*
X12015000Y-13585000D02*
X11985000Y-13615000D01*
X12075400Y-14107400D02*
X12105400Y-14137400D01*
X12105400Y-14107400D02*
X12075400Y-14137400D01*
X14185000Y-11285000D02*
X14215000Y-11315000D01*
X14215000Y-11285000D02*
X14185000Y-11315000D01*
X14185000Y-11685000D02*
X14215000Y-11715000D01*
X14215000Y-11685000D02*
X14185000Y-11715000D01*
X14185000Y-12085000D02*
X14215000Y-12115000D01*
X14215000Y-12085000D02*
X14185000Y-12115000D01*
X14185000Y-12485000D02*
X14215000Y-12515000D01*
X14215000Y-12485000D02*
X14185000Y-12515000D01*
X14185000Y-12885000D02*
X14215000Y-12915000D01*
X14215000Y-12885000D02*
X14185000Y-12915000D01*
X15085000Y-11885000D02*
X15115000Y-11915000D01*
X15115000Y-11885000D02*
X15085000Y-11915000D01*
X15085000Y-12185000D02*
X15115000Y-12215000D01*
X15115000Y-12185000D02*
X15085000Y-12215000D01*
X15085000Y-12485000D02*
X15115000Y-12515000D01*
X15115000Y-12485000D02*
X15085000Y-12515000D01*
X15085000Y-12785000D02*
X15115000Y-12815000D01*
X15115000Y-12785000D02*
X15085000Y-12815000D01*
X15085000Y-13085000D02*
X15115000Y-13115000D01*
X15115000Y-13085000D02*
X15085000Y-13115000D01*
X16385000Y-11185000D02*
X16415000Y-11215000D01*
X16415000Y-11185000D02*
X16385000Y-11215000D01*
X16385000Y-11485000D02*
X16415000Y-11515000D01*
X16415000Y-11485000D02*
X16385000Y-11515000D01*
D13*
X7285000Y-14500000D02*
G75*
G03*
X7285000Y-14500000I-25000J0D01*
G01*
X7355294Y-14330294D02*
G75*
G03*
X7355294Y-14330294I-25000J0D01*
G01*
X7355294Y-14669706D02*
G75*
G03*
X7355294Y-14669706I-25000J0D01*
G01*
X7525000Y-14260000D02*
G75*
G03*
X7525000Y-14260000I-25000J0D01*
G01*
X7525000Y-14740000D02*
G75*
G03*
X7525000Y-14740000I-25000J0D01*
G01*
X7694706Y-14330294D02*
G75*
G03*
X7694706Y-14330294I-25000J0D01*
G01*
X7694706Y-14669706D02*
G75*
G03*
X7694706Y-14669706I-25000J0D01*
G01*
X7765000Y-14500000D02*
G75*
G03*
X7765000Y-14500000I-25000J0D01*
G01*
D14*
X8735000Y-13515000D02*
X8735000Y-13615000D01*
X8685000Y-13565000D02*
X8785000Y-13565000D01*
D11*
X8605000Y-13605000D02*
X8865000Y-13605000D01*
X8605000Y-13525000D02*
X8865000Y-13525000D01*
X8865000Y-13605000D02*
G75*
G03*
X8865000Y-13525000I0J40000D01*
G01*
X8605000Y-13525000D02*
G75*
G03*
X8605000Y-13605000I0J-40000D01*
G01*
D14*
X8735000Y-14145000D02*
X8735000Y-14245000D01*
X8685000Y-14195000D02*
X8785000Y-14195000D01*
D11*
X8625000Y-14235000D02*
X8845000Y-14235000D01*
X8625000Y-14155000D02*
X8845000Y-14155000D01*
X8845000Y-14235000D02*
G75*
G03*
X8845000Y-14155000I0J40000D01*
G01*
X8625000Y-14155000D02*
G75*
G03*
X8625000Y-14235000I0J-40000D01*
G01*
D14*
X9215000Y-13805000D02*
X9215000Y-13905000D01*
X9165000Y-13855000D02*
X9265000Y-13855000D01*
D11*
X9175000Y-13745000D02*
X9175000Y-13965000D01*
X9255000Y-13745000D02*
X9255000Y-13965000D01*
X9175000Y-13965000D02*
G75*
G03*
X9255000Y-13965000I40000J0D01*
G01*
X9255000Y-13745000D02*
G75*
G03*
X9175000Y-13745000I-40000J0D01*
G01*
D15*
X13040863Y-10426763D02*
X13040863Y-10354637D01*
X12968737Y-10354637D01*
X12968737Y-10426763D01*
X13040863Y-10426763D01*
X13040863Y-10680763D02*
X13040863Y-10608637D01*
X12968737Y-10608637D01*
X12968737Y-10680763D01*
X13040863Y-10680763D01*
X13040863Y-10934763D02*
X13040863Y-10862637D01*
X12968737Y-10862637D01*
X12968737Y-10934763D01*
X13040863Y-10934763D01*
X13040863Y-11188763D02*
X13040863Y-11116637D01*
X12968737Y-11116637D01*
X12968737Y-11188763D01*
X13040863Y-11188763D01*
X13040863Y-11442763D02*
X13040863Y-11370637D01*
X12968737Y-11370637D01*
X12968737Y-11442763D01*
X13040863Y-11442763D01*
X13040863Y-11696763D02*
X13040863Y-11624637D01*
X12968737Y-11624637D01*
X12968737Y-11696763D01*
X13040863Y-11696763D01*
X13040863Y-11950763D02*
X13040863Y-11878637D01*
X12968737Y-11878637D01*
X12968737Y-11950763D01*
X13040863Y-11950763D01*
X13040863Y-12204763D02*
X13040863Y-12132637D01*
X12968737Y-12132637D01*
X12968737Y-12204763D01*
X13040863Y-12204763D01*
X13040863Y-12458763D02*
X13040863Y-12386637D01*
X12968737Y-12386637D01*
X12968737Y-12458763D01*
X13040863Y-12458763D01*
X13040863Y-12712763D02*
X13040863Y-12640637D01*
X12968737Y-12640637D01*
X12968737Y-12712763D01*
X13040863Y-12712763D01*
X13040863Y-12966763D02*
X13040863Y-12894637D01*
X12968737Y-12894637D01*
X12968737Y-12966763D01*
X13040863Y-12966763D01*
X13040863Y-13220763D02*
X13040863Y-13148637D01*
X12968737Y-13148637D01*
X12968737Y-13220763D01*
X13040863Y-13220763D01*
X13040863Y-13474763D02*
X13040863Y-13402637D01*
X12968737Y-13402637D01*
X12968737Y-13474763D01*
X13040863Y-13474763D01*
X13040863Y-13728763D02*
X13040863Y-13656637D01*
X12968737Y-13656637D01*
X12968737Y-13728763D01*
X13040863Y-13728763D01*
X13040863Y-13982763D02*
X13040863Y-13910637D01*
X12968737Y-13910637D01*
X12968737Y-13982763D01*
X13040863Y-13982763D01*
X15580863Y-10426763D02*
X15580863Y-10354637D01*
X15508737Y-10354637D01*
X15508737Y-10426763D01*
X15580863Y-10426763D01*
X15580863Y-10680763D02*
X15580863Y-10608637D01*
X15508737Y-10608637D01*
X15508737Y-10680763D01*
X15580863Y-10680763D01*
X15580863Y-10934763D02*
X15580863Y-10862637D01*
X15508737Y-10862637D01*
X15508737Y-10934763D01*
X15580863Y-10934763D01*
X15580863Y-11188763D02*
X15580863Y-11116637D01*
X15508737Y-11116637D01*
X15508737Y-11188763D01*
X15580863Y-11188763D01*
X15580863Y-11442763D02*
X15580863Y-11370637D01*
X15508737Y-11370637D01*
X15508737Y-11442763D01*
X15580863Y-11442763D01*
X15580863Y-11696763D02*
X15580863Y-11624637D01*
X15508737Y-11624637D01*
X15508737Y-11696763D01*
X15580863Y-11696763D01*
X15580863Y-11950763D02*
X15580863Y-11878637D01*
X15508737Y-11878637D01*
X15508737Y-11950763D01*
X15580863Y-11950763D01*
X15580863Y-12204763D02*
X15580863Y-12132637D01*
X15508737Y-12132637D01*
X15508737Y-12204763D01*
X15580863Y-12204763D01*
X15580863Y-12458763D02*
X15580863Y-12386637D01*
X15508737Y-12386637D01*
X15508737Y-12458763D01*
X15580863Y-12458763D01*
X15580863Y-12712763D02*
X15580863Y-12640637D01*
X15508737Y-12640637D01*
X15508737Y-12712763D01*
X15580863Y-12712763D01*
X15580863Y-12966763D02*
X15580863Y-12894637D01*
X15508737Y-12894637D01*
X15508737Y-12966763D01*
X15580863Y-12966763D01*
X15580863Y-13220763D02*
X15580863Y-13148637D01*
X15508737Y-13148637D01*
X15508737Y-13220763D01*
X15580863Y-13220763D01*
X15580863Y-13474763D02*
X15580863Y-13402637D01*
X15508737Y-13402637D01*
X15508737Y-13474763D01*
X15580863Y-13474763D01*
X15580863Y-13728763D02*
X15580863Y-13656637D01*
X15508737Y-13656637D01*
X15508737Y-13728763D01*
X15580863Y-13728763D01*
X15580863Y-13982763D02*
X15580863Y-13910637D01*
X15508737Y-13910637D01*
X15508737Y-13982763D01*
X15580863Y-13982763D01*
D16*
X7406800Y-11832600D02*
X7466800Y-11772600D01*
X7406800Y-11712600D01*
X7346800Y-11772600D01*
X7406800Y-11832600D01*
X7406800Y-12182600D02*
X7466800Y-12122600D01*
X7406800Y-12062600D01*
X7346800Y-12122600D01*
X7406800Y-12182600D01*
D17*
X8098800Y-11258000D02*
X8258800Y-11418000D01*
X8258800Y-11258000D02*
X8098800Y-11418000D01*
X8258800Y-11338000D02*
G75*
G03*
X8258800Y-11338000I-80000J0D01*
G01*
X8098800Y-12782000D02*
X8258800Y-12942000D01*
X8258800Y-12782000D02*
X8098800Y-12942000D01*
X8258800Y-12862000D02*
G75*
G03*
X8258800Y-12862000I-80000J0D01*
G01*
D18*
X7340000Y-10140000D02*
X7660000Y-10460000D01*
X7660000Y-10140000D02*
X7340000Y-10460000D01*
X7500000Y-10140000D02*
X7500000Y-10460000D01*
X7340000Y-10300000D02*
X7660000Y-10300000D01*
X7340000Y-14340000D02*
X7660000Y-14660000D01*
X7660000Y-14340000D02*
X7340000Y-14660000D01*
X7500000Y-14340000D02*
X7500000Y-14660000D01*
X7340000Y-14500000D02*
X7660000Y-14500000D01*
X16340000Y-10140000D02*
X16660000Y-10460000D01*
X16660000Y-10140000D02*
X16340000Y-10460000D01*
X16500000Y-10140000D02*
X16500000Y-10460000D01*
X16340000Y-10300000D02*
X16660000Y-10300000D01*
X16340000Y-14340000D02*
X16660000Y-14660000D01*
X16660000Y-14340000D02*
X16340000Y-14660000D01*
X16500000Y-14340000D02*
X16500000Y-14660000D01*
X16340000Y-14500000D02*
X16660000Y-14500000D01*
D11*
X7255714Y-15312381D02*
X7255714Y-15112381D01*
X7303333Y-15112381D01*
X7331904Y-15121905D01*
X7350952Y-15140953D01*
X7360476Y-15160000D01*
X7370000Y-15198095D01*
X7370000Y-15226667D01*
X7360476Y-15264762D01*
X7350952Y-15283810D01*
X7331904Y-15302857D01*
X7303333Y-15312381D01*
X7255714Y-15312381D01*
X7455714Y-15312381D02*
X7455714Y-15179048D01*
X7455714Y-15217143D02*
X7465238Y-15198095D01*
X7474762Y-15188572D01*
X7493809Y-15179048D01*
X7512857Y-15179048D01*
X7579523Y-15312381D02*
X7579523Y-15179048D01*
X7579523Y-15112381D02*
X7570000Y-15121905D01*
X7579523Y-15131429D01*
X7589047Y-15121905D01*
X7579523Y-15112381D01*
X7579523Y-15131429D01*
X7703333Y-15312381D02*
X7684285Y-15302857D01*
X7674762Y-15283810D01*
X7674762Y-15112381D01*
X7808095Y-15312381D02*
X7789047Y-15302857D01*
X7779523Y-15283810D01*
X7779523Y-15112381D01*
X8036666Y-15312381D02*
X8036666Y-15112381D01*
X8103333Y-15255238D01*
X8170000Y-15112381D01*
X8170000Y-15312381D01*
X8350952Y-15312381D02*
X8350952Y-15207619D01*
X8341428Y-15188572D01*
X8322381Y-15179048D01*
X8284285Y-15179048D01*
X8265238Y-15188572D01*
X8350952Y-15302857D02*
X8331904Y-15312381D01*
X8284285Y-15312381D01*
X8265238Y-15302857D01*
X8255714Y-15283810D01*
X8255714Y-15264762D01*
X8265238Y-15245714D01*
X8284285Y-15236191D01*
X8331904Y-15236191D01*
X8350952Y-15226667D01*
X8446190Y-15179048D02*
X8446190Y-15379048D01*
X8446190Y-15188572D02*
X8465238Y-15179048D01*
X8503333Y-15179048D01*
X8522381Y-15188572D01*
X8531905Y-15198095D01*
X8541428Y-15217143D01*
X8541428Y-15274286D01*
X8531905Y-15293333D01*
X8522381Y-15302857D01*
X8503333Y-15312381D01*
X8465238Y-15312381D01*
X8446190Y-15302857D01*
X8627143Y-15293333D02*
X8636666Y-15302857D01*
X8627143Y-15312381D01*
X8617619Y-15302857D01*
X8627143Y-15293333D01*
X8627143Y-15312381D01*
X8627143Y-15188572D02*
X8636666Y-15198095D01*
X8627143Y-15207619D01*
X8617619Y-15198095D01*
X8627143Y-15188572D01*
X8627143Y-15207619D01*
D12*
X6968095Y-15626905D02*
X6998095Y-15656905D01*
X6998095Y-15626905D02*
X6968095Y-15656905D01*
D11*
X7293809Y-15532381D02*
X7312857Y-15532381D01*
X7331904Y-15541905D01*
X7341428Y-15551429D01*
X7350952Y-15570476D01*
X7360476Y-15608572D01*
X7360476Y-15656191D01*
X7350952Y-15694286D01*
X7341428Y-15713333D01*
X7331904Y-15722857D01*
X7312857Y-15732381D01*
X7293809Y-15732381D01*
X7274762Y-15722857D01*
X7265238Y-15713333D01*
X7255714Y-15694286D01*
X7246190Y-15656191D01*
X7246190Y-15608572D01*
X7255714Y-15570476D01*
X7265238Y-15551429D01*
X7274762Y-15541905D01*
X7293809Y-15532381D01*
X7446190Y-15713333D02*
X7455714Y-15722857D01*
X7446190Y-15732381D01*
X7436666Y-15722857D01*
X7446190Y-15713333D01*
X7446190Y-15732381D01*
X7522381Y-15532381D02*
X7646190Y-15532381D01*
X7579523Y-15608572D01*
X7608095Y-15608572D01*
X7627143Y-15618095D01*
X7636666Y-15627619D01*
X7646190Y-15646667D01*
X7646190Y-15694286D01*
X7636666Y-15713333D01*
X7627143Y-15722857D01*
X7608095Y-15732381D01*
X7550952Y-15732381D01*
X7531904Y-15722857D01*
X7522381Y-15713333D01*
X7770000Y-15532381D02*
X7789047Y-15532381D01*
X7808095Y-15541905D01*
X7817619Y-15551429D01*
X7827143Y-15570476D01*
X7836666Y-15608572D01*
X7836666Y-15656191D01*
X7827143Y-15694286D01*
X7817619Y-15713333D01*
X7808095Y-15722857D01*
X7789047Y-15732381D01*
X7770000Y-15732381D01*
X7750952Y-15722857D01*
X7741428Y-15713333D01*
X7731904Y-15694286D01*
X7722381Y-15656191D01*
X7722381Y-15608572D01*
X7731904Y-15570476D01*
X7741428Y-15551429D01*
X7750952Y-15541905D01*
X7770000Y-15532381D01*
X7960476Y-15532381D02*
X7979523Y-15532381D01*
X7998571Y-15541905D01*
X8008095Y-15551429D01*
X8017619Y-15570476D01*
X8027143Y-15608572D01*
X8027143Y-15656191D01*
X8017619Y-15694286D01*
X8008095Y-15713333D01*
X7998571Y-15722857D01*
X7979523Y-15732381D01*
X7960476Y-15732381D01*
X7941428Y-15722857D01*
X7931904Y-15713333D01*
X7922381Y-15694286D01*
X7912857Y-15656191D01*
X7912857Y-15608572D01*
X7922381Y-15570476D01*
X7931904Y-15551429D01*
X7941428Y-15541905D01*
X7960476Y-15532381D01*
X8112857Y-15732381D02*
X8112857Y-15599048D01*
X8112857Y-15618095D02*
X8122381Y-15608572D01*
X8141428Y-15599048D01*
X8170000Y-15599048D01*
X8189047Y-15608572D01*
X8198571Y-15627619D01*
X8198571Y-15732381D01*
X8198571Y-15627619D02*
X8208095Y-15608572D01*
X8227143Y-15599048D01*
X8255714Y-15599048D01*
X8274762Y-15608572D01*
X8284285Y-15627619D01*
X8284285Y-15732381D01*
X8379523Y-15732381D02*
X8379523Y-15599048D01*
X8379523Y-15618095D02*
X8389047Y-15608572D01*
X8408095Y-15599048D01*
X8436666Y-15599048D01*
X8455714Y-15608572D01*
X8465238Y-15627619D01*
X8465238Y-15732381D01*
X8465238Y-15627619D02*
X8474762Y-15608572D01*
X8493809Y-15599048D01*
X8522381Y-15599048D01*
X8541428Y-15608572D01*
X8550952Y-15627619D01*
X8550952Y-15732381D01*
X8941428Y-15522857D02*
X8770000Y-15780000D01*
X9198571Y-15532381D02*
X9217619Y-15532381D01*
X9236666Y-15541905D01*
X9246190Y-15551429D01*
X9255714Y-15570476D01*
X9265238Y-15608572D01*
X9265238Y-15656191D01*
X9255714Y-15694286D01*
X9246190Y-15713333D01*
X9236666Y-15722857D01*
X9217619Y-15732381D01*
X9198571Y-15732381D01*
X9179524Y-15722857D01*
X9170000Y-15713333D01*
X9160476Y-15694286D01*
X9150952Y-15656191D01*
X9150952Y-15608572D01*
X9160476Y-15570476D01*
X9170000Y-15551429D01*
X9179524Y-15541905D01*
X9198571Y-15532381D01*
X9350952Y-15713333D02*
X9360476Y-15722857D01*
X9350952Y-15732381D01*
X9341428Y-15722857D01*
X9350952Y-15713333D01*
X9350952Y-15732381D01*
X9484285Y-15532381D02*
X9503333Y-15532381D01*
X9522381Y-15541905D01*
X9531905Y-15551429D01*
X9541428Y-15570476D01*
X9550952Y-15608572D01*
X9550952Y-15656191D01*
X9541428Y-15694286D01*
X9531905Y-15713333D01*
X9522381Y-15722857D01*
X9503333Y-15732381D01*
X9484285Y-15732381D01*
X9465238Y-15722857D01*
X9455714Y-15713333D01*
X9446190Y-15694286D01*
X9436666Y-15656191D01*
X9436666Y-15608572D01*
X9446190Y-15570476D01*
X9455714Y-15551429D01*
X9465238Y-15541905D01*
X9484285Y-15532381D01*
X9741428Y-15732381D02*
X9627143Y-15732381D01*
X9684285Y-15732381D02*
X9684285Y-15532381D01*
X9665238Y-15560953D01*
X9646190Y-15580000D01*
X9627143Y-15589524D01*
X9931905Y-15732381D02*
X9817619Y-15732381D01*
X9874762Y-15732381D02*
X9874762Y-15532381D01*
X9855714Y-15560953D01*
X9836666Y-15580000D01*
X9817619Y-15589524D01*
X10046190Y-15618095D02*
X10027143Y-15608572D01*
X10017619Y-15599048D01*
X10008095Y-15580000D01*
X10008095Y-15570476D01*
X10017619Y-15551429D01*
X10027143Y-15541905D01*
X10046190Y-15532381D01*
X10084285Y-15532381D01*
X10103333Y-15541905D01*
X10112857Y-15551429D01*
X10122381Y-15570476D01*
X10122381Y-15580000D01*
X10112857Y-15599048D01*
X10103333Y-15608572D01*
X10084285Y-15618095D01*
X10046190Y-15618095D01*
X10027143Y-15627619D01*
X10017619Y-15637143D01*
X10008095Y-15656191D01*
X10008095Y-15694286D01*
X10017619Y-15713333D01*
X10027143Y-15722857D01*
X10046190Y-15732381D01*
X10084285Y-15732381D01*
X10103333Y-15722857D01*
X10112857Y-15713333D01*
X10122381Y-15694286D01*
X10122381Y-15656191D01*
X10112857Y-15637143D01*
X10103333Y-15627619D01*
X10084285Y-15618095D01*
X10198571Y-15532381D02*
X10198571Y-15570476D01*
X10274762Y-15532381D02*
X10274762Y-15570476D01*
X10570000Y-15808572D02*
X10560476Y-15799048D01*
X10541428Y-15770476D01*
X10531905Y-15751429D01*
X10522381Y-15722857D01*
X10512857Y-15675238D01*
X10512857Y-15637143D01*
X10522381Y-15589524D01*
X10531905Y-15560953D01*
X10541428Y-15541905D01*
X10560476Y-15513333D01*
X10570000Y-15503810D01*
X10627143Y-15532381D02*
X10750952Y-15532381D01*
X10684285Y-15608572D01*
X10712857Y-15608572D01*
X10731905Y-15618095D01*
X10741428Y-15627619D01*
X10750952Y-15646667D01*
X10750952Y-15694286D01*
X10741428Y-15713333D01*
X10731905Y-15722857D01*
X10712857Y-15732381D01*
X10655714Y-15732381D01*
X10636666Y-15722857D01*
X10627143Y-15713333D01*
X10846190Y-15732381D02*
X10884285Y-15732381D01*
X10903333Y-15722857D01*
X10912857Y-15713333D01*
X10931905Y-15684762D01*
X10941428Y-15646667D01*
X10941428Y-15570476D01*
X10931905Y-15551429D01*
X10922381Y-15541905D01*
X10903333Y-15532381D01*
X10865238Y-15532381D01*
X10846190Y-15541905D01*
X10836666Y-15551429D01*
X10827143Y-15570476D01*
X10827143Y-15618095D01*
X10836666Y-15637143D01*
X10846190Y-15646667D01*
X10865238Y-15656191D01*
X10903333Y-15656191D01*
X10922381Y-15646667D01*
X10931905Y-15637143D01*
X10941428Y-15618095D01*
X11179524Y-15732381D02*
X11179524Y-15532381D01*
X11265238Y-15732381D02*
X11265238Y-15627619D01*
X11255714Y-15608572D01*
X11236666Y-15599048D01*
X11208095Y-15599048D01*
X11189047Y-15608572D01*
X11179524Y-15618095D01*
X11389047Y-15732381D02*
X11370000Y-15722857D01*
X11360476Y-15713333D01*
X11350952Y-15694286D01*
X11350952Y-15637143D01*
X11360476Y-15618095D01*
X11370000Y-15608572D01*
X11389047Y-15599048D01*
X11417619Y-15599048D01*
X11436666Y-15608572D01*
X11446190Y-15618095D01*
X11455714Y-15637143D01*
X11455714Y-15694286D01*
X11446190Y-15713333D01*
X11436666Y-15722857D01*
X11417619Y-15732381D01*
X11389047Y-15732381D01*
X11570000Y-15732381D02*
X11550952Y-15722857D01*
X11541428Y-15703810D01*
X11541428Y-15532381D01*
X11722381Y-15722857D02*
X11703333Y-15732381D01*
X11665238Y-15732381D01*
X11646190Y-15722857D01*
X11636666Y-15703810D01*
X11636666Y-15627619D01*
X11646190Y-15608572D01*
X11665238Y-15599048D01*
X11703333Y-15599048D01*
X11722381Y-15608572D01*
X11731904Y-15627619D01*
X11731904Y-15646667D01*
X11636666Y-15665714D01*
X11808095Y-15722857D02*
X11827143Y-15732381D01*
X11865238Y-15732381D01*
X11884285Y-15722857D01*
X11893809Y-15703810D01*
X11893809Y-15694286D01*
X11884285Y-15675238D01*
X11865238Y-15665714D01*
X11836666Y-15665714D01*
X11817619Y-15656191D01*
X11808095Y-15637143D01*
X11808095Y-15627619D01*
X11817619Y-15608572D01*
X11836666Y-15599048D01*
X11865238Y-15599048D01*
X11884285Y-15608572D01*
X11960476Y-15808572D02*
X11970000Y-15799048D01*
X11989047Y-15770476D01*
X11998571Y-15751429D01*
X12008095Y-15722857D01*
X12017619Y-15675238D01*
X12017619Y-15637143D01*
X12008095Y-15589524D01*
X11998571Y-15560953D01*
X11989047Y-15541905D01*
X11970000Y-15513333D01*
X11960476Y-15503810D01*
D13*
X6998095Y-15905905D02*
G75*
G03*
X6998095Y-15905905I-25000J0D01*
G01*
D11*
X7293809Y-15796381D02*
X7312857Y-15796381D01*
X7331904Y-15805905D01*
X7341428Y-15815429D01*
X7350952Y-15834476D01*
X7360476Y-15872572D01*
X7360476Y-15920191D01*
X7350952Y-15958286D01*
X7341428Y-15977333D01*
X7331904Y-15986857D01*
X7312857Y-15996381D01*
X7293809Y-15996381D01*
X7274762Y-15986857D01*
X7265238Y-15977333D01*
X7255714Y-15958286D01*
X7246190Y-15920191D01*
X7246190Y-15872572D01*
X7255714Y-15834476D01*
X7265238Y-15815429D01*
X7274762Y-15805905D01*
X7293809Y-15796381D01*
X7446190Y-15977333D02*
X7455714Y-15986857D01*
X7446190Y-15996381D01*
X7436666Y-15986857D01*
X7446190Y-15977333D01*
X7446190Y-15996381D01*
X7636666Y-15796381D02*
X7541428Y-15796381D01*
X7531904Y-15891619D01*
X7541428Y-15882095D01*
X7560476Y-15872572D01*
X7608095Y-15872572D01*
X7627143Y-15882095D01*
X7636666Y-15891619D01*
X7646190Y-15910667D01*
X7646190Y-15958286D01*
X7636666Y-15977333D01*
X7627143Y-15986857D01*
X7608095Y-15996381D01*
X7560476Y-15996381D01*
X7541428Y-15986857D01*
X7531904Y-15977333D01*
X7770000Y-15796381D02*
X7789047Y-15796381D01*
X7808095Y-15805905D01*
X7817619Y-15815429D01*
X7827143Y-15834476D01*
X7836666Y-15872572D01*
X7836666Y-15920191D01*
X7827143Y-15958286D01*
X7817619Y-15977333D01*
X7808095Y-15986857D01*
X7789047Y-15996381D01*
X7770000Y-15996381D01*
X7750952Y-15986857D01*
X7741428Y-15977333D01*
X7731904Y-15958286D01*
X7722381Y-15920191D01*
X7722381Y-15872572D01*
X7731904Y-15834476D01*
X7741428Y-15815429D01*
X7750952Y-15805905D01*
X7770000Y-15796381D01*
X7960476Y-15796381D02*
X7979523Y-15796381D01*
X7998571Y-15805905D01*
X8008095Y-15815429D01*
X8017619Y-15834476D01*
X8027143Y-15872572D01*
X8027143Y-15920191D01*
X8017619Y-15958286D01*
X8008095Y-15977333D01*
X7998571Y-15986857D01*
X7979523Y-15996381D01*
X7960476Y-15996381D01*
X7941428Y-15986857D01*
X7931904Y-15977333D01*
X7922381Y-15958286D01*
X7912857Y-15920191D01*
X7912857Y-15872572D01*
X7922381Y-15834476D01*
X7931904Y-15815429D01*
X7941428Y-15805905D01*
X7960476Y-15796381D01*
X8112857Y-15996381D02*
X8112857Y-15863048D01*
X8112857Y-15882095D02*
X8122381Y-15872572D01*
X8141428Y-15863048D01*
X8170000Y-15863048D01*
X8189047Y-15872572D01*
X8198571Y-15891619D01*
X8198571Y-15996381D01*
X8198571Y-15891619D02*
X8208095Y-15872572D01*
X8227143Y-15863048D01*
X8255714Y-15863048D01*
X8274762Y-15872572D01*
X8284285Y-15891619D01*
X8284285Y-15996381D01*
X8379523Y-15996381D02*
X8379523Y-15863048D01*
X8379523Y-15882095D02*
X8389047Y-15872572D01*
X8408095Y-15863048D01*
X8436666Y-15863048D01*
X8455714Y-15872572D01*
X8465238Y-15891619D01*
X8465238Y-15996381D01*
X8465238Y-15891619D02*
X8474762Y-15872572D01*
X8493809Y-15863048D01*
X8522381Y-15863048D01*
X8541428Y-15872572D01*
X8550952Y-15891619D01*
X8550952Y-15996381D01*
X8941428Y-15786857D02*
X8770000Y-16044000D01*
X9198571Y-15796381D02*
X9217619Y-15796381D01*
X9236666Y-15805905D01*
X9246190Y-15815429D01*
X9255714Y-15834476D01*
X9265238Y-15872572D01*
X9265238Y-15920191D01*
X9255714Y-15958286D01*
X9246190Y-15977333D01*
X9236666Y-15986857D01*
X9217619Y-15996381D01*
X9198571Y-15996381D01*
X9179524Y-15986857D01*
X9170000Y-15977333D01*
X9160476Y-15958286D01*
X9150952Y-15920191D01*
X9150952Y-15872572D01*
X9160476Y-15834476D01*
X9170000Y-15815429D01*
X9179524Y-15805905D01*
X9198571Y-15796381D01*
X9350952Y-15977333D02*
X9360476Y-15986857D01*
X9350952Y-15996381D01*
X9341428Y-15986857D01*
X9350952Y-15977333D01*
X9350952Y-15996381D01*
X9484285Y-15796381D02*
X9503333Y-15796381D01*
X9522381Y-15805905D01*
X9531905Y-15815429D01*
X9541428Y-15834476D01*
X9550952Y-15872572D01*
X9550952Y-15920191D01*
X9541428Y-15958286D01*
X9531905Y-15977333D01*
X9522381Y-15986857D01*
X9503333Y-15996381D01*
X9484285Y-15996381D01*
X9465238Y-15986857D01*
X9455714Y-15977333D01*
X9446190Y-15958286D01*
X9436666Y-15920191D01*
X9436666Y-15872572D01*
X9446190Y-15834476D01*
X9455714Y-15815429D01*
X9465238Y-15805905D01*
X9484285Y-15796381D01*
X9741428Y-15996381D02*
X9627143Y-15996381D01*
X9684285Y-15996381D02*
X9684285Y-15796381D01*
X9665238Y-15824953D01*
X9646190Y-15844000D01*
X9627143Y-15853524D01*
X9836666Y-15996381D02*
X9874762Y-15996381D01*
X9893809Y-15986857D01*
X9903333Y-15977333D01*
X9922381Y-15948762D01*
X9931905Y-15910667D01*
X9931905Y-15834476D01*
X9922381Y-15815429D01*
X9912857Y-15805905D01*
X9893809Y-15796381D01*
X9855714Y-15796381D01*
X9836666Y-15805905D01*
X9827143Y-15815429D01*
X9817619Y-15834476D01*
X9817619Y-15882095D01*
X9827143Y-15901143D01*
X9836666Y-15910667D01*
X9855714Y-15920191D01*
X9893809Y-15920191D01*
X9912857Y-15910667D01*
X9922381Y-15901143D01*
X9931905Y-15882095D01*
X9998571Y-15796381D02*
X10131905Y-15796381D01*
X10046190Y-15996381D01*
X10198571Y-15796381D02*
X10198571Y-15834476D01*
X10274762Y-15796381D02*
X10274762Y-15834476D01*
X10570000Y-16072572D02*
X10560476Y-16063048D01*
X10541428Y-16034476D01*
X10531905Y-16015429D01*
X10522381Y-15986857D01*
X10512857Y-15939238D01*
X10512857Y-15901143D01*
X10522381Y-15853524D01*
X10531905Y-15824953D01*
X10541428Y-15805905D01*
X10560476Y-15777333D01*
X10570000Y-15767810D01*
X10674762Y-15882095D02*
X10655714Y-15872572D01*
X10646190Y-15863048D01*
X10636666Y-15844000D01*
X10636666Y-15834476D01*
X10646190Y-15815429D01*
X10655714Y-15805905D01*
X10674762Y-15796381D01*
X10712857Y-15796381D01*
X10731905Y-15805905D01*
X10741428Y-15815429D01*
X10750952Y-15834476D01*
X10750952Y-15844000D01*
X10741428Y-15863048D01*
X10731905Y-15872572D01*
X10712857Y-15882095D01*
X10674762Y-15882095D01*
X10655714Y-15891619D01*
X10646190Y-15901143D01*
X10636666Y-15920191D01*
X10636666Y-15958286D01*
X10646190Y-15977333D01*
X10655714Y-15986857D01*
X10674762Y-15996381D01*
X10712857Y-15996381D01*
X10731905Y-15986857D01*
X10741428Y-15977333D01*
X10750952Y-15958286D01*
X10750952Y-15920191D01*
X10741428Y-15901143D01*
X10731905Y-15891619D01*
X10712857Y-15882095D01*
X10989047Y-15996381D02*
X10989047Y-15796381D01*
X11074762Y-15996381D02*
X11074762Y-15891619D01*
X11065238Y-15872572D01*
X11046190Y-15863048D01*
X11017619Y-15863048D01*
X10998571Y-15872572D01*
X10989047Y-15882095D01*
X11198571Y-15996381D02*
X11179524Y-15986857D01*
X11170000Y-15977333D01*
X11160476Y-15958286D01*
X11160476Y-15901143D01*
X11170000Y-15882095D01*
X11179524Y-15872572D01*
X11198571Y-15863048D01*
X11227143Y-15863048D01*
X11246190Y-15872572D01*
X11255714Y-15882095D01*
X11265238Y-15901143D01*
X11265238Y-15958286D01*
X11255714Y-15977333D01*
X11246190Y-15986857D01*
X11227143Y-15996381D01*
X11198571Y-15996381D01*
X11379523Y-15996381D02*
X11360476Y-15986857D01*
X11350952Y-15967810D01*
X11350952Y-15796381D01*
X11531904Y-15986857D02*
X11512857Y-15996381D01*
X11474762Y-15996381D01*
X11455714Y-15986857D01*
X11446190Y-15967810D01*
X11446190Y-15891619D01*
X11455714Y-15872572D01*
X11474762Y-15863048D01*
X11512857Y-15863048D01*
X11531904Y-15872572D01*
X11541428Y-15891619D01*
X11541428Y-15910667D01*
X11446190Y-15929714D01*
X11617619Y-15986857D02*
X11636666Y-15996381D01*
X11674762Y-15996381D01*
X11693809Y-15986857D01*
X11703333Y-15967810D01*
X11703333Y-15958286D01*
X11693809Y-15939238D01*
X11674762Y-15929714D01*
X11646190Y-15929714D01*
X11627143Y-15920191D01*
X11617619Y-15901143D01*
X11617619Y-15891619D01*
X11627143Y-15872572D01*
X11646190Y-15863048D01*
X11674762Y-15863048D01*
X11693809Y-15872572D01*
X11770000Y-16072572D02*
X11779523Y-16063048D01*
X11798571Y-16034476D01*
X11808095Y-16015429D01*
X11817619Y-15986857D01*
X11827143Y-15939238D01*
X11827143Y-15901143D01*
X11817619Y-15853524D01*
X11808095Y-15824953D01*
X11798571Y-15805905D01*
X11779523Y-15777333D01*
X11770000Y-15767810D01*
D14*
X6948095Y-16119905D02*
X6948095Y-16219905D01*
X6898095Y-16169905D02*
X6998095Y-16169905D01*
D11*
X7360476Y-16260381D02*
X7246190Y-16260381D01*
X7303333Y-16260381D02*
X7303333Y-16060381D01*
X7284285Y-16088953D01*
X7265238Y-16108000D01*
X7246190Y-16117524D01*
X7446190Y-16241333D02*
X7455714Y-16250857D01*
X7446190Y-16260381D01*
X7436666Y-16250857D01*
X7446190Y-16241333D01*
X7446190Y-16260381D01*
X7579523Y-16060381D02*
X7598571Y-16060381D01*
X7617619Y-16069905D01*
X7627143Y-16079429D01*
X7636666Y-16098476D01*
X7646190Y-16136572D01*
X7646190Y-16184191D01*
X7636666Y-16222286D01*
X7627143Y-16241333D01*
X7617619Y-16250857D01*
X7598571Y-16260381D01*
X7579523Y-16260381D01*
X7560476Y-16250857D01*
X7550952Y-16241333D01*
X7541428Y-16222286D01*
X7531904Y-16184191D01*
X7531904Y-16136572D01*
X7541428Y-16098476D01*
X7550952Y-16079429D01*
X7560476Y-16069905D01*
X7579523Y-16060381D01*
X7770000Y-16060381D02*
X7789047Y-16060381D01*
X7808095Y-16069905D01*
X7817619Y-16079429D01*
X7827143Y-16098476D01*
X7836666Y-16136572D01*
X7836666Y-16184191D01*
X7827143Y-16222286D01*
X7817619Y-16241333D01*
X7808095Y-16250857D01*
X7789047Y-16260381D01*
X7770000Y-16260381D01*
X7750952Y-16250857D01*
X7741428Y-16241333D01*
X7731904Y-16222286D01*
X7722381Y-16184191D01*
X7722381Y-16136572D01*
X7731904Y-16098476D01*
X7741428Y-16079429D01*
X7750952Y-16069905D01*
X7770000Y-16060381D01*
X7960476Y-16060381D02*
X7979523Y-16060381D01*
X7998571Y-16069905D01*
X8008095Y-16079429D01*
X8017619Y-16098476D01*
X8027143Y-16136572D01*
X8027143Y-16184191D01*
X8017619Y-16222286D01*
X8008095Y-16241333D01*
X7998571Y-16250857D01*
X7979523Y-16260381D01*
X7960476Y-16260381D01*
X7941428Y-16250857D01*
X7931904Y-16241333D01*
X7922381Y-16222286D01*
X7912857Y-16184191D01*
X7912857Y-16136572D01*
X7922381Y-16098476D01*
X7931904Y-16079429D01*
X7941428Y-16069905D01*
X7960476Y-16060381D01*
X8112857Y-16260381D02*
X8112857Y-16127048D01*
X8112857Y-16146095D02*
X8122381Y-16136572D01*
X8141428Y-16127048D01*
X8170000Y-16127048D01*
X8189047Y-16136572D01*
X8198571Y-16155619D01*
X8198571Y-16260381D01*
X8198571Y-16155619D02*
X8208095Y-16136572D01*
X8227143Y-16127048D01*
X8255714Y-16127048D01*
X8274762Y-16136572D01*
X8284285Y-16155619D01*
X8284285Y-16260381D01*
X8379523Y-16260381D02*
X8379523Y-16127048D01*
X8379523Y-16146095D02*
X8389047Y-16136572D01*
X8408095Y-16127048D01*
X8436666Y-16127048D01*
X8455714Y-16136572D01*
X8465238Y-16155619D01*
X8465238Y-16260381D01*
X8465238Y-16155619D02*
X8474762Y-16136572D01*
X8493809Y-16127048D01*
X8522381Y-16127048D01*
X8541428Y-16136572D01*
X8550952Y-16155619D01*
X8550952Y-16260381D01*
X8941428Y-16050857D02*
X8770000Y-16308000D01*
X9198571Y-16060381D02*
X9217619Y-16060381D01*
X9236666Y-16069905D01*
X9246190Y-16079429D01*
X9255714Y-16098476D01*
X9265238Y-16136572D01*
X9265238Y-16184191D01*
X9255714Y-16222286D01*
X9246190Y-16241333D01*
X9236666Y-16250857D01*
X9217619Y-16260381D01*
X9198571Y-16260381D01*
X9179524Y-16250857D01*
X9170000Y-16241333D01*
X9160476Y-16222286D01*
X9150952Y-16184191D01*
X9150952Y-16136572D01*
X9160476Y-16098476D01*
X9170000Y-16079429D01*
X9179524Y-16069905D01*
X9198571Y-16060381D01*
X9350952Y-16241333D02*
X9360476Y-16250857D01*
X9350952Y-16260381D01*
X9341428Y-16250857D01*
X9350952Y-16241333D01*
X9350952Y-16260381D01*
X9484285Y-16060381D02*
X9503333Y-16060381D01*
X9522381Y-16069905D01*
X9531905Y-16079429D01*
X9541428Y-16098476D01*
X9550952Y-16136572D01*
X9550952Y-16184191D01*
X9541428Y-16222286D01*
X9531905Y-16241333D01*
X9522381Y-16250857D01*
X9503333Y-16260381D01*
X9484285Y-16260381D01*
X9465238Y-16250857D01*
X9455714Y-16241333D01*
X9446190Y-16222286D01*
X9436666Y-16184191D01*
X9436666Y-16136572D01*
X9446190Y-16098476D01*
X9455714Y-16079429D01*
X9465238Y-16069905D01*
X9484285Y-16060381D01*
X9617619Y-16060381D02*
X9741428Y-16060381D01*
X9674762Y-16136572D01*
X9703333Y-16136572D01*
X9722381Y-16146095D01*
X9731905Y-16155619D01*
X9741428Y-16174667D01*
X9741428Y-16222286D01*
X9731905Y-16241333D01*
X9722381Y-16250857D01*
X9703333Y-16260381D01*
X9646190Y-16260381D01*
X9627143Y-16250857D01*
X9617619Y-16241333D01*
X9836666Y-16260381D02*
X9874762Y-16260381D01*
X9893809Y-16250857D01*
X9903333Y-16241333D01*
X9922381Y-16212762D01*
X9931905Y-16174667D01*
X9931905Y-16098476D01*
X9922381Y-16079429D01*
X9912857Y-16069905D01*
X9893809Y-16060381D01*
X9855714Y-16060381D01*
X9836666Y-16069905D01*
X9827143Y-16079429D01*
X9817619Y-16098476D01*
X9817619Y-16146095D01*
X9827143Y-16165143D01*
X9836666Y-16174667D01*
X9855714Y-16184191D01*
X9893809Y-16184191D01*
X9912857Y-16174667D01*
X9922381Y-16165143D01*
X9931905Y-16146095D01*
X10103333Y-16127048D02*
X10103333Y-16260381D01*
X10055714Y-16050857D02*
X10008095Y-16193714D01*
X10131905Y-16193714D01*
X10198571Y-16060381D02*
X10198571Y-16098476D01*
X10274762Y-16060381D02*
X10274762Y-16098476D01*
X10570000Y-16336572D02*
X10560476Y-16327048D01*
X10541428Y-16298476D01*
X10531905Y-16279429D01*
X10522381Y-16250857D01*
X10512857Y-16203238D01*
X10512857Y-16165143D01*
X10522381Y-16117524D01*
X10531905Y-16088953D01*
X10541428Y-16069905D01*
X10560476Y-16041333D01*
X10570000Y-16031810D01*
X10684285Y-16060381D02*
X10703333Y-16060381D01*
X10722381Y-16069905D01*
X10731905Y-16079429D01*
X10741428Y-16098476D01*
X10750952Y-16136572D01*
X10750952Y-16184191D01*
X10741428Y-16222286D01*
X10731905Y-16241333D01*
X10722381Y-16250857D01*
X10703333Y-16260381D01*
X10684285Y-16260381D01*
X10665238Y-16250857D01*
X10655714Y-16241333D01*
X10646190Y-16222286D01*
X10636666Y-16184191D01*
X10636666Y-16136572D01*
X10646190Y-16098476D01*
X10655714Y-16079429D01*
X10665238Y-16069905D01*
X10684285Y-16060381D01*
X10989047Y-16260381D02*
X10989047Y-16060381D01*
X11074762Y-16260381D02*
X11074762Y-16155619D01*
X11065238Y-16136572D01*
X11046190Y-16127048D01*
X11017619Y-16127048D01*
X10998571Y-16136572D01*
X10989047Y-16146095D01*
X11198571Y-16260381D02*
X11179524Y-16250857D01*
X11170000Y-16241333D01*
X11160476Y-16222286D01*
X11160476Y-16165143D01*
X11170000Y-16146095D01*
X11179524Y-16136572D01*
X11198571Y-16127048D01*
X11227143Y-16127048D01*
X11246190Y-16136572D01*
X11255714Y-16146095D01*
X11265238Y-16165143D01*
X11265238Y-16222286D01*
X11255714Y-16241333D01*
X11246190Y-16250857D01*
X11227143Y-16260381D01*
X11198571Y-16260381D01*
X11379523Y-16260381D02*
X11360476Y-16250857D01*
X11350952Y-16231810D01*
X11350952Y-16060381D01*
X11531904Y-16250857D02*
X11512857Y-16260381D01*
X11474762Y-16260381D01*
X11455714Y-16250857D01*
X11446190Y-16231810D01*
X11446190Y-16155619D01*
X11455714Y-16136572D01*
X11474762Y-16127048D01*
X11512857Y-16127048D01*
X11531904Y-16136572D01*
X11541428Y-16155619D01*
X11541428Y-16174667D01*
X11446190Y-16193714D01*
X11617619Y-16250857D02*
X11636666Y-16260381D01*
X11674762Y-16260381D01*
X11693809Y-16250857D01*
X11703333Y-16231810D01*
X11703333Y-16222286D01*
X11693809Y-16203238D01*
X11674762Y-16193714D01*
X11646190Y-16193714D01*
X11627143Y-16184191D01*
X11617619Y-16165143D01*
X11617619Y-16155619D01*
X11627143Y-16136572D01*
X11646190Y-16127048D01*
X11674762Y-16127048D01*
X11693809Y-16136572D01*
X11941428Y-16184191D02*
X12093809Y-16184191D01*
X12017619Y-16260381D02*
X12017619Y-16108000D01*
X12322381Y-16060381D02*
X12446190Y-16060381D01*
X12379523Y-16136572D01*
X12408095Y-16136572D01*
X12427143Y-16146095D01*
X12436666Y-16155619D01*
X12446190Y-16174667D01*
X12446190Y-16222286D01*
X12436666Y-16241333D01*
X12427143Y-16250857D01*
X12408095Y-16260381D01*
X12350952Y-16260381D01*
X12331904Y-16250857D01*
X12322381Y-16241333D01*
X12674762Y-16250857D02*
X12693809Y-16260381D01*
X12731904Y-16260381D01*
X12750952Y-16250857D01*
X12760476Y-16231810D01*
X12760476Y-16222286D01*
X12750952Y-16203238D01*
X12731904Y-16193714D01*
X12703333Y-16193714D01*
X12684285Y-16184191D01*
X12674762Y-16165143D01*
X12674762Y-16155619D01*
X12684285Y-16136572D01*
X12703333Y-16127048D01*
X12731904Y-16127048D01*
X12750952Y-16136572D01*
X12874762Y-16260381D02*
X12855714Y-16250857D01*
X12846190Y-16231810D01*
X12846190Y-16060381D01*
X12979523Y-16260381D02*
X12960476Y-16250857D01*
X12950952Y-16241333D01*
X12941428Y-16222286D01*
X12941428Y-16165143D01*
X12950952Y-16146095D01*
X12960476Y-16136572D01*
X12979523Y-16127048D01*
X13008095Y-16127048D01*
X13027143Y-16136572D01*
X13036666Y-16146095D01*
X13046190Y-16165143D01*
X13046190Y-16222286D01*
X13036666Y-16241333D01*
X13027143Y-16250857D01*
X13008095Y-16260381D01*
X12979523Y-16260381D01*
X13103333Y-16127048D02*
X13179523Y-16127048D01*
X13131904Y-16060381D02*
X13131904Y-16231810D01*
X13141428Y-16250857D01*
X13160476Y-16260381D01*
X13179523Y-16260381D01*
X13236666Y-16250857D02*
X13255714Y-16260381D01*
X13293809Y-16260381D01*
X13312857Y-16250857D01*
X13322381Y-16231810D01*
X13322381Y-16222286D01*
X13312857Y-16203238D01*
X13293809Y-16193714D01*
X13265238Y-16193714D01*
X13246190Y-16184191D01*
X13236666Y-16165143D01*
X13236666Y-16155619D01*
X13246190Y-16136572D01*
X13265238Y-16127048D01*
X13293809Y-16127048D01*
X13312857Y-16136572D01*
X13389047Y-16336572D02*
X13398571Y-16327048D01*
X13417619Y-16298476D01*
X13427143Y-16279429D01*
X13436666Y-16250857D01*
X13446190Y-16203238D01*
X13446190Y-16165143D01*
X13436666Y-16117524D01*
X13427143Y-16088953D01*
X13417619Y-16069905D01*
X13398571Y-16041333D01*
X13389047Y-16031810D01*
D15*
X6983158Y-16469968D02*
X6983158Y-16397842D01*
X6911032Y-16397842D01*
X6911032Y-16469968D01*
X6983158Y-16469968D01*
D11*
X7360476Y-16524381D02*
X7246190Y-16524381D01*
X7303333Y-16524381D02*
X7303333Y-16324381D01*
X7284285Y-16352953D01*
X7265238Y-16372000D01*
X7246190Y-16381524D01*
X7446190Y-16505333D02*
X7455714Y-16514857D01*
X7446190Y-16524381D01*
X7436666Y-16514857D01*
X7446190Y-16505333D01*
X7446190Y-16524381D01*
X7579523Y-16324381D02*
X7598571Y-16324381D01*
X7617619Y-16333905D01*
X7627143Y-16343429D01*
X7636666Y-16362476D01*
X7646190Y-16400572D01*
X7646190Y-16448191D01*
X7636666Y-16486286D01*
X7627143Y-16505333D01*
X7617619Y-16514857D01*
X7598571Y-16524381D01*
X7579523Y-16524381D01*
X7560476Y-16514857D01*
X7550952Y-16505333D01*
X7541428Y-16486286D01*
X7531904Y-16448191D01*
X7531904Y-16400572D01*
X7541428Y-16362476D01*
X7550952Y-16343429D01*
X7560476Y-16333905D01*
X7579523Y-16324381D01*
X7722381Y-16343429D02*
X7731904Y-16333905D01*
X7750952Y-16324381D01*
X7798571Y-16324381D01*
X7817619Y-16333905D01*
X7827143Y-16343429D01*
X7836666Y-16362476D01*
X7836666Y-16381524D01*
X7827143Y-16410095D01*
X7712857Y-16524381D01*
X7836666Y-16524381D01*
X7960476Y-16324381D02*
X7979523Y-16324381D01*
X7998571Y-16333905D01*
X8008095Y-16343429D01*
X8017619Y-16362476D01*
X8027143Y-16400572D01*
X8027143Y-16448191D01*
X8017619Y-16486286D01*
X8008095Y-16505333D01*
X7998571Y-16514857D01*
X7979523Y-16524381D01*
X7960476Y-16524381D01*
X7941428Y-16514857D01*
X7931904Y-16505333D01*
X7922381Y-16486286D01*
X7912857Y-16448191D01*
X7912857Y-16400572D01*
X7922381Y-16362476D01*
X7931904Y-16343429D01*
X7941428Y-16333905D01*
X7960476Y-16324381D01*
X8112857Y-16524381D02*
X8112857Y-16391048D01*
X8112857Y-16410095D02*
X8122381Y-16400572D01*
X8141428Y-16391048D01*
X8170000Y-16391048D01*
X8189047Y-16400572D01*
X8198571Y-16419619D01*
X8198571Y-16524381D01*
X8198571Y-16419619D02*
X8208095Y-16400572D01*
X8227143Y-16391048D01*
X8255714Y-16391048D01*
X8274762Y-16400572D01*
X8284285Y-16419619D01*
X8284285Y-16524381D01*
X8379523Y-16524381D02*
X8379523Y-16391048D01*
X8379523Y-16410095D02*
X8389047Y-16400572D01*
X8408095Y-16391048D01*
X8436666Y-16391048D01*
X8455714Y-16400572D01*
X8465238Y-16419619D01*
X8465238Y-16524381D01*
X8465238Y-16419619D02*
X8474762Y-16400572D01*
X8493809Y-16391048D01*
X8522381Y-16391048D01*
X8541428Y-16400572D01*
X8550952Y-16419619D01*
X8550952Y-16524381D01*
X8941428Y-16314857D02*
X8770000Y-16572000D01*
X9198571Y-16324381D02*
X9217619Y-16324381D01*
X9236666Y-16333905D01*
X9246190Y-16343429D01*
X9255714Y-16362476D01*
X9265238Y-16400572D01*
X9265238Y-16448191D01*
X9255714Y-16486286D01*
X9246190Y-16505333D01*
X9236666Y-16514857D01*
X9217619Y-16524381D01*
X9198571Y-16524381D01*
X9179524Y-16514857D01*
X9170000Y-16505333D01*
X9160476Y-16486286D01*
X9150952Y-16448191D01*
X9150952Y-16400572D01*
X9160476Y-16362476D01*
X9170000Y-16343429D01*
X9179524Y-16333905D01*
X9198571Y-16324381D01*
X9350952Y-16505333D02*
X9360476Y-16514857D01*
X9350952Y-16524381D01*
X9341428Y-16514857D01*
X9350952Y-16505333D01*
X9350952Y-16524381D01*
X9484285Y-16324381D02*
X9503333Y-16324381D01*
X9522381Y-16333905D01*
X9531905Y-16343429D01*
X9541428Y-16362476D01*
X9550952Y-16400572D01*
X9550952Y-16448191D01*
X9541428Y-16486286D01*
X9531905Y-16505333D01*
X9522381Y-16514857D01*
X9503333Y-16524381D01*
X9484285Y-16524381D01*
X9465238Y-16514857D01*
X9455714Y-16505333D01*
X9446190Y-16486286D01*
X9436666Y-16448191D01*
X9436666Y-16400572D01*
X9446190Y-16362476D01*
X9455714Y-16343429D01*
X9465238Y-16333905D01*
X9484285Y-16324381D01*
X9722381Y-16391048D02*
X9722381Y-16524381D01*
X9674762Y-16314857D02*
X9627143Y-16457714D01*
X9750952Y-16457714D01*
X9865238Y-16324381D02*
X9884285Y-16324381D01*
X9903333Y-16333905D01*
X9912857Y-16343429D01*
X9922381Y-16362476D01*
X9931905Y-16400572D01*
X9931905Y-16448191D01*
X9922381Y-16486286D01*
X9912857Y-16505333D01*
X9903333Y-16514857D01*
X9884285Y-16524381D01*
X9865238Y-16524381D01*
X9846190Y-16514857D01*
X9836666Y-16505333D01*
X9827143Y-16486286D01*
X9817619Y-16448191D01*
X9817619Y-16400572D01*
X9827143Y-16362476D01*
X9836666Y-16343429D01*
X9846190Y-16333905D01*
X9865238Y-16324381D01*
X10008095Y-16343429D02*
X10017619Y-16333905D01*
X10036666Y-16324381D01*
X10084285Y-16324381D01*
X10103333Y-16333905D01*
X10112857Y-16343429D01*
X10122381Y-16362476D01*
X10122381Y-16381524D01*
X10112857Y-16410095D01*
X9998571Y-16524381D01*
X10122381Y-16524381D01*
X10198571Y-16324381D02*
X10198571Y-16362476D01*
X10274762Y-16324381D02*
X10274762Y-16362476D01*
X10570000Y-16600572D02*
X10560476Y-16591048D01*
X10541428Y-16562476D01*
X10531905Y-16543429D01*
X10522381Y-16514857D01*
X10512857Y-16467238D01*
X10512857Y-16429143D01*
X10522381Y-16381524D01*
X10531905Y-16352953D01*
X10541428Y-16333905D01*
X10560476Y-16305333D01*
X10570000Y-16295810D01*
X10627143Y-16324381D02*
X10750952Y-16324381D01*
X10684285Y-16400572D01*
X10712857Y-16400572D01*
X10731905Y-16410095D01*
X10741428Y-16419619D01*
X10750952Y-16438667D01*
X10750952Y-16486286D01*
X10741428Y-16505333D01*
X10731905Y-16514857D01*
X10712857Y-16524381D01*
X10655714Y-16524381D01*
X10636666Y-16514857D01*
X10627143Y-16505333D01*
X10874762Y-16324381D02*
X10893809Y-16324381D01*
X10912857Y-16333905D01*
X10922381Y-16343429D01*
X10931905Y-16362476D01*
X10941428Y-16400572D01*
X10941428Y-16448191D01*
X10931905Y-16486286D01*
X10922381Y-16505333D01*
X10912857Y-16514857D01*
X10893809Y-16524381D01*
X10874762Y-16524381D01*
X10855714Y-16514857D01*
X10846190Y-16505333D01*
X10836666Y-16486286D01*
X10827143Y-16448191D01*
X10827143Y-16400572D01*
X10836666Y-16362476D01*
X10846190Y-16343429D01*
X10855714Y-16333905D01*
X10874762Y-16324381D01*
X11179524Y-16524381D02*
X11179524Y-16324381D01*
X11265238Y-16524381D02*
X11265238Y-16419619D01*
X11255714Y-16400572D01*
X11236666Y-16391048D01*
X11208095Y-16391048D01*
X11189047Y-16400572D01*
X11179524Y-16410095D01*
X11389047Y-16524381D02*
X11370000Y-16514857D01*
X11360476Y-16505333D01*
X11350952Y-16486286D01*
X11350952Y-16429143D01*
X11360476Y-16410095D01*
X11370000Y-16400572D01*
X11389047Y-16391048D01*
X11417619Y-16391048D01*
X11436666Y-16400572D01*
X11446190Y-16410095D01*
X11455714Y-16429143D01*
X11455714Y-16486286D01*
X11446190Y-16505333D01*
X11436666Y-16514857D01*
X11417619Y-16524381D01*
X11389047Y-16524381D01*
X11570000Y-16524381D02*
X11550952Y-16514857D01*
X11541428Y-16495810D01*
X11541428Y-16324381D01*
X11722381Y-16514857D02*
X11703333Y-16524381D01*
X11665238Y-16524381D01*
X11646190Y-16514857D01*
X11636666Y-16495810D01*
X11636666Y-16419619D01*
X11646190Y-16400572D01*
X11665238Y-16391048D01*
X11703333Y-16391048D01*
X11722381Y-16400572D01*
X11731904Y-16419619D01*
X11731904Y-16438667D01*
X11636666Y-16457714D01*
X11808095Y-16514857D02*
X11827143Y-16524381D01*
X11865238Y-16524381D01*
X11884285Y-16514857D01*
X11893809Y-16495810D01*
X11893809Y-16486286D01*
X11884285Y-16467238D01*
X11865238Y-16457714D01*
X11836666Y-16457714D01*
X11817619Y-16448191D01*
X11808095Y-16429143D01*
X11808095Y-16419619D01*
X11817619Y-16400572D01*
X11836666Y-16391048D01*
X11865238Y-16391048D01*
X11884285Y-16400572D01*
X11960476Y-16600572D02*
X11970000Y-16591048D01*
X11989047Y-16562476D01*
X11998571Y-16543429D01*
X12008095Y-16514857D01*
X12017619Y-16467238D01*
X12017619Y-16429143D01*
X12008095Y-16381524D01*
X11998571Y-16352953D01*
X11989047Y-16333905D01*
X11970000Y-16305333D01*
X11960476Y-16295810D01*
D16*
X6938095Y-16757905D02*
X6998095Y-16697905D01*
X6938095Y-16637905D01*
X6878095Y-16697905D01*
X6938095Y-16757905D01*
D11*
X7360476Y-16788381D02*
X7246190Y-16788381D01*
X7303333Y-16788381D02*
X7303333Y-16588381D01*
X7284285Y-16616953D01*
X7265238Y-16636000D01*
X7246190Y-16645524D01*
X7446190Y-16769333D02*
X7455714Y-16778857D01*
X7446190Y-16788381D01*
X7436666Y-16778857D01*
X7446190Y-16769333D01*
X7446190Y-16788381D01*
X7531904Y-16607429D02*
X7541428Y-16597905D01*
X7560476Y-16588381D01*
X7608095Y-16588381D01*
X7627143Y-16597905D01*
X7636666Y-16607429D01*
X7646190Y-16626476D01*
X7646190Y-16645524D01*
X7636666Y-16674095D01*
X7522381Y-16788381D01*
X7646190Y-16788381D01*
X7770000Y-16588381D02*
X7789047Y-16588381D01*
X7808095Y-16597905D01*
X7817619Y-16607429D01*
X7827143Y-16626476D01*
X7836666Y-16664572D01*
X7836666Y-16712191D01*
X7827143Y-16750286D01*
X7817619Y-16769333D01*
X7808095Y-16778857D01*
X7789047Y-16788381D01*
X7770000Y-16788381D01*
X7750952Y-16778857D01*
X7741428Y-16769333D01*
X7731904Y-16750286D01*
X7722381Y-16712191D01*
X7722381Y-16664572D01*
X7731904Y-16626476D01*
X7741428Y-16607429D01*
X7750952Y-16597905D01*
X7770000Y-16588381D01*
X7960476Y-16588381D02*
X7979523Y-16588381D01*
X7998571Y-16597905D01*
X8008095Y-16607429D01*
X8017619Y-16626476D01*
X8027143Y-16664572D01*
X8027143Y-16712191D01*
X8017619Y-16750286D01*
X8008095Y-16769333D01*
X7998571Y-16778857D01*
X7979523Y-16788381D01*
X7960476Y-16788381D01*
X7941428Y-16778857D01*
X7931904Y-16769333D01*
X7922381Y-16750286D01*
X7912857Y-16712191D01*
X7912857Y-16664572D01*
X7922381Y-16626476D01*
X7931904Y-16607429D01*
X7941428Y-16597905D01*
X7960476Y-16588381D01*
X8112857Y-16788381D02*
X8112857Y-16655048D01*
X8112857Y-16674095D02*
X8122381Y-16664572D01*
X8141428Y-16655048D01*
X8170000Y-16655048D01*
X8189047Y-16664572D01*
X8198571Y-16683619D01*
X8198571Y-16788381D01*
X8198571Y-16683619D02*
X8208095Y-16664572D01*
X8227143Y-16655048D01*
X8255714Y-16655048D01*
X8274762Y-16664572D01*
X8284285Y-16683619D01*
X8284285Y-16788381D01*
X8379523Y-16788381D02*
X8379523Y-16655048D01*
X8379523Y-16674095D02*
X8389047Y-16664572D01*
X8408095Y-16655048D01*
X8436666Y-16655048D01*
X8455714Y-16664572D01*
X8465238Y-16683619D01*
X8465238Y-16788381D01*
X8465238Y-16683619D02*
X8474762Y-16664572D01*
X8493809Y-16655048D01*
X8522381Y-16655048D01*
X8541428Y-16664572D01*
X8550952Y-16683619D01*
X8550952Y-16788381D01*
X8941428Y-16578857D02*
X8770000Y-16836000D01*
X9198571Y-16588381D02*
X9217619Y-16588381D01*
X9236666Y-16597905D01*
X9246190Y-16607429D01*
X9255714Y-16626476D01*
X9265238Y-16664572D01*
X9265238Y-16712191D01*
X9255714Y-16750286D01*
X9246190Y-16769333D01*
X9236666Y-16778857D01*
X9217619Y-16788381D01*
X9198571Y-16788381D01*
X9179524Y-16778857D01*
X9170000Y-16769333D01*
X9160476Y-16750286D01*
X9150952Y-16712191D01*
X9150952Y-16664572D01*
X9160476Y-16626476D01*
X9170000Y-16607429D01*
X9179524Y-16597905D01*
X9198571Y-16588381D01*
X9350952Y-16769333D02*
X9360476Y-16778857D01*
X9350952Y-16788381D01*
X9341428Y-16778857D01*
X9350952Y-16769333D01*
X9350952Y-16788381D01*
X9484285Y-16588381D02*
X9503333Y-16588381D01*
X9522381Y-16597905D01*
X9531905Y-16607429D01*
X9541428Y-16626476D01*
X9550952Y-16664572D01*
X9550952Y-16712191D01*
X9541428Y-16750286D01*
X9531905Y-16769333D01*
X9522381Y-16778857D01*
X9503333Y-16788381D01*
X9484285Y-16788381D01*
X9465238Y-16778857D01*
X9455714Y-16769333D01*
X9446190Y-16750286D01*
X9436666Y-16712191D01*
X9436666Y-16664572D01*
X9446190Y-16626476D01*
X9455714Y-16607429D01*
X9465238Y-16597905D01*
X9484285Y-16588381D01*
X9722381Y-16655048D02*
X9722381Y-16788381D01*
X9674762Y-16578857D02*
X9627143Y-16721714D01*
X9750952Y-16721714D01*
X9808095Y-16588381D02*
X9941428Y-16588381D01*
X9855714Y-16788381D01*
X10008095Y-16607429D02*
X10017619Y-16597905D01*
X10036666Y-16588381D01*
X10084285Y-16588381D01*
X10103333Y-16597905D01*
X10112857Y-16607429D01*
X10122381Y-16626476D01*
X10122381Y-16645524D01*
X10112857Y-16674095D01*
X9998571Y-16788381D01*
X10122381Y-16788381D01*
X10198571Y-16588381D02*
X10198571Y-16626476D01*
X10274762Y-16588381D02*
X10274762Y-16626476D01*
X10570000Y-16864572D02*
X10560476Y-16855048D01*
X10541428Y-16826476D01*
X10531905Y-16807429D01*
X10522381Y-16778857D01*
X10512857Y-16731238D01*
X10512857Y-16693143D01*
X10522381Y-16645524D01*
X10531905Y-16616953D01*
X10541428Y-16597905D01*
X10560476Y-16569333D01*
X10570000Y-16559810D01*
X10636666Y-16607429D02*
X10646190Y-16597905D01*
X10665238Y-16588381D01*
X10712857Y-16588381D01*
X10731905Y-16597905D01*
X10741428Y-16607429D01*
X10750952Y-16626476D01*
X10750952Y-16645524D01*
X10741428Y-16674095D01*
X10627143Y-16788381D01*
X10750952Y-16788381D01*
X10989047Y-16788381D02*
X10989047Y-16588381D01*
X11074762Y-16788381D02*
X11074762Y-16683619D01*
X11065238Y-16664572D01*
X11046190Y-16655048D01*
X11017619Y-16655048D01*
X10998571Y-16664572D01*
X10989047Y-16674095D01*
X11198571Y-16788381D02*
X11179524Y-16778857D01*
X11170000Y-16769333D01*
X11160476Y-16750286D01*
X11160476Y-16693143D01*
X11170000Y-16674095D01*
X11179524Y-16664572D01*
X11198571Y-16655048D01*
X11227143Y-16655048D01*
X11246190Y-16664572D01*
X11255714Y-16674095D01*
X11265238Y-16693143D01*
X11265238Y-16750286D01*
X11255714Y-16769333D01*
X11246190Y-16778857D01*
X11227143Y-16788381D01*
X11198571Y-16788381D01*
X11379523Y-16788381D02*
X11360476Y-16778857D01*
X11350952Y-16759810D01*
X11350952Y-16588381D01*
X11531904Y-16778857D02*
X11512857Y-16788381D01*
X11474762Y-16788381D01*
X11455714Y-16778857D01*
X11446190Y-16759810D01*
X11446190Y-16683619D01*
X11455714Y-16664572D01*
X11474762Y-16655048D01*
X11512857Y-16655048D01*
X11531904Y-16664572D01*
X11541428Y-16683619D01*
X11541428Y-16702667D01*
X11446190Y-16721714D01*
X11617619Y-16778857D02*
X11636666Y-16788381D01*
X11674762Y-16788381D01*
X11693809Y-16778857D01*
X11703333Y-16759810D01*
X11703333Y-16750286D01*
X11693809Y-16731238D01*
X11674762Y-16721714D01*
X11646190Y-16721714D01*
X11627143Y-16712191D01*
X11617619Y-16693143D01*
X11617619Y-16683619D01*
X11627143Y-16664572D01*
X11646190Y-16655048D01*
X11674762Y-16655048D01*
X11693809Y-16664572D01*
X11770000Y-16864572D02*
X11779523Y-16855048D01*
X11798571Y-16826476D01*
X11808095Y-16807429D01*
X11817619Y-16778857D01*
X11827143Y-16731238D01*
X11827143Y-16693143D01*
X11817619Y-16645524D01*
X11808095Y-16616953D01*
X11798571Y-16597905D01*
X11779523Y-16569333D01*
X11770000Y-16559810D01*
D17*
X6838095Y-16881905D02*
X6998095Y-17041905D01*
X6998095Y-16881905D02*
X6838095Y-17041905D01*
X6998095Y-16961905D02*
G75*
G03*
X6998095Y-16961905I-80000J0D01*
G01*
D11*
X7360476Y-17052381D02*
X7246190Y-17052381D01*
X7303333Y-17052381D02*
X7303333Y-16852381D01*
X7284285Y-16880953D01*
X7265238Y-16900000D01*
X7246190Y-16909524D01*
X7446190Y-17033334D02*
X7455714Y-17042857D01*
X7446190Y-17052381D01*
X7436666Y-17042857D01*
X7446190Y-17033334D01*
X7446190Y-17052381D01*
X7627143Y-16852381D02*
X7589047Y-16852381D01*
X7570000Y-16861905D01*
X7560476Y-16871429D01*
X7541428Y-16900000D01*
X7531904Y-16938095D01*
X7531904Y-17014286D01*
X7541428Y-17033334D01*
X7550952Y-17042857D01*
X7570000Y-17052381D01*
X7608095Y-17052381D01*
X7627143Y-17042857D01*
X7636666Y-17033334D01*
X7646190Y-17014286D01*
X7646190Y-16966667D01*
X7636666Y-16947619D01*
X7627143Y-16938095D01*
X7608095Y-16928572D01*
X7570000Y-16928572D01*
X7550952Y-16938095D01*
X7541428Y-16947619D01*
X7531904Y-16966667D01*
X7770000Y-16852381D02*
X7789047Y-16852381D01*
X7808095Y-16861905D01*
X7817619Y-16871429D01*
X7827143Y-16890476D01*
X7836666Y-16928572D01*
X7836666Y-16976191D01*
X7827143Y-17014286D01*
X7817619Y-17033334D01*
X7808095Y-17042857D01*
X7789047Y-17052381D01*
X7770000Y-17052381D01*
X7750952Y-17042857D01*
X7741428Y-17033334D01*
X7731904Y-17014286D01*
X7722381Y-16976191D01*
X7722381Y-16928572D01*
X7731904Y-16890476D01*
X7741428Y-16871429D01*
X7750952Y-16861905D01*
X7770000Y-16852381D01*
X7960476Y-16852381D02*
X7979523Y-16852381D01*
X7998571Y-16861905D01*
X8008095Y-16871429D01*
X8017619Y-16890476D01*
X8027143Y-16928572D01*
X8027143Y-16976191D01*
X8017619Y-17014286D01*
X8008095Y-17033334D01*
X7998571Y-17042857D01*
X7979523Y-17052381D01*
X7960476Y-17052381D01*
X7941428Y-17042857D01*
X7931904Y-17033334D01*
X7922381Y-17014286D01*
X7912857Y-16976191D01*
X7912857Y-16928572D01*
X7922381Y-16890476D01*
X7931904Y-16871429D01*
X7941428Y-16861905D01*
X7960476Y-16852381D01*
X8112857Y-17052381D02*
X8112857Y-16919048D01*
X8112857Y-16938095D02*
X8122381Y-16928572D01*
X8141428Y-16919048D01*
X8170000Y-16919048D01*
X8189047Y-16928572D01*
X8198571Y-16947619D01*
X8198571Y-17052381D01*
X8198571Y-16947619D02*
X8208095Y-16928572D01*
X8227143Y-16919048D01*
X8255714Y-16919048D01*
X8274762Y-16928572D01*
X8284285Y-16947619D01*
X8284285Y-17052381D01*
X8379523Y-17052381D02*
X8379523Y-16919048D01*
X8379523Y-16938095D02*
X8389047Y-16928572D01*
X8408095Y-16919048D01*
X8436666Y-16919048D01*
X8455714Y-16928572D01*
X8465238Y-16947619D01*
X8465238Y-17052381D01*
X8465238Y-16947619D02*
X8474762Y-16928572D01*
X8493809Y-16919048D01*
X8522381Y-16919048D01*
X8541428Y-16928572D01*
X8550952Y-16947619D01*
X8550952Y-17052381D01*
X8941428Y-16842857D02*
X8770000Y-17100000D01*
X9198571Y-16852381D02*
X9217619Y-16852381D01*
X9236666Y-16861905D01*
X9246190Y-16871429D01*
X9255714Y-16890476D01*
X9265238Y-16928572D01*
X9265238Y-16976191D01*
X9255714Y-17014286D01*
X9246190Y-17033334D01*
X9236666Y-17042857D01*
X9217619Y-17052381D01*
X9198571Y-17052381D01*
X9179524Y-17042857D01*
X9170000Y-17033334D01*
X9160476Y-17014286D01*
X9150952Y-16976191D01*
X9150952Y-16928572D01*
X9160476Y-16890476D01*
X9170000Y-16871429D01*
X9179524Y-16861905D01*
X9198571Y-16852381D01*
X9350952Y-17033334D02*
X9360476Y-17042857D01*
X9350952Y-17052381D01*
X9341428Y-17042857D01*
X9350952Y-17033334D01*
X9350952Y-17052381D01*
X9484285Y-16852381D02*
X9503333Y-16852381D01*
X9522381Y-16861905D01*
X9531905Y-16871429D01*
X9541428Y-16890476D01*
X9550952Y-16928572D01*
X9550952Y-16976191D01*
X9541428Y-17014286D01*
X9531905Y-17033334D01*
X9522381Y-17042857D01*
X9503333Y-17052381D01*
X9484285Y-17052381D01*
X9465238Y-17042857D01*
X9455714Y-17033334D01*
X9446190Y-17014286D01*
X9436666Y-16976191D01*
X9436666Y-16928572D01*
X9446190Y-16890476D01*
X9455714Y-16871429D01*
X9465238Y-16861905D01*
X9484285Y-16852381D01*
X9722381Y-16852381D02*
X9684285Y-16852381D01*
X9665238Y-16861905D01*
X9655714Y-16871429D01*
X9636666Y-16900000D01*
X9627143Y-16938095D01*
X9627143Y-17014286D01*
X9636666Y-17033334D01*
X9646190Y-17042857D01*
X9665238Y-17052381D01*
X9703333Y-17052381D01*
X9722381Y-17042857D01*
X9731905Y-17033334D01*
X9741428Y-17014286D01*
X9741428Y-16966667D01*
X9731905Y-16947619D01*
X9722381Y-16938095D01*
X9703333Y-16928572D01*
X9665238Y-16928572D01*
X9646190Y-16938095D01*
X9636666Y-16947619D01*
X9627143Y-16966667D01*
X9808095Y-16852381D02*
X9931905Y-16852381D01*
X9865238Y-16928572D01*
X9893809Y-16928572D01*
X9912857Y-16938095D01*
X9922381Y-16947619D01*
X9931905Y-16966667D01*
X9931905Y-17014286D01*
X9922381Y-17033334D01*
X9912857Y-17042857D01*
X9893809Y-17052381D01*
X9836666Y-17052381D01*
X9817619Y-17042857D01*
X9808095Y-17033334D01*
X10055714Y-16852381D02*
X10074762Y-16852381D01*
X10093809Y-16861905D01*
X10103333Y-16871429D01*
X10112857Y-16890476D01*
X10122381Y-16928572D01*
X10122381Y-16976191D01*
X10112857Y-17014286D01*
X10103333Y-17033334D01*
X10093809Y-17042857D01*
X10074762Y-17052381D01*
X10055714Y-17052381D01*
X10036666Y-17042857D01*
X10027143Y-17033334D01*
X10017619Y-17014286D01*
X10008095Y-16976191D01*
X10008095Y-16928572D01*
X10017619Y-16890476D01*
X10027143Y-16871429D01*
X10036666Y-16861905D01*
X10055714Y-16852381D01*
X10198571Y-16852381D02*
X10198571Y-16890476D01*
X10274762Y-16852381D02*
X10274762Y-16890476D01*
X10570000Y-17128572D02*
X10560476Y-17119048D01*
X10541428Y-17090476D01*
X10531905Y-17071429D01*
X10522381Y-17042857D01*
X10512857Y-16995238D01*
X10512857Y-16957143D01*
X10522381Y-16909524D01*
X10531905Y-16880953D01*
X10541428Y-16861905D01*
X10560476Y-16833334D01*
X10570000Y-16823810D01*
X10636666Y-16871429D02*
X10646190Y-16861905D01*
X10665238Y-16852381D01*
X10712857Y-16852381D01*
X10731905Y-16861905D01*
X10741428Y-16871429D01*
X10750952Y-16890476D01*
X10750952Y-16909524D01*
X10741428Y-16938095D01*
X10627143Y-17052381D01*
X10750952Y-17052381D01*
X10989047Y-17052381D02*
X10989047Y-16852381D01*
X11074762Y-17052381D02*
X11074762Y-16947619D01*
X11065238Y-16928572D01*
X11046190Y-16919048D01*
X11017619Y-16919048D01*
X10998571Y-16928572D01*
X10989047Y-16938095D01*
X11198571Y-17052381D02*
X11179524Y-17042857D01*
X11170000Y-17033334D01*
X11160476Y-17014286D01*
X11160476Y-16957143D01*
X11170000Y-16938095D01*
X11179524Y-16928572D01*
X11198571Y-16919048D01*
X11227143Y-16919048D01*
X11246190Y-16928572D01*
X11255714Y-16938095D01*
X11265238Y-16957143D01*
X11265238Y-17014286D01*
X11255714Y-17033334D01*
X11246190Y-17042857D01*
X11227143Y-17052381D01*
X11198571Y-17052381D01*
X11379523Y-17052381D02*
X11360476Y-17042857D01*
X11350952Y-17023810D01*
X11350952Y-16852381D01*
X11531904Y-17042857D02*
X11512857Y-17052381D01*
X11474762Y-17052381D01*
X11455714Y-17042857D01*
X11446190Y-17023810D01*
X11446190Y-16947619D01*
X11455714Y-16928572D01*
X11474762Y-16919048D01*
X11512857Y-16919048D01*
X11531904Y-16928572D01*
X11541428Y-16947619D01*
X11541428Y-16966667D01*
X11446190Y-16985715D01*
X11617619Y-17042857D02*
X11636666Y-17052381D01*
X11674762Y-17052381D01*
X11693809Y-17042857D01*
X11703333Y-17023810D01*
X11703333Y-17014286D01*
X11693809Y-16995238D01*
X11674762Y-16985715D01*
X11646190Y-16985715D01*
X11627143Y-16976191D01*
X11617619Y-16957143D01*
X11617619Y-16947619D01*
X11627143Y-16928572D01*
X11646190Y-16919048D01*
X11674762Y-16919048D01*
X11693809Y-16928572D01*
X11770000Y-17128572D02*
X11779523Y-17119048D01*
X11798571Y-17090476D01*
X11808095Y-17071429D01*
X11817619Y-17042857D01*
X11827143Y-16995238D01*
X11827143Y-16957143D01*
X11817619Y-16909524D01*
X11808095Y-16880953D01*
X11798571Y-16861905D01*
X11779523Y-16833334D01*
X11770000Y-16823810D01*
X6798095Y-17141905D02*
X6998095Y-17341905D01*
X6998095Y-17141905D02*
X6798095Y-17341905D01*
X6898095Y-17141905D02*
X6898095Y-17341905D01*
X6798095Y-17241905D02*
X6998095Y-17241905D01*
X7236666Y-17132381D02*
X7360476Y-17132381D01*
X7293809Y-17208572D01*
X7322381Y-17208572D01*
X7341428Y-17218095D01*
X7350952Y-17227619D01*
X7360476Y-17246667D01*
X7360476Y-17294286D01*
X7350952Y-17313334D01*
X7341428Y-17322857D01*
X7322381Y-17332381D01*
X7265238Y-17332381D01*
X7246190Y-17322857D01*
X7236666Y-17313334D01*
X7446190Y-17313334D02*
X7455714Y-17322857D01*
X7446190Y-17332381D01*
X7436666Y-17322857D01*
X7446190Y-17313334D01*
X7446190Y-17332381D01*
X7531904Y-17151429D02*
X7541428Y-17141905D01*
X7560476Y-17132381D01*
X7608095Y-17132381D01*
X7627143Y-17141905D01*
X7636666Y-17151429D01*
X7646190Y-17170476D01*
X7646190Y-17189524D01*
X7636666Y-17218095D01*
X7522381Y-17332381D01*
X7646190Y-17332381D01*
X7770000Y-17132381D02*
X7789047Y-17132381D01*
X7808095Y-17141905D01*
X7817619Y-17151429D01*
X7827143Y-17170476D01*
X7836666Y-17208572D01*
X7836666Y-17256191D01*
X7827143Y-17294286D01*
X7817619Y-17313334D01*
X7808095Y-17322857D01*
X7789047Y-17332381D01*
X7770000Y-17332381D01*
X7750952Y-17322857D01*
X7741428Y-17313334D01*
X7731904Y-17294286D01*
X7722381Y-17256191D01*
X7722381Y-17208572D01*
X7731904Y-17170476D01*
X7741428Y-17151429D01*
X7750952Y-17141905D01*
X7770000Y-17132381D01*
X7960476Y-17132381D02*
X7979523Y-17132381D01*
X7998571Y-17141905D01*
X8008095Y-17151429D01*
X8017619Y-17170476D01*
X8027143Y-17208572D01*
X8027143Y-17256191D01*
X8017619Y-17294286D01*
X8008095Y-17313334D01*
X7998571Y-17322857D01*
X7979523Y-17332381D01*
X7960476Y-17332381D01*
X7941428Y-17322857D01*
X7931904Y-17313334D01*
X7922381Y-17294286D01*
X7912857Y-17256191D01*
X7912857Y-17208572D01*
X7922381Y-17170476D01*
X7931904Y-17151429D01*
X7941428Y-17141905D01*
X7960476Y-17132381D01*
X8112857Y-17332381D02*
X8112857Y-17199048D01*
X8112857Y-17218095D02*
X8122381Y-17208572D01*
X8141428Y-17199048D01*
X8170000Y-17199048D01*
X8189047Y-17208572D01*
X8198571Y-17227619D01*
X8198571Y-17332381D01*
X8198571Y-17227619D02*
X8208095Y-17208572D01*
X8227143Y-17199048D01*
X8255714Y-17199048D01*
X8274762Y-17208572D01*
X8284285Y-17227619D01*
X8284285Y-17332381D01*
X8379523Y-17332381D02*
X8379523Y-17199048D01*
X8379523Y-17218095D02*
X8389047Y-17208572D01*
X8408095Y-17199048D01*
X8436666Y-17199048D01*
X8455714Y-17208572D01*
X8465238Y-17227619D01*
X8465238Y-17332381D01*
X8465238Y-17227619D02*
X8474762Y-17208572D01*
X8493809Y-17199048D01*
X8522381Y-17199048D01*
X8541428Y-17208572D01*
X8550952Y-17227619D01*
X8550952Y-17332381D01*
X8941428Y-17122857D02*
X8770000Y-17380000D01*
X9198571Y-17132381D02*
X9217619Y-17132381D01*
X9236666Y-17141905D01*
X9246190Y-17151429D01*
X9255714Y-17170476D01*
X9265238Y-17208572D01*
X9265238Y-17256191D01*
X9255714Y-17294286D01*
X9246190Y-17313334D01*
X9236666Y-17322857D01*
X9217619Y-17332381D01*
X9198571Y-17332381D01*
X9179524Y-17322857D01*
X9170000Y-17313334D01*
X9160476Y-17294286D01*
X9150952Y-17256191D01*
X9150952Y-17208572D01*
X9160476Y-17170476D01*
X9170000Y-17151429D01*
X9179524Y-17141905D01*
X9198571Y-17132381D01*
X9350952Y-17313334D02*
X9360476Y-17322857D01*
X9350952Y-17332381D01*
X9341428Y-17322857D01*
X9350952Y-17313334D01*
X9350952Y-17332381D01*
X9550952Y-17332381D02*
X9436666Y-17332381D01*
X9493809Y-17332381D02*
X9493809Y-17132381D01*
X9474762Y-17160953D01*
X9455714Y-17180000D01*
X9436666Y-17189524D01*
X9627143Y-17151429D02*
X9636666Y-17141905D01*
X9655714Y-17132381D01*
X9703333Y-17132381D01*
X9722381Y-17141905D01*
X9731905Y-17151429D01*
X9741428Y-17170476D01*
X9741428Y-17189524D01*
X9731905Y-17218095D01*
X9617619Y-17332381D01*
X9741428Y-17332381D01*
X9912857Y-17132381D02*
X9874762Y-17132381D01*
X9855714Y-17141905D01*
X9846190Y-17151429D01*
X9827143Y-17180000D01*
X9817619Y-17218095D01*
X9817619Y-17294286D01*
X9827143Y-17313334D01*
X9836666Y-17322857D01*
X9855714Y-17332381D01*
X9893809Y-17332381D01*
X9912857Y-17322857D01*
X9922381Y-17313334D01*
X9931905Y-17294286D01*
X9931905Y-17246667D01*
X9922381Y-17227619D01*
X9912857Y-17218095D01*
X9893809Y-17208572D01*
X9855714Y-17208572D01*
X9836666Y-17218095D01*
X9827143Y-17227619D01*
X9817619Y-17246667D01*
X10055714Y-17132381D02*
X10074762Y-17132381D01*
X10093809Y-17141905D01*
X10103333Y-17151429D01*
X10112857Y-17170476D01*
X10122381Y-17208572D01*
X10122381Y-17256191D01*
X10112857Y-17294286D01*
X10103333Y-17313334D01*
X10093809Y-17322857D01*
X10074762Y-17332381D01*
X10055714Y-17332381D01*
X10036666Y-17322857D01*
X10027143Y-17313334D01*
X10017619Y-17294286D01*
X10008095Y-17256191D01*
X10008095Y-17208572D01*
X10017619Y-17170476D01*
X10027143Y-17151429D01*
X10036666Y-17141905D01*
X10055714Y-17132381D01*
X10198571Y-17132381D02*
X10198571Y-17170476D01*
X10274762Y-17132381D02*
X10274762Y-17170476D01*
X10570000Y-17408572D02*
X10560476Y-17399048D01*
X10541428Y-17370476D01*
X10531905Y-17351429D01*
X10522381Y-17322857D01*
X10512857Y-17275238D01*
X10512857Y-17237143D01*
X10522381Y-17189524D01*
X10531905Y-17160953D01*
X10541428Y-17141905D01*
X10560476Y-17113334D01*
X10570000Y-17103810D01*
X10731905Y-17199048D02*
X10731905Y-17332381D01*
X10684285Y-17122857D02*
X10636666Y-17265715D01*
X10760476Y-17265715D01*
X10989047Y-17332381D02*
X10989047Y-17132381D01*
X11074762Y-17332381D02*
X11074762Y-17227619D01*
X11065238Y-17208572D01*
X11046190Y-17199048D01*
X11017619Y-17199048D01*
X10998571Y-17208572D01*
X10989047Y-17218095D01*
X11198571Y-17332381D02*
X11179524Y-17322857D01*
X11170000Y-17313334D01*
X11160476Y-17294286D01*
X11160476Y-17237143D01*
X11170000Y-17218095D01*
X11179524Y-17208572D01*
X11198571Y-17199048D01*
X11227143Y-17199048D01*
X11246190Y-17208572D01*
X11255714Y-17218095D01*
X11265238Y-17237143D01*
X11265238Y-17294286D01*
X11255714Y-17313334D01*
X11246190Y-17322857D01*
X11227143Y-17332381D01*
X11198571Y-17332381D01*
X11379523Y-17332381D02*
X11360476Y-17322857D01*
X11350952Y-17303810D01*
X11350952Y-17132381D01*
X11531904Y-17322857D02*
X11512857Y-17332381D01*
X11474762Y-17332381D01*
X11455714Y-17322857D01*
X11446190Y-17303810D01*
X11446190Y-17227619D01*
X11455714Y-17208572D01*
X11474762Y-17199048D01*
X11512857Y-17199048D01*
X11531904Y-17208572D01*
X11541428Y-17227619D01*
X11541428Y-17246667D01*
X11446190Y-17265715D01*
X11617619Y-17322857D02*
X11636666Y-17332381D01*
X11674762Y-17332381D01*
X11693809Y-17322857D01*
X11703333Y-17303810D01*
X11703333Y-17294286D01*
X11693809Y-17275238D01*
X11674762Y-17265715D01*
X11646190Y-17265715D01*
X11627143Y-17256191D01*
X11617619Y-17237143D01*
X11617619Y-17227619D01*
X11627143Y-17208572D01*
X11646190Y-17199048D01*
X11674762Y-17199048D01*
X11693809Y-17208572D01*
X11770000Y-17408572D02*
X11779523Y-17399048D01*
X11798571Y-17370476D01*
X11808095Y-17351429D01*
X11817619Y-17322857D01*
X11827143Y-17275238D01*
X11827143Y-17237143D01*
X11817619Y-17189524D01*
X11808095Y-17160953D01*
X11798571Y-17141905D01*
X11779523Y-17113334D01*
X11770000Y-17103810D01*
M02*
