G04 #@! TF.GenerationSoftware,KiCad,Pcbnew,(6.0.5)*
G04 #@! TF.CreationDate,2022-06-11T17:51:55-07:00*
G04 #@! TF.ProjectId,main_template,6d61696e-5f74-4656-9d70-6c6174652e6b,1*
G04 #@! TF.SameCoordinates,Original*
G04 #@! TF.FileFunction,Copper,L4,Bot*
G04 #@! TF.FilePolarity,Positive*
%FSLAX46Y46*%
G04 Gerber Fmt 4.6, Leading zero omitted, Abs format (unit mm)*
G04 Created by KiCad (PCBNEW (6.0.5)) date 2022-06-11 17:51:55*
%MOMM*%
%LPD*%
G01*
G04 APERTURE LIST*
G04 #@! TA.AperFunction,ComponentPad*
%ADD10O,2.000000X4.200000*%
G04 #@! TD*
G04 #@! TA.AperFunction,ComponentPad*
%ADD11O,4.200000X2.000000*%
G04 #@! TD*
G04 #@! TA.AperFunction,ComponentPad*
%ADD12R,4.600000X2.000000*%
G04 #@! TD*
G04 #@! TA.AperFunction,ComponentPad*
%ADD13C,0.800000*%
G04 #@! TD*
G04 #@! TA.AperFunction,ComponentPad*
%ADD14C,6.400000*%
G04 #@! TD*
G04 #@! TA.AperFunction,ComponentPad*
%ADD15C,2.400000*%
G04 #@! TD*
G04 #@! TA.AperFunction,ComponentPad*
%ADD16R,2.400000X2.400000*%
G04 #@! TD*
G04 #@! TA.AperFunction,ComponentPad*
%ADD17C,2.000000*%
G04 #@! TD*
G04 #@! TA.AperFunction,ComponentPad*
%ADD18R,2.000000X2.000000*%
G04 #@! TD*
G04 #@! TA.AperFunction,ComponentPad*
%ADD19R,3.200000X3.200000*%
G04 #@! TD*
G04 #@! TA.AperFunction,ComponentPad*
%ADD20O,3.200000X3.200000*%
G04 #@! TD*
G04 #@! TA.AperFunction,ViaPad*
%ADD21C,0.600000*%
G04 #@! TD*
G04 #@! TA.AperFunction,Conductor*
%ADD22C,0.609600*%
G04 #@! TD*
G04 APERTURE END LIST*
D10*
X92150000Y-138550000D03*
D11*
X87350000Y-141950000D03*
D12*
X87350000Y-135650000D03*
D13*
X75000000Y-147400000D03*
X73302944Y-146697056D03*
D14*
X75000000Y-145000000D03*
D13*
X75000000Y-142600000D03*
X77400000Y-145000000D03*
X73302944Y-143302944D03*
X76697056Y-143302944D03*
X72600000Y-145000000D03*
X76697056Y-146697056D03*
D14*
X75000000Y-103000000D03*
D15*
X74068000Y-117726000D03*
D16*
X74068000Y-121226000D03*
D14*
X165000000Y-103000000D03*
D17*
X130048000Y-139467000D03*
X130048000Y-136927000D03*
X130048000Y-134387000D03*
X130048000Y-131847000D03*
X130048000Y-129307000D03*
X130048000Y-126767000D03*
X130048000Y-124227000D03*
X130048000Y-121687000D03*
X130048000Y-119147000D03*
X130048000Y-116607000D03*
X130048000Y-114067000D03*
X130048000Y-111527000D03*
X130048000Y-108987000D03*
X130048000Y-106447000D03*
X130048000Y-103907000D03*
X155448000Y-103907000D03*
X155448000Y-106447000D03*
X155448000Y-108987000D03*
X155448000Y-111527000D03*
X155448000Y-114067000D03*
X155448000Y-116607000D03*
X155448000Y-119147000D03*
X155448000Y-121687000D03*
X155448000Y-124227000D03*
X155448000Y-126767000D03*
X155448000Y-129307000D03*
X155448000Y-131847000D03*
X155448000Y-134387000D03*
X155448000Y-136927000D03*
D18*
X155448000Y-139467000D03*
D14*
X165000000Y-145000000D03*
D19*
X81788000Y-128620000D03*
D20*
X81788000Y-113380000D03*
D21*
X82000000Y-103000000D03*
X84000000Y-103000000D03*
X109000000Y-103000000D03*
X164000000Y-112000000D03*
X164000000Y-115000000D03*
X118000000Y-103000000D03*
X115000000Y-103000000D03*
X112000000Y-103000000D03*
X151000000Y-131000000D03*
X151000000Y-128000000D03*
X151000000Y-125000000D03*
X151000000Y-122000000D03*
X151000000Y-119000000D03*
X142000000Y-129000000D03*
X142000000Y-125000000D03*
X142000000Y-121000000D03*
X142000000Y-117000000D03*
X142000000Y-113000000D03*
X120000000Y-136000000D03*
X120000000Y-132000000D03*
X120000000Y-128000000D03*
X99000000Y-129000000D03*
X99000000Y-126000000D03*
X93000000Y-130000000D03*
X83000000Y-132000000D03*
X81000000Y-132000000D03*
X79000000Y-132000000D03*
X86000000Y-126000000D03*
X86000000Y-124000000D03*
X86000000Y-122000000D03*
X94000000Y-113000000D03*
X97000000Y-113000000D03*
X91000000Y-113000000D03*
X112000000Y-122000000D03*
X106000000Y-126000000D03*
X106000000Y-124000000D03*
X112000000Y-121000000D03*
X111252000Y-114300000D03*
X120904000Y-141224000D03*
D22*
X152954881Y-141960119D02*
X155448000Y-139467000D01*
X122199881Y-141960119D02*
X152954881Y-141960119D01*
X113792000Y-138176000D02*
X118872000Y-143256000D01*
X113792000Y-116840000D02*
X113792000Y-138176000D01*
X118872000Y-143256000D02*
X120904000Y-143256000D01*
X120904000Y-143256000D02*
X122199881Y-141960119D01*
X111252000Y-114300000D02*
X113792000Y-116840000D01*
X122661000Y-139467000D02*
X120904000Y-141224000D01*
X130048000Y-139467000D02*
X122661000Y-139467000D01*
G04 #@! TA.AperFunction,Conductor*
G36*
X129504758Y-98528502D02*
G01*
X129551251Y-98582158D01*
X129561355Y-98652432D01*
X129531861Y-98717012D01*
X129495790Y-98745751D01*
X129454950Y-98767466D01*
X129454944Y-98767470D01*
X129451058Y-98769536D01*
X129447499Y-98772122D01*
X129447497Y-98772123D01*
X129342895Y-98848121D01*
X129223808Y-98934642D01*
X129021748Y-99129769D01*
X128848812Y-99351118D01*
X128846616Y-99354922D01*
X128846611Y-99354929D01*
X128732794Y-99552067D01*
X128708364Y-99594381D01*
X128603138Y-99854824D01*
X128602073Y-99859097D01*
X128602072Y-99859099D01*
X128568379Y-99994236D01*
X128535183Y-100127376D01*
X128505822Y-100406733D01*
X128505975Y-100411121D01*
X128505975Y-100411127D01*
X128509697Y-100517686D01*
X128515625Y-100687458D01*
X128516387Y-100691781D01*
X128516388Y-100691788D01*
X128540164Y-100826624D01*
X128564402Y-100964087D01*
X128651203Y-101231235D01*
X128774340Y-101483702D01*
X128776795Y-101487341D01*
X128776798Y-101487347D01*
X128778282Y-101489547D01*
X128931415Y-101716576D01*
X129119371Y-101925322D01*
X129334550Y-102105879D01*
X129338282Y-102108211D01*
X129572764Y-102254731D01*
X129571715Y-102256409D01*
X129616687Y-102300378D01*
X129632560Y-102369577D01*
X129608502Y-102436373D01*
X129555006Y-102478416D01*
X129365611Y-102556865D01*
X129365607Y-102556867D01*
X129361037Y-102558760D01*
X129356817Y-102561346D01*
X129162798Y-102680241D01*
X129162792Y-102680245D01*
X129158584Y-102682824D01*
X128978031Y-102837031D01*
X128823824Y-103017584D01*
X128821245Y-103021792D01*
X128821241Y-103021798D01*
X128702346Y-103215817D01*
X128699760Y-103220037D01*
X128697867Y-103224607D01*
X128697865Y-103224611D01*
X128610789Y-103434833D01*
X128608895Y-103439406D01*
X128553465Y-103670289D01*
X128534835Y-103907000D01*
X128553465Y-104143711D01*
X128608895Y-104374594D01*
X128699760Y-104593963D01*
X128702346Y-104598183D01*
X128821241Y-104792202D01*
X128821245Y-104792208D01*
X128823824Y-104796416D01*
X128978031Y-104976969D01*
X128981787Y-104980177D01*
X128981792Y-104980182D01*
X129100056Y-105081189D01*
X129138866Y-105140639D01*
X129139372Y-105211634D01*
X129100056Y-105272811D01*
X128981792Y-105373818D01*
X128981787Y-105373823D01*
X128978031Y-105377031D01*
X128823824Y-105557584D01*
X128821245Y-105561792D01*
X128821241Y-105561798D01*
X128702346Y-105755817D01*
X128699760Y-105760037D01*
X128608895Y-105979406D01*
X128553465Y-106210289D01*
X128534835Y-106447000D01*
X128553465Y-106683711D01*
X128554619Y-106688518D01*
X128554620Y-106688524D01*
X128560638Y-106713589D01*
X128608895Y-106914594D01*
X128699760Y-107133963D01*
X128702346Y-107138183D01*
X128821241Y-107332202D01*
X128821245Y-107332208D01*
X128823824Y-107336416D01*
X128978031Y-107516969D01*
X128981787Y-107520177D01*
X128981792Y-107520182D01*
X129100056Y-107621189D01*
X129138866Y-107680639D01*
X129139372Y-107751634D01*
X129100056Y-107812811D01*
X128981792Y-107913818D01*
X128981787Y-107913823D01*
X128978031Y-107917031D01*
X128823824Y-108097584D01*
X128821245Y-108101792D01*
X128821241Y-108101798D01*
X128702346Y-108295817D01*
X128699760Y-108300037D01*
X128608895Y-108519406D01*
X128553465Y-108750289D01*
X128534835Y-108987000D01*
X128553465Y-109223711D01*
X128608895Y-109454594D01*
X128699760Y-109673963D01*
X128702346Y-109678183D01*
X128821241Y-109872202D01*
X128821245Y-109872208D01*
X128823824Y-109876416D01*
X128978031Y-110056969D01*
X128981787Y-110060177D01*
X128981792Y-110060182D01*
X129100056Y-110161189D01*
X129138866Y-110220639D01*
X129139372Y-110291634D01*
X129100056Y-110352811D01*
X128981792Y-110453818D01*
X128981787Y-110453823D01*
X128978031Y-110457031D01*
X128823824Y-110637584D01*
X128821245Y-110641792D01*
X128821241Y-110641798D01*
X128702346Y-110835817D01*
X128699760Y-110840037D01*
X128608895Y-111059406D01*
X128607740Y-111064218D01*
X128557651Y-111272854D01*
X128553465Y-111290289D01*
X128534835Y-111527000D01*
X128553465Y-111763711D01*
X128554619Y-111768518D01*
X128554620Y-111768524D01*
X128589640Y-111914391D01*
X128608895Y-111994594D01*
X128610788Y-111999165D01*
X128610789Y-111999167D01*
X128626185Y-112036335D01*
X128699760Y-112213963D01*
X128702346Y-112218183D01*
X128821241Y-112412202D01*
X128821245Y-112412208D01*
X128823824Y-112416416D01*
X128978031Y-112596969D01*
X128981787Y-112600177D01*
X128981792Y-112600182D01*
X129100056Y-112701189D01*
X129138866Y-112760639D01*
X129139372Y-112831634D01*
X129100056Y-112892811D01*
X128981792Y-112993818D01*
X128981787Y-112993823D01*
X128978031Y-112997031D01*
X128823824Y-113177584D01*
X128821245Y-113181792D01*
X128821241Y-113181798D01*
X128715962Y-113353598D01*
X128699760Y-113380037D01*
X128697867Y-113384607D01*
X128697865Y-113384611D01*
X128620731Y-113570831D01*
X128608895Y-113599406D01*
X128594044Y-113661266D01*
X128563257Y-113789504D01*
X128553465Y-113830289D01*
X128534835Y-114067000D01*
X128553465Y-114303711D01*
X128554619Y-114308518D01*
X128554620Y-114308524D01*
X128574082Y-114389589D01*
X128608895Y-114534594D01*
X128610788Y-114539165D01*
X128610789Y-114539167D01*
X128675720Y-114695924D01*
X128699760Y-114753963D01*
X128702346Y-114758183D01*
X128821241Y-114952202D01*
X128821245Y-114952208D01*
X128823824Y-114956416D01*
X128935396Y-115087050D01*
X128970349Y-115127974D01*
X128978031Y-115136969D01*
X128981787Y-115140177D01*
X128981792Y-115140182D01*
X129100056Y-115241189D01*
X129138866Y-115300639D01*
X129139372Y-115371634D01*
X129100056Y-115432811D01*
X128981792Y-115533818D01*
X128981787Y-115533823D01*
X128978031Y-115537031D01*
X128823824Y-115717584D01*
X128821245Y-115721792D01*
X128821241Y-115721798D01*
X128702346Y-115915817D01*
X128699760Y-115920037D01*
X128697867Y-115924607D01*
X128697865Y-115924611D01*
X128610789Y-116134833D01*
X128608895Y-116139406D01*
X128607740Y-116144218D01*
X128562748Y-116331624D01*
X128553465Y-116370289D01*
X128534835Y-116607000D01*
X128553465Y-116843711D01*
X128554619Y-116848518D01*
X128554620Y-116848524D01*
X128578546Y-116948182D01*
X128608895Y-117074594D01*
X128610788Y-117079165D01*
X128610789Y-117079167D01*
X128672881Y-117229070D01*
X128699760Y-117293963D01*
X128702346Y-117298183D01*
X128821241Y-117492202D01*
X128821245Y-117492208D01*
X128823824Y-117496416D01*
X128978031Y-117676969D01*
X128981787Y-117680177D01*
X128981792Y-117680182D01*
X129100056Y-117781189D01*
X129138866Y-117840639D01*
X129139372Y-117911634D01*
X129100056Y-117972811D01*
X128981792Y-118073818D01*
X128981787Y-118073823D01*
X128978031Y-118077031D01*
X128823824Y-118257584D01*
X128821245Y-118261792D01*
X128821241Y-118261798D01*
X128787874Y-118316248D01*
X128699760Y-118460037D01*
X128697867Y-118464607D01*
X128697865Y-118464611D01*
X128663556Y-118547442D01*
X128608895Y-118679406D01*
X128607740Y-118684218D01*
X128568832Y-118846282D01*
X128553465Y-118910289D01*
X128534835Y-119147000D01*
X128553465Y-119383711D01*
X128554619Y-119388518D01*
X128554620Y-119388524D01*
X128585585Y-119517500D01*
X128608895Y-119614594D01*
X128610788Y-119619165D01*
X128610789Y-119619167D01*
X128680599Y-119787703D01*
X128699760Y-119833963D01*
X128702346Y-119838183D01*
X128821241Y-120032202D01*
X128821245Y-120032208D01*
X128823824Y-120036416D01*
X128978031Y-120216969D01*
X128981787Y-120220177D01*
X128981792Y-120220182D01*
X129100056Y-120321189D01*
X129138866Y-120380639D01*
X129139372Y-120451634D01*
X129100056Y-120512811D01*
X128981792Y-120613818D01*
X128981787Y-120613823D01*
X128978031Y-120617031D01*
X128823824Y-120797584D01*
X128821245Y-120801792D01*
X128821241Y-120801798D01*
X128702346Y-120995817D01*
X128699760Y-121000037D01*
X128608895Y-121219406D01*
X128553465Y-121450289D01*
X128534835Y-121687000D01*
X128553465Y-121923711D01*
X128608895Y-122154594D01*
X128699760Y-122373963D01*
X128702346Y-122378183D01*
X128821241Y-122572202D01*
X128821245Y-122572208D01*
X128823824Y-122576416D01*
X128978031Y-122756969D01*
X128981787Y-122760177D01*
X128981792Y-122760182D01*
X129100056Y-122861189D01*
X129138866Y-122920639D01*
X129139372Y-122991634D01*
X129100056Y-123052811D01*
X128981792Y-123153818D01*
X128981787Y-123153823D01*
X128978031Y-123157031D01*
X128823824Y-123337584D01*
X128821245Y-123341792D01*
X128821241Y-123341798D01*
X128702346Y-123535817D01*
X128699760Y-123540037D01*
X128608895Y-123759406D01*
X128553465Y-123990289D01*
X128534835Y-124227000D01*
X128553465Y-124463711D01*
X128608895Y-124694594D01*
X128699760Y-124913963D01*
X128702346Y-124918183D01*
X128821241Y-125112202D01*
X128821245Y-125112208D01*
X128823824Y-125116416D01*
X128978031Y-125296969D01*
X128981787Y-125300177D01*
X128981792Y-125300182D01*
X129100056Y-125401189D01*
X129138866Y-125460639D01*
X129139372Y-125531634D01*
X129100056Y-125592811D01*
X128981792Y-125693818D01*
X128981787Y-125693823D01*
X128978031Y-125697031D01*
X128823824Y-125877584D01*
X128821245Y-125881792D01*
X128821241Y-125881798D01*
X128702346Y-126075817D01*
X128699760Y-126080037D01*
X128608895Y-126299406D01*
X128607740Y-126304218D01*
X128556559Y-126517402D01*
X128553465Y-126530289D01*
X128534835Y-126767000D01*
X128553465Y-127003711D01*
X128608895Y-127234594D01*
X128699760Y-127453963D01*
X128702346Y-127458183D01*
X128821241Y-127652202D01*
X128821245Y-127652208D01*
X128823824Y-127656416D01*
X128978031Y-127836969D01*
X128981787Y-127840177D01*
X128981792Y-127840182D01*
X129100056Y-127941189D01*
X129138866Y-128000639D01*
X129139372Y-128071634D01*
X129100056Y-128132811D01*
X128981792Y-128233818D01*
X128981787Y-128233823D01*
X128978031Y-128237031D01*
X128823824Y-128417584D01*
X128821245Y-128421792D01*
X128821241Y-128421798D01*
X128702346Y-128615817D01*
X128699760Y-128620037D01*
X128608895Y-128839406D01*
X128553465Y-129070289D01*
X128534835Y-129307000D01*
X128553465Y-129543711D01*
X128608895Y-129774594D01*
X128699760Y-129993963D01*
X128702346Y-129998183D01*
X128821241Y-130192202D01*
X128821245Y-130192208D01*
X128823824Y-130196416D01*
X128978031Y-130376969D01*
X128981787Y-130380177D01*
X128981792Y-130380182D01*
X129100056Y-130481189D01*
X129138866Y-130540639D01*
X129139372Y-130611634D01*
X129100056Y-130672811D01*
X128981792Y-130773818D01*
X128981787Y-130773823D01*
X128978031Y-130777031D01*
X128823824Y-130957584D01*
X128821245Y-130961792D01*
X128821241Y-130961798D01*
X128702346Y-131155817D01*
X128699760Y-131160037D01*
X128608895Y-131379406D01*
X128553465Y-131610289D01*
X128534835Y-131847000D01*
X128553465Y-132083711D01*
X128608895Y-132314594D01*
X128699760Y-132533963D01*
X128702346Y-132538183D01*
X128821241Y-132732202D01*
X128821245Y-132732208D01*
X128823824Y-132736416D01*
X128978031Y-132916969D01*
X128981787Y-132920177D01*
X128981792Y-132920182D01*
X129100056Y-133021189D01*
X129138866Y-133080639D01*
X129139372Y-133151634D01*
X129100056Y-133212811D01*
X128981792Y-133313818D01*
X128981787Y-133313823D01*
X128978031Y-133317031D01*
X128823824Y-133497584D01*
X128821245Y-133501792D01*
X128821241Y-133501798D01*
X128702346Y-133695817D01*
X128699760Y-133700037D01*
X128608895Y-133919406D01*
X128553465Y-134150289D01*
X128534835Y-134387000D01*
X128553465Y-134623711D01*
X128608895Y-134854594D01*
X128699760Y-135073963D01*
X128702346Y-135078183D01*
X128821241Y-135272202D01*
X128821245Y-135272208D01*
X128823824Y-135276416D01*
X128978031Y-135456969D01*
X128981787Y-135460177D01*
X128981792Y-135460182D01*
X129134616Y-135590706D01*
X129173426Y-135650156D01*
X129175640Y-135684558D01*
X129183877Y-135703667D01*
X130035188Y-136554978D01*
X130049132Y-136562592D01*
X130050965Y-136562461D01*
X130057580Y-136558210D01*
X130909080Y-135706710D01*
X130918260Y-135689898D01*
X130932020Y-135626650D01*
X130960776Y-135591225D01*
X131114213Y-135460177D01*
X131117969Y-135456969D01*
X131272176Y-135276416D01*
X131274755Y-135272208D01*
X131274759Y-135272202D01*
X131393654Y-135078183D01*
X131396240Y-135073963D01*
X131487105Y-134854594D01*
X131542535Y-134623711D01*
X131561165Y-134387000D01*
X131542535Y-134150289D01*
X131487105Y-133919406D01*
X131396240Y-133700037D01*
X131393654Y-133695817D01*
X131274759Y-133501798D01*
X131274755Y-133501792D01*
X131272176Y-133497584D01*
X131117969Y-133317031D01*
X131114213Y-133313823D01*
X131114208Y-133313818D01*
X130995944Y-133212811D01*
X130957134Y-133153361D01*
X130956628Y-133082366D01*
X130995944Y-133021189D01*
X131114208Y-132920182D01*
X131114213Y-132920177D01*
X131117969Y-132916969D01*
X131272176Y-132736416D01*
X131274755Y-132732208D01*
X131274759Y-132732202D01*
X131393654Y-132538183D01*
X131396240Y-132533963D01*
X131487105Y-132314594D01*
X131542535Y-132083711D01*
X131561165Y-131847000D01*
X131542535Y-131610289D01*
X131487105Y-131379406D01*
X131396240Y-131160037D01*
X131393654Y-131155817D01*
X131274759Y-130961798D01*
X131274755Y-130961792D01*
X131272176Y-130957584D01*
X131117969Y-130777031D01*
X131114213Y-130773823D01*
X131114208Y-130773818D01*
X130995944Y-130672811D01*
X130957134Y-130613361D01*
X130956628Y-130542366D01*
X130995944Y-130481189D01*
X131114208Y-130380182D01*
X131114213Y-130380177D01*
X131117969Y-130376969D01*
X131272176Y-130196416D01*
X131274755Y-130192208D01*
X131274759Y-130192202D01*
X131393654Y-129998183D01*
X131396240Y-129993963D01*
X131487105Y-129774594D01*
X131542535Y-129543711D01*
X131561165Y-129307000D01*
X131542535Y-129070289D01*
X131487105Y-128839406D01*
X131396240Y-128620037D01*
X131393654Y-128615817D01*
X131274759Y-128421798D01*
X131274755Y-128421792D01*
X131272176Y-128417584D01*
X131117969Y-128237031D01*
X131114213Y-128233823D01*
X131114208Y-128233818D01*
X130995944Y-128132811D01*
X130957134Y-128073361D01*
X130956628Y-128002366D01*
X130995944Y-127941189D01*
X131114208Y-127840182D01*
X131114213Y-127840177D01*
X131117969Y-127836969D01*
X131272176Y-127656416D01*
X131274755Y-127652208D01*
X131274759Y-127652202D01*
X131393654Y-127458183D01*
X131396240Y-127453963D01*
X131487105Y-127234594D01*
X131542535Y-127003711D01*
X131561165Y-126767000D01*
X131542535Y-126530289D01*
X131539442Y-126517402D01*
X131488260Y-126304218D01*
X131487105Y-126299406D01*
X131396240Y-126080037D01*
X131393654Y-126075817D01*
X131274759Y-125881798D01*
X131274755Y-125881792D01*
X131272176Y-125877584D01*
X131117969Y-125697031D01*
X131114213Y-125693823D01*
X131114208Y-125693818D01*
X130995944Y-125592811D01*
X130957134Y-125533361D01*
X130956628Y-125462366D01*
X130995944Y-125401189D01*
X131114208Y-125300182D01*
X131114213Y-125300177D01*
X131117969Y-125296969D01*
X131272176Y-125116416D01*
X131274755Y-125112208D01*
X131274759Y-125112202D01*
X131393654Y-124918183D01*
X131396240Y-124913963D01*
X131487105Y-124694594D01*
X131542535Y-124463711D01*
X131561165Y-124227000D01*
X131542535Y-123990289D01*
X131487105Y-123759406D01*
X131396240Y-123540037D01*
X131393654Y-123535817D01*
X131274759Y-123341798D01*
X131274755Y-123341792D01*
X131272176Y-123337584D01*
X131117969Y-123157031D01*
X131114213Y-123153823D01*
X131114208Y-123153818D01*
X130995944Y-123052811D01*
X130957134Y-122993361D01*
X130956628Y-122922366D01*
X130995944Y-122861189D01*
X131114208Y-122760182D01*
X131114213Y-122760177D01*
X131117969Y-122756969D01*
X131272176Y-122576416D01*
X131274755Y-122572208D01*
X131274759Y-122572202D01*
X131393654Y-122378183D01*
X131396240Y-122373963D01*
X131487105Y-122154594D01*
X131542535Y-121923711D01*
X131561165Y-121687000D01*
X131542535Y-121450289D01*
X131487105Y-121219406D01*
X131396240Y-121000037D01*
X131393654Y-120995817D01*
X131274759Y-120801798D01*
X131274755Y-120801792D01*
X131272176Y-120797584D01*
X131117969Y-120617031D01*
X131114213Y-120613823D01*
X131114208Y-120613818D01*
X130995944Y-120512811D01*
X130957134Y-120453361D01*
X130956628Y-120382366D01*
X130995944Y-120321189D01*
X131114208Y-120220182D01*
X131114213Y-120220177D01*
X131117969Y-120216969D01*
X131272176Y-120036416D01*
X131274755Y-120032208D01*
X131274759Y-120032202D01*
X131393654Y-119838183D01*
X131396240Y-119833963D01*
X131415402Y-119787703D01*
X131485211Y-119619167D01*
X131485212Y-119619165D01*
X131487105Y-119614594D01*
X131510415Y-119517500D01*
X131541380Y-119388524D01*
X131541381Y-119388518D01*
X131542535Y-119383711D01*
X131561165Y-119147000D01*
X131542535Y-118910289D01*
X131527169Y-118846282D01*
X131488260Y-118684218D01*
X131487105Y-118679406D01*
X131432444Y-118547442D01*
X131398135Y-118464611D01*
X131398133Y-118464607D01*
X131396240Y-118460037D01*
X131308126Y-118316248D01*
X131274759Y-118261798D01*
X131274755Y-118261792D01*
X131272176Y-118257584D01*
X131117969Y-118077031D01*
X131114213Y-118073823D01*
X131114208Y-118073818D01*
X130995944Y-117972811D01*
X130957134Y-117913361D01*
X130956628Y-117842366D01*
X130995944Y-117781189D01*
X131114208Y-117680182D01*
X131114213Y-117680177D01*
X131117969Y-117676969D01*
X131272176Y-117496416D01*
X131274755Y-117492208D01*
X131274759Y-117492202D01*
X131393654Y-117298183D01*
X131396240Y-117293963D01*
X131423120Y-117229070D01*
X131485211Y-117079167D01*
X131485212Y-117079165D01*
X131487105Y-117074594D01*
X131517454Y-116948182D01*
X131541380Y-116848524D01*
X131541381Y-116848518D01*
X131542535Y-116843711D01*
X131561165Y-116607000D01*
X131542535Y-116370289D01*
X131533253Y-116331624D01*
X131488260Y-116144218D01*
X131487105Y-116139406D01*
X131485211Y-116134833D01*
X131398135Y-115924611D01*
X131398133Y-115924607D01*
X131396240Y-115920037D01*
X131393654Y-115915817D01*
X131274759Y-115721798D01*
X131274755Y-115721792D01*
X131272176Y-115717584D01*
X131117969Y-115537031D01*
X131114213Y-115533823D01*
X131114208Y-115533818D01*
X130995944Y-115432811D01*
X130957134Y-115373361D01*
X130956628Y-115302366D01*
X130995944Y-115241189D01*
X131114208Y-115140182D01*
X131114213Y-115140177D01*
X131117969Y-115136969D01*
X131125652Y-115127974D01*
X131160604Y-115087050D01*
X131272176Y-114956416D01*
X131274755Y-114952208D01*
X131274759Y-114952202D01*
X131393654Y-114758183D01*
X131396240Y-114753963D01*
X131420281Y-114695924D01*
X131485211Y-114539167D01*
X131485212Y-114539165D01*
X131487105Y-114534594D01*
X131521918Y-114389589D01*
X131541380Y-114308524D01*
X131541381Y-114308518D01*
X131542535Y-114303711D01*
X131561165Y-114067000D01*
X131542535Y-113830289D01*
X131532744Y-113789504D01*
X131501956Y-113661266D01*
X131487105Y-113599406D01*
X131475269Y-113570831D01*
X131398135Y-113384611D01*
X131398133Y-113384607D01*
X131396240Y-113380037D01*
X131380038Y-113353598D01*
X131274759Y-113181798D01*
X131274755Y-113181792D01*
X131272176Y-113177584D01*
X131117969Y-112997031D01*
X131114213Y-112993823D01*
X131114208Y-112993818D01*
X130995944Y-112892811D01*
X130957134Y-112833361D01*
X130956628Y-112762366D01*
X130995944Y-112701189D01*
X131114208Y-112600182D01*
X131114213Y-112600177D01*
X131117969Y-112596969D01*
X131272176Y-112416416D01*
X131274755Y-112412208D01*
X131274759Y-112412202D01*
X131393654Y-112218183D01*
X131396240Y-112213963D01*
X131469816Y-112036335D01*
X131485211Y-111999167D01*
X131485212Y-111999165D01*
X131487105Y-111994594D01*
X131506360Y-111914391D01*
X131541380Y-111768524D01*
X131541381Y-111768518D01*
X131542535Y-111763711D01*
X131561165Y-111527000D01*
X131542535Y-111290289D01*
X131538350Y-111272854D01*
X131488260Y-111064218D01*
X131487105Y-111059406D01*
X131396240Y-110840037D01*
X131393654Y-110835817D01*
X131274759Y-110641798D01*
X131274755Y-110641792D01*
X131272176Y-110637584D01*
X131117969Y-110457031D01*
X131114213Y-110453823D01*
X131114208Y-110453818D01*
X130995944Y-110352811D01*
X130957134Y-110293361D01*
X130956628Y-110222366D01*
X130995944Y-110161189D01*
X131114208Y-110060182D01*
X131114213Y-110060177D01*
X131117969Y-110056969D01*
X131272176Y-109876416D01*
X131274755Y-109872208D01*
X131274759Y-109872202D01*
X131393654Y-109678183D01*
X131396240Y-109673963D01*
X131487105Y-109454594D01*
X131542535Y-109223711D01*
X131561165Y-108987000D01*
X131542535Y-108750289D01*
X131487105Y-108519406D01*
X131396240Y-108300037D01*
X131393654Y-108295817D01*
X131274759Y-108101798D01*
X131274755Y-108101792D01*
X131272176Y-108097584D01*
X131117969Y-107917031D01*
X131114213Y-107913823D01*
X131114208Y-107913818D01*
X130995944Y-107812811D01*
X130957134Y-107753361D01*
X130956628Y-107682366D01*
X130995944Y-107621189D01*
X131114208Y-107520182D01*
X131114213Y-107520177D01*
X131117969Y-107516969D01*
X131272176Y-107336416D01*
X131274755Y-107332208D01*
X131274759Y-107332202D01*
X131393654Y-107138183D01*
X131396240Y-107133963D01*
X131487105Y-106914594D01*
X131535362Y-106713589D01*
X131541380Y-106688524D01*
X131541381Y-106688518D01*
X131542535Y-106683711D01*
X131561165Y-106447000D01*
X131542535Y-106210289D01*
X131487105Y-105979406D01*
X131396240Y-105760037D01*
X131393654Y-105755817D01*
X131274759Y-105561798D01*
X131274755Y-105561792D01*
X131272176Y-105557584D01*
X131117969Y-105377031D01*
X131114213Y-105373823D01*
X131114208Y-105373818D01*
X130995944Y-105272811D01*
X130957134Y-105213361D01*
X130956628Y-105142366D01*
X130995944Y-105081189D01*
X131114208Y-104980182D01*
X131114213Y-104980177D01*
X131117969Y-104976969D01*
X131272176Y-104796416D01*
X131274755Y-104792208D01*
X131274759Y-104792202D01*
X131393654Y-104598183D01*
X131396240Y-104593963D01*
X131487105Y-104374594D01*
X131542535Y-104143711D01*
X131561165Y-103907000D01*
X131542535Y-103670289D01*
X131487105Y-103439406D01*
X131485211Y-103434833D01*
X131398135Y-103224611D01*
X131398133Y-103224607D01*
X131396240Y-103220037D01*
X131393654Y-103215817D01*
X131274759Y-103021798D01*
X131274755Y-103021792D01*
X131272176Y-103017584D01*
X131117969Y-102837031D01*
X130937416Y-102682824D01*
X130933196Y-102680238D01*
X130913974Y-102668458D01*
X130866343Y-102615810D01*
X130854737Y-102545768D01*
X130882841Y-102480571D01*
X130941732Y-102440918D01*
X130953608Y-102437780D01*
X131072970Y-102412409D01*
X131077099Y-102410906D01*
X131077103Y-102410905D01*
X131332781Y-102317846D01*
X131332785Y-102317844D01*
X131336926Y-102316337D01*
X131584942Y-102184464D01*
X131689896Y-102108211D01*
X131808629Y-102021947D01*
X131808632Y-102021944D01*
X131812192Y-102019358D01*
X132014252Y-101824231D01*
X132187188Y-101602882D01*
X132189384Y-101599078D01*
X132189389Y-101599071D01*
X132325435Y-101363431D01*
X132327636Y-101359619D01*
X132432862Y-101099176D01*
X132466544Y-100964087D01*
X132499753Y-100830893D01*
X132499754Y-100830888D01*
X132500817Y-100826624D01*
X132501517Y-100819971D01*
X132529719Y-100551636D01*
X132529719Y-100551633D01*
X132530178Y-100547267D01*
X132520375Y-100266542D01*
X132496608Y-100131749D01*
X132472360Y-99994236D01*
X132471598Y-99989913D01*
X132384797Y-99722765D01*
X132261660Y-99470298D01*
X132259205Y-99466659D01*
X132259202Y-99466653D01*
X132151695Y-99307268D01*
X132104585Y-99237424D01*
X131916629Y-99028678D01*
X131701450Y-98848121D01*
X131530586Y-98741353D01*
X131483416Y-98688293D01*
X131472421Y-98618153D01*
X131501092Y-98553203D01*
X131560326Y-98514064D01*
X131597356Y-98508500D01*
X133842000Y-98508500D01*
X133910121Y-98528502D01*
X133956614Y-98582158D01*
X133968000Y-98634500D01*
X133968000Y-104967000D01*
X151658000Y-104967000D01*
X151658000Y-98634500D01*
X151678002Y-98566379D01*
X151731658Y-98519886D01*
X151784000Y-98508500D01*
X153946637Y-98508500D01*
X154014758Y-98528502D01*
X154061251Y-98582158D01*
X154071355Y-98652432D01*
X154041861Y-98717012D01*
X154005790Y-98745751D01*
X153964950Y-98767466D01*
X153964944Y-98767470D01*
X153961058Y-98769536D01*
X153957499Y-98772122D01*
X153957497Y-98772123D01*
X153852895Y-98848121D01*
X153733808Y-98934642D01*
X153531748Y-99129769D01*
X153358812Y-99351118D01*
X153356616Y-99354922D01*
X153356611Y-99354929D01*
X153242794Y-99552067D01*
X153218364Y-99594381D01*
X153113138Y-99854824D01*
X153112073Y-99859097D01*
X153112072Y-99859099D01*
X153078379Y-99994236D01*
X153045183Y-100127376D01*
X153015822Y-100406733D01*
X153015975Y-100411121D01*
X153015975Y-100411127D01*
X153019697Y-100517686D01*
X153025625Y-100687458D01*
X153026387Y-100691781D01*
X153026388Y-100691788D01*
X153050164Y-100826624D01*
X153074402Y-100964087D01*
X153161203Y-101231235D01*
X153284340Y-101483702D01*
X153286795Y-101487341D01*
X153286798Y-101487347D01*
X153288282Y-101489547D01*
X153441415Y-101716576D01*
X153629371Y-101925322D01*
X153844550Y-102105879D01*
X154082764Y-102254731D01*
X154339375Y-102368982D01*
X154343603Y-102370194D01*
X154343602Y-102370194D01*
X154562333Y-102432914D01*
X154622302Y-102470918D01*
X154652204Y-102535310D01*
X154642547Y-102605647D01*
X154593437Y-102661466D01*
X154562803Y-102680238D01*
X154562802Y-102680239D01*
X154558584Y-102682824D01*
X154378031Y-102837031D01*
X154223824Y-103017584D01*
X154221245Y-103021792D01*
X154221241Y-103021798D01*
X154102346Y-103215817D01*
X154099760Y-103220037D01*
X154097867Y-103224607D01*
X154097865Y-103224611D01*
X154010789Y-103434833D01*
X154008895Y-103439406D01*
X153953465Y-103670289D01*
X153934835Y-103907000D01*
X153953465Y-104143711D01*
X154008895Y-104374594D01*
X154099760Y-104593963D01*
X154102346Y-104598183D01*
X154221241Y-104792202D01*
X154221245Y-104792208D01*
X154223824Y-104796416D01*
X154378031Y-104976969D01*
X154381787Y-104980177D01*
X154381792Y-104980182D01*
X154500056Y-105081189D01*
X154538866Y-105140639D01*
X154539372Y-105211634D01*
X154500056Y-105272811D01*
X154381792Y-105373818D01*
X154381787Y-105373823D01*
X154378031Y-105377031D01*
X154223824Y-105557584D01*
X154221245Y-105561792D01*
X154221241Y-105561798D01*
X154102346Y-105755817D01*
X154099760Y-105760037D01*
X154008895Y-105979406D01*
X153953465Y-106210289D01*
X153934835Y-106447000D01*
X153953465Y-106683711D01*
X153954619Y-106688518D01*
X153954620Y-106688524D01*
X153960638Y-106713589D01*
X154008895Y-106914594D01*
X154099760Y-107133963D01*
X154102346Y-107138183D01*
X154221241Y-107332202D01*
X154221245Y-107332208D01*
X154223824Y-107336416D01*
X154378031Y-107516969D01*
X154381787Y-107520177D01*
X154381792Y-107520182D01*
X154500056Y-107621189D01*
X154538866Y-107680639D01*
X154539372Y-107751634D01*
X154500056Y-107812811D01*
X154381792Y-107913818D01*
X154381787Y-107913823D01*
X154378031Y-107917031D01*
X154223824Y-108097584D01*
X154221245Y-108101792D01*
X154221241Y-108101798D01*
X154102346Y-108295817D01*
X154099760Y-108300037D01*
X154008895Y-108519406D01*
X153953465Y-108750289D01*
X153934835Y-108987000D01*
X153953465Y-109223711D01*
X154008895Y-109454594D01*
X154099760Y-109673963D01*
X154102346Y-109678183D01*
X154221241Y-109872202D01*
X154221245Y-109872208D01*
X154223824Y-109876416D01*
X154378031Y-110056969D01*
X154381787Y-110060177D01*
X154381792Y-110060182D01*
X154500056Y-110161189D01*
X154538866Y-110220639D01*
X154539372Y-110291634D01*
X154500056Y-110352811D01*
X154381792Y-110453818D01*
X154381787Y-110453823D01*
X154378031Y-110457031D01*
X154223824Y-110637584D01*
X154221245Y-110641792D01*
X154221241Y-110641798D01*
X154102346Y-110835817D01*
X154099760Y-110840037D01*
X154008895Y-111059406D01*
X154007740Y-111064218D01*
X153957651Y-111272854D01*
X153953465Y-111290289D01*
X153934835Y-111527000D01*
X153953465Y-111763711D01*
X153954619Y-111768518D01*
X153954620Y-111768524D01*
X153989640Y-111914391D01*
X154008895Y-111994594D01*
X154010788Y-111999165D01*
X154010789Y-111999167D01*
X154026185Y-112036335D01*
X154099760Y-112213963D01*
X154102346Y-112218183D01*
X154221241Y-112412202D01*
X154221245Y-112412208D01*
X154223824Y-112416416D01*
X154378031Y-112596969D01*
X154381787Y-112600177D01*
X154381792Y-112600182D01*
X154500056Y-112701189D01*
X154538866Y-112760639D01*
X154539372Y-112831634D01*
X154500056Y-112892811D01*
X154381792Y-112993818D01*
X154381787Y-112993823D01*
X154378031Y-112997031D01*
X154223824Y-113177584D01*
X154221245Y-113181792D01*
X154221241Y-113181798D01*
X154115962Y-113353598D01*
X154099760Y-113380037D01*
X154097867Y-113384607D01*
X154097865Y-113384611D01*
X154020731Y-113570831D01*
X154008895Y-113599406D01*
X153994044Y-113661266D01*
X153963257Y-113789504D01*
X153953465Y-113830289D01*
X153934835Y-114067000D01*
X153953465Y-114303711D01*
X153954619Y-114308518D01*
X153954620Y-114308524D01*
X153974082Y-114389589D01*
X154008895Y-114534594D01*
X154010788Y-114539165D01*
X154010789Y-114539167D01*
X154075720Y-114695924D01*
X154099760Y-114753963D01*
X154102346Y-114758183D01*
X154221241Y-114952202D01*
X154221245Y-114952208D01*
X154223824Y-114956416D01*
X154335396Y-115087050D01*
X154370349Y-115127974D01*
X154378031Y-115136969D01*
X154381787Y-115140177D01*
X154381792Y-115140182D01*
X154500056Y-115241189D01*
X154538866Y-115300639D01*
X154539372Y-115371634D01*
X154500056Y-115432811D01*
X154381792Y-115533818D01*
X154381787Y-115533823D01*
X154378031Y-115537031D01*
X154223824Y-115717584D01*
X154221245Y-115721792D01*
X154221241Y-115721798D01*
X154102346Y-115915817D01*
X154099760Y-115920037D01*
X154097867Y-115924607D01*
X154097865Y-115924611D01*
X154010789Y-116134833D01*
X154008895Y-116139406D01*
X154007740Y-116144218D01*
X153962748Y-116331624D01*
X153953465Y-116370289D01*
X153934835Y-116607000D01*
X153953465Y-116843711D01*
X153954619Y-116848518D01*
X153954620Y-116848524D01*
X153978546Y-116948182D01*
X154008895Y-117074594D01*
X154010788Y-117079165D01*
X154010789Y-117079167D01*
X154072881Y-117229070D01*
X154099760Y-117293963D01*
X154102346Y-117298183D01*
X154221241Y-117492202D01*
X154221245Y-117492208D01*
X154223824Y-117496416D01*
X154378031Y-117676969D01*
X154381787Y-117680177D01*
X154381792Y-117680182D01*
X154500056Y-117781189D01*
X154538866Y-117840639D01*
X154539372Y-117911634D01*
X154500056Y-117972811D01*
X154381792Y-118073818D01*
X154381787Y-118073823D01*
X154378031Y-118077031D01*
X154223824Y-118257584D01*
X154221245Y-118261792D01*
X154221241Y-118261798D01*
X154187874Y-118316248D01*
X154099760Y-118460037D01*
X154097867Y-118464607D01*
X154097865Y-118464611D01*
X154063556Y-118547442D01*
X154008895Y-118679406D01*
X154007740Y-118684218D01*
X153968832Y-118846282D01*
X153953465Y-118910289D01*
X153934835Y-119147000D01*
X153953465Y-119383711D01*
X153954619Y-119388518D01*
X153954620Y-119388524D01*
X153985585Y-119517500D01*
X154008895Y-119614594D01*
X154010788Y-119619165D01*
X154010789Y-119619167D01*
X154080599Y-119787703D01*
X154099760Y-119833963D01*
X154102346Y-119838183D01*
X154221241Y-120032202D01*
X154221245Y-120032208D01*
X154223824Y-120036416D01*
X154378031Y-120216969D01*
X154381787Y-120220177D01*
X154381792Y-120220182D01*
X154500056Y-120321189D01*
X154538866Y-120380639D01*
X154539372Y-120451634D01*
X154500056Y-120512811D01*
X154381792Y-120613818D01*
X154381787Y-120613823D01*
X154378031Y-120617031D01*
X154223824Y-120797584D01*
X154221245Y-120801792D01*
X154221241Y-120801798D01*
X154102346Y-120995817D01*
X154099760Y-121000037D01*
X154008895Y-121219406D01*
X153953465Y-121450289D01*
X153934835Y-121687000D01*
X153953465Y-121923711D01*
X154008895Y-122154594D01*
X154099760Y-122373963D01*
X154102346Y-122378183D01*
X154221241Y-122572202D01*
X154221245Y-122572208D01*
X154223824Y-122576416D01*
X154378031Y-122756969D01*
X154381787Y-122760177D01*
X154381792Y-122760182D01*
X154500056Y-122861189D01*
X154538866Y-122920639D01*
X154539372Y-122991634D01*
X154500056Y-123052811D01*
X154381792Y-123153818D01*
X154381787Y-123153823D01*
X154378031Y-123157031D01*
X154223824Y-123337584D01*
X154221245Y-123341792D01*
X154221241Y-123341798D01*
X154102346Y-123535817D01*
X154099760Y-123540037D01*
X154008895Y-123759406D01*
X153953465Y-123990289D01*
X153934835Y-124227000D01*
X153953465Y-124463711D01*
X154008895Y-124694594D01*
X154099760Y-124913963D01*
X154102346Y-124918183D01*
X154221241Y-125112202D01*
X154221245Y-125112208D01*
X154223824Y-125116416D01*
X154378031Y-125296969D01*
X154381787Y-125300177D01*
X154381792Y-125300182D01*
X154500056Y-125401189D01*
X154538866Y-125460639D01*
X154539372Y-125531634D01*
X154500056Y-125592811D01*
X154381792Y-125693818D01*
X154381787Y-125693823D01*
X154378031Y-125697031D01*
X154223824Y-125877584D01*
X154221245Y-125881792D01*
X154221241Y-125881798D01*
X154102346Y-126075817D01*
X154099760Y-126080037D01*
X154008895Y-126299406D01*
X154007740Y-126304218D01*
X153956559Y-126517402D01*
X153953465Y-126530289D01*
X153934835Y-126767000D01*
X153953465Y-127003711D01*
X154008895Y-127234594D01*
X154099760Y-127453963D01*
X154102346Y-127458183D01*
X154221241Y-127652202D01*
X154221245Y-127652208D01*
X154223824Y-127656416D01*
X154378031Y-127836969D01*
X154381787Y-127840177D01*
X154381792Y-127840182D01*
X154500056Y-127941189D01*
X154538866Y-128000639D01*
X154539372Y-128071634D01*
X154500056Y-128132811D01*
X154381792Y-128233818D01*
X154381787Y-128233823D01*
X154378031Y-128237031D01*
X154223824Y-128417584D01*
X154221245Y-128421792D01*
X154221241Y-128421798D01*
X154102346Y-128615817D01*
X154099760Y-128620037D01*
X154008895Y-128839406D01*
X153953465Y-129070289D01*
X153934835Y-129307000D01*
X153953465Y-129543711D01*
X154008895Y-129774594D01*
X154099760Y-129993963D01*
X154102346Y-129998183D01*
X154221241Y-130192202D01*
X154221245Y-130192208D01*
X154223824Y-130196416D01*
X154378031Y-130376969D01*
X154381787Y-130380177D01*
X154381792Y-130380182D01*
X154500056Y-130481189D01*
X154538866Y-130540639D01*
X154539372Y-130611634D01*
X154500056Y-130672811D01*
X154381792Y-130773818D01*
X154381787Y-130773823D01*
X154378031Y-130777031D01*
X154223824Y-130957584D01*
X154221245Y-130961792D01*
X154221241Y-130961798D01*
X154102346Y-131155817D01*
X154099760Y-131160037D01*
X154008895Y-131379406D01*
X153953465Y-131610289D01*
X153934835Y-131847000D01*
X153953465Y-132083711D01*
X154008895Y-132314594D01*
X154099760Y-132533963D01*
X154102346Y-132538183D01*
X154221241Y-132732202D01*
X154221245Y-132732208D01*
X154223824Y-132736416D01*
X154378031Y-132916969D01*
X154381787Y-132920177D01*
X154381792Y-132920182D01*
X154500056Y-133021189D01*
X154538866Y-133080639D01*
X154539372Y-133151634D01*
X154500056Y-133212811D01*
X154381792Y-133313818D01*
X154381787Y-133313823D01*
X154378031Y-133317031D01*
X154223824Y-133497584D01*
X154221245Y-133501792D01*
X154221241Y-133501798D01*
X154102346Y-133695817D01*
X154099760Y-133700037D01*
X154008895Y-133919406D01*
X153953465Y-134150289D01*
X153934835Y-134387000D01*
X153953465Y-134623711D01*
X154008895Y-134854594D01*
X154099760Y-135073963D01*
X154102346Y-135078183D01*
X154221241Y-135272202D01*
X154221245Y-135272208D01*
X154223824Y-135276416D01*
X154378031Y-135456969D01*
X154381787Y-135460177D01*
X154381792Y-135460182D01*
X154534616Y-135590706D01*
X154573426Y-135650156D01*
X154575640Y-135684558D01*
X154583877Y-135703667D01*
X155435188Y-136554978D01*
X155449132Y-136562592D01*
X155450965Y-136562461D01*
X155457580Y-136558210D01*
X156309080Y-135706710D01*
X156318260Y-135689898D01*
X156332020Y-135626650D01*
X156360776Y-135591225D01*
X156514213Y-135460177D01*
X156517969Y-135456969D01*
X156672176Y-135276416D01*
X156674755Y-135272208D01*
X156674759Y-135272202D01*
X156793654Y-135078183D01*
X156796240Y-135073963D01*
X156887105Y-134854594D01*
X156942535Y-134623711D01*
X156961165Y-134387000D01*
X156942535Y-134150289D01*
X156887105Y-133919406D01*
X156796240Y-133700037D01*
X156793654Y-133695817D01*
X156674759Y-133501798D01*
X156674755Y-133501792D01*
X156672176Y-133497584D01*
X156517969Y-133317031D01*
X156514213Y-133313823D01*
X156514208Y-133313818D01*
X156395944Y-133212811D01*
X156357134Y-133153361D01*
X156356628Y-133082366D01*
X156395944Y-133021189D01*
X156514208Y-132920182D01*
X156514213Y-132920177D01*
X156517969Y-132916969D01*
X156672176Y-132736416D01*
X156674755Y-132732208D01*
X156674759Y-132732202D01*
X156793654Y-132538183D01*
X156796240Y-132533963D01*
X156887105Y-132314594D01*
X156942535Y-132083711D01*
X156961165Y-131847000D01*
X156942535Y-131610289D01*
X156887105Y-131379406D01*
X156796240Y-131160037D01*
X156793654Y-131155817D01*
X156674759Y-130961798D01*
X156674755Y-130961792D01*
X156672176Y-130957584D01*
X156517969Y-130777031D01*
X156514213Y-130773823D01*
X156514208Y-130773818D01*
X156395944Y-130672811D01*
X156357134Y-130613361D01*
X156356628Y-130542366D01*
X156395944Y-130481189D01*
X156514208Y-130380182D01*
X156514213Y-130380177D01*
X156517969Y-130376969D01*
X156672176Y-130196416D01*
X156674755Y-130192208D01*
X156674759Y-130192202D01*
X156793654Y-129998183D01*
X156796240Y-129993963D01*
X156887105Y-129774594D01*
X156942535Y-129543711D01*
X156961165Y-129307000D01*
X156942535Y-129070289D01*
X156887105Y-128839406D01*
X156796240Y-128620037D01*
X156793654Y-128615817D01*
X156674759Y-128421798D01*
X156674755Y-128421792D01*
X156672176Y-128417584D01*
X156517969Y-128237031D01*
X156514213Y-128233823D01*
X156514208Y-128233818D01*
X156395944Y-128132811D01*
X156357134Y-128073361D01*
X156356628Y-128002366D01*
X156395944Y-127941189D01*
X156514208Y-127840182D01*
X156514213Y-127840177D01*
X156517969Y-127836969D01*
X156672176Y-127656416D01*
X156674755Y-127652208D01*
X156674759Y-127652202D01*
X156793654Y-127458183D01*
X156796240Y-127453963D01*
X156887105Y-127234594D01*
X156942535Y-127003711D01*
X156961165Y-126767000D01*
X156942535Y-126530289D01*
X156939442Y-126517402D01*
X156888260Y-126304218D01*
X156887105Y-126299406D01*
X156796240Y-126080037D01*
X156793654Y-126075817D01*
X156674759Y-125881798D01*
X156674755Y-125881792D01*
X156672176Y-125877584D01*
X156517969Y-125697031D01*
X156514213Y-125693823D01*
X156514208Y-125693818D01*
X156395944Y-125592811D01*
X156357134Y-125533361D01*
X156356628Y-125462366D01*
X156395944Y-125401189D01*
X156514208Y-125300182D01*
X156514213Y-125300177D01*
X156517969Y-125296969D01*
X156672176Y-125116416D01*
X156674755Y-125112208D01*
X156674759Y-125112202D01*
X156793654Y-124918183D01*
X156796240Y-124913963D01*
X156887105Y-124694594D01*
X156942535Y-124463711D01*
X156961165Y-124227000D01*
X156942535Y-123990289D01*
X156887105Y-123759406D01*
X156796240Y-123540037D01*
X156793654Y-123535817D01*
X156674759Y-123341798D01*
X156674755Y-123341792D01*
X156672176Y-123337584D01*
X156517969Y-123157031D01*
X156514213Y-123153823D01*
X156514208Y-123153818D01*
X156395944Y-123052811D01*
X156357134Y-122993361D01*
X156356628Y-122922366D01*
X156395944Y-122861189D01*
X156514208Y-122760182D01*
X156514213Y-122760177D01*
X156517969Y-122756969D01*
X156672176Y-122576416D01*
X156674755Y-122572208D01*
X156674759Y-122572202D01*
X156793654Y-122378183D01*
X156796240Y-122373963D01*
X156887105Y-122154594D01*
X156942535Y-121923711D01*
X156961165Y-121687000D01*
X156942535Y-121450289D01*
X156887105Y-121219406D01*
X156796240Y-121000037D01*
X156793654Y-120995817D01*
X156674759Y-120801798D01*
X156674755Y-120801792D01*
X156672176Y-120797584D01*
X156517969Y-120617031D01*
X156514213Y-120613823D01*
X156514208Y-120613818D01*
X156395944Y-120512811D01*
X156357134Y-120453361D01*
X156356628Y-120382366D01*
X156395944Y-120321189D01*
X156514208Y-120220182D01*
X156514213Y-120220177D01*
X156517969Y-120216969D01*
X156672176Y-120036416D01*
X156674755Y-120032208D01*
X156674759Y-120032202D01*
X156793654Y-119838183D01*
X156796240Y-119833963D01*
X156815402Y-119787703D01*
X156885211Y-119619167D01*
X156885212Y-119619165D01*
X156887105Y-119614594D01*
X156910415Y-119517500D01*
X156941380Y-119388524D01*
X156941381Y-119388518D01*
X156942535Y-119383711D01*
X156961165Y-119147000D01*
X156942535Y-118910289D01*
X156927169Y-118846282D01*
X156888260Y-118684218D01*
X156887105Y-118679406D01*
X156832444Y-118547442D01*
X156798135Y-118464611D01*
X156798133Y-118464607D01*
X156796240Y-118460037D01*
X156708126Y-118316248D01*
X156674759Y-118261798D01*
X156674755Y-118261792D01*
X156672176Y-118257584D01*
X156517969Y-118077031D01*
X156514213Y-118073823D01*
X156514208Y-118073818D01*
X156395944Y-117972811D01*
X156357134Y-117913361D01*
X156356628Y-117842366D01*
X156395944Y-117781189D01*
X156514208Y-117680182D01*
X156514213Y-117680177D01*
X156517969Y-117676969D01*
X156672176Y-117496416D01*
X156674755Y-117492208D01*
X156674759Y-117492202D01*
X156793654Y-117298183D01*
X156796240Y-117293963D01*
X156823120Y-117229070D01*
X156885211Y-117079167D01*
X156885212Y-117079165D01*
X156887105Y-117074594D01*
X156917454Y-116948182D01*
X156941380Y-116848524D01*
X156941381Y-116848518D01*
X156942535Y-116843711D01*
X156961165Y-116607000D01*
X156942535Y-116370289D01*
X156933253Y-116331624D01*
X156888260Y-116144218D01*
X156887105Y-116139406D01*
X156885211Y-116134833D01*
X156798135Y-115924611D01*
X156798133Y-115924607D01*
X156796240Y-115920037D01*
X156793654Y-115915817D01*
X156674759Y-115721798D01*
X156674755Y-115721792D01*
X156672176Y-115717584D01*
X156517969Y-115537031D01*
X156514213Y-115533823D01*
X156514208Y-115533818D01*
X156395944Y-115432811D01*
X156357134Y-115373361D01*
X156356628Y-115302366D01*
X156395944Y-115241189D01*
X156514208Y-115140182D01*
X156514213Y-115140177D01*
X156517969Y-115136969D01*
X156525652Y-115127974D01*
X156560604Y-115087050D01*
X156672176Y-114956416D01*
X156674755Y-114952208D01*
X156674759Y-114952202D01*
X156793654Y-114758183D01*
X156796240Y-114753963D01*
X156820281Y-114695924D01*
X156885211Y-114539167D01*
X156885212Y-114539165D01*
X156887105Y-114534594D01*
X156921918Y-114389589D01*
X156941380Y-114308524D01*
X156941381Y-114308518D01*
X156942535Y-114303711D01*
X156961165Y-114067000D01*
X156942535Y-113830289D01*
X156932744Y-113789504D01*
X156901956Y-113661266D01*
X156887105Y-113599406D01*
X156875269Y-113570831D01*
X156798135Y-113384611D01*
X156798133Y-113384607D01*
X156796240Y-113380037D01*
X156780038Y-113353598D01*
X156674759Y-113181798D01*
X156674755Y-113181792D01*
X156672176Y-113177584D01*
X156517969Y-112997031D01*
X156514213Y-112993823D01*
X156514208Y-112993818D01*
X156395944Y-112892811D01*
X156357134Y-112833361D01*
X156356628Y-112762366D01*
X156395944Y-112701189D01*
X156514208Y-112600182D01*
X156514213Y-112600177D01*
X156517969Y-112596969D01*
X156672176Y-112416416D01*
X156674755Y-112412208D01*
X156674759Y-112412202D01*
X156793654Y-112218183D01*
X156796240Y-112213963D01*
X156869816Y-112036335D01*
X156885211Y-111999167D01*
X156885212Y-111999165D01*
X156887105Y-111994594D01*
X156906360Y-111914391D01*
X156941380Y-111768524D01*
X156941381Y-111768518D01*
X156942535Y-111763711D01*
X156961165Y-111527000D01*
X156942535Y-111290289D01*
X156938350Y-111272854D01*
X156888260Y-111064218D01*
X156887105Y-111059406D01*
X156796240Y-110840037D01*
X156793654Y-110835817D01*
X156674759Y-110641798D01*
X156674755Y-110641792D01*
X156672176Y-110637584D01*
X156517969Y-110457031D01*
X156514213Y-110453823D01*
X156514208Y-110453818D01*
X156395944Y-110352811D01*
X156357134Y-110293361D01*
X156356628Y-110222366D01*
X156395944Y-110161189D01*
X156514208Y-110060182D01*
X156514213Y-110060177D01*
X156517969Y-110056969D01*
X156672176Y-109876416D01*
X156674755Y-109872208D01*
X156674759Y-109872202D01*
X156793654Y-109678183D01*
X156796240Y-109673963D01*
X156887105Y-109454594D01*
X156942535Y-109223711D01*
X156961165Y-108987000D01*
X156942535Y-108750289D01*
X156887105Y-108519406D01*
X156796240Y-108300037D01*
X156793654Y-108295817D01*
X156674759Y-108101798D01*
X156674755Y-108101792D01*
X156672176Y-108097584D01*
X156517969Y-107917031D01*
X156514213Y-107913823D01*
X156514208Y-107913818D01*
X156395944Y-107812811D01*
X156357134Y-107753361D01*
X156356628Y-107682366D01*
X156395944Y-107621189D01*
X156514208Y-107520182D01*
X156514213Y-107520177D01*
X156517969Y-107516969D01*
X156672176Y-107336416D01*
X156674755Y-107332208D01*
X156674759Y-107332202D01*
X156793654Y-107138183D01*
X156796240Y-107133963D01*
X156887105Y-106914594D01*
X156935362Y-106713589D01*
X156941380Y-106688524D01*
X156941381Y-106688518D01*
X156942535Y-106683711D01*
X156961165Y-106447000D01*
X156942535Y-106210289D01*
X156887105Y-105979406D01*
X156796240Y-105760037D01*
X156793654Y-105755817D01*
X156674759Y-105561798D01*
X156674755Y-105561792D01*
X156672176Y-105557584D01*
X156517969Y-105377031D01*
X156514213Y-105373823D01*
X156514208Y-105373818D01*
X156395944Y-105272811D01*
X156357134Y-105213361D01*
X156356628Y-105142366D01*
X156395944Y-105081189D01*
X156514208Y-104980182D01*
X156514213Y-104980177D01*
X156517969Y-104976969D01*
X156672176Y-104796416D01*
X156674755Y-104792208D01*
X156674759Y-104792202D01*
X156793654Y-104598183D01*
X156796240Y-104593963D01*
X156887105Y-104374594D01*
X156942535Y-104143711D01*
X156961165Y-103907000D01*
X156942535Y-103670289D01*
X156887105Y-103439406D01*
X156885211Y-103434833D01*
X156798135Y-103224611D01*
X156798133Y-103224607D01*
X156796240Y-103220037D01*
X156793654Y-103215817D01*
X156674759Y-103021798D01*
X156674755Y-103021792D01*
X156672176Y-103017584D01*
X156657158Y-103000000D01*
X161286411Y-103000000D01*
X161306754Y-103388176D01*
X161307267Y-103391416D01*
X161307268Y-103391424D01*
X161314868Y-103439406D01*
X161367562Y-103772099D01*
X161468167Y-104147562D01*
X161607468Y-104510453D01*
X161608966Y-104513393D01*
X161753174Y-104796416D01*
X161783938Y-104856794D01*
X161785734Y-104859560D01*
X161785736Y-104859563D01*
X161991881Y-105177000D01*
X161995643Y-105182793D01*
X162240266Y-105484876D01*
X162515124Y-105759734D01*
X162517682Y-105761806D01*
X162517686Y-105761809D01*
X162666165Y-105882045D01*
X162817207Y-106004357D01*
X163143205Y-106216062D01*
X163146139Y-106217557D01*
X163146146Y-106217561D01*
X163486607Y-106391034D01*
X163489547Y-106392532D01*
X163852438Y-106531833D01*
X164227901Y-106632438D01*
X164431793Y-106664732D01*
X164608576Y-106692732D01*
X164608584Y-106692733D01*
X164611824Y-106693246D01*
X165000000Y-106713589D01*
X165388176Y-106693246D01*
X165391416Y-106692733D01*
X165391424Y-106692732D01*
X165568207Y-106664732D01*
X165772099Y-106632438D01*
X166147562Y-106531833D01*
X166510453Y-106392532D01*
X166513393Y-106391034D01*
X166853854Y-106217561D01*
X166853861Y-106217557D01*
X166856795Y-106216062D01*
X167182793Y-106004357D01*
X167333834Y-105882046D01*
X167482314Y-105761809D01*
X167482318Y-105761806D01*
X167484876Y-105759734D01*
X167759734Y-105484876D01*
X168004357Y-105182793D01*
X168008119Y-105177000D01*
X168214264Y-104859563D01*
X168214266Y-104859560D01*
X168216062Y-104856794D01*
X168246827Y-104796416D01*
X168391034Y-104513393D01*
X168392532Y-104510453D01*
X168531833Y-104147562D01*
X168632438Y-103772099D01*
X168685132Y-103439406D01*
X168692732Y-103391424D01*
X168692733Y-103391416D01*
X168693246Y-103388176D01*
X168713589Y-103000000D01*
X168693246Y-102611824D01*
X168684842Y-102558760D01*
X168643917Y-102300378D01*
X168632438Y-102227901D01*
X168531833Y-101852438D01*
X168522179Y-101827287D01*
X168393716Y-101492632D01*
X168392532Y-101489547D01*
X168326330Y-101359619D01*
X168217561Y-101146147D01*
X168217557Y-101146140D01*
X168216062Y-101143206D01*
X168099742Y-100964087D01*
X168006152Y-100819971D01*
X168006152Y-100819970D01*
X168004357Y-100817207D01*
X167759734Y-100515124D01*
X167484876Y-100240266D01*
X167182793Y-99995643D01*
X166856795Y-99783938D01*
X166853861Y-99782443D01*
X166853854Y-99782439D01*
X166513393Y-99608966D01*
X166510453Y-99607468D01*
X166163409Y-99474250D01*
X166150652Y-99469353D01*
X166150650Y-99469352D01*
X166147562Y-99468167D01*
X165772099Y-99367562D01*
X165568207Y-99335268D01*
X165391424Y-99307268D01*
X165391416Y-99307267D01*
X165388176Y-99306754D01*
X165000000Y-99286411D01*
X164611824Y-99306754D01*
X164608584Y-99307267D01*
X164608576Y-99307268D01*
X164431793Y-99335268D01*
X164227901Y-99367562D01*
X163852438Y-99468167D01*
X163849350Y-99469352D01*
X163849348Y-99469353D01*
X163836591Y-99474250D01*
X163489547Y-99607468D01*
X163486607Y-99608966D01*
X163146147Y-99782439D01*
X163146140Y-99782443D01*
X163143206Y-99783938D01*
X163140440Y-99785734D01*
X163140437Y-99785736D01*
X162832464Y-99985735D01*
X162817207Y-99995643D01*
X162515124Y-100240266D01*
X162240266Y-100515124D01*
X161995643Y-100817207D01*
X161993848Y-100819970D01*
X161993848Y-100819971D01*
X161900259Y-100964087D01*
X161783938Y-101143206D01*
X161782443Y-101146140D01*
X161782439Y-101146147D01*
X161673670Y-101359619D01*
X161607468Y-101489547D01*
X161606284Y-101492632D01*
X161477822Y-101827287D01*
X161468167Y-101852438D01*
X161367562Y-102227901D01*
X161356083Y-102300378D01*
X161315159Y-102558760D01*
X161306754Y-102611824D01*
X161286411Y-103000000D01*
X156657158Y-103000000D01*
X156517969Y-102837031D01*
X156337416Y-102682824D01*
X156333208Y-102680245D01*
X156333202Y-102680241D01*
X156139183Y-102561346D01*
X156134963Y-102558760D01*
X156130393Y-102556867D01*
X156130389Y-102556865D01*
X156053646Y-102525078D01*
X155963594Y-102487777D01*
X155908314Y-102443230D01*
X155885893Y-102375867D01*
X155903451Y-102307075D01*
X155952659Y-102260118D01*
X156091056Y-102186530D01*
X156094942Y-102184464D01*
X156199896Y-102108211D01*
X156318629Y-102021947D01*
X156318632Y-102021944D01*
X156322192Y-102019358D01*
X156524252Y-101824231D01*
X156697188Y-101602882D01*
X156699384Y-101599078D01*
X156699389Y-101599071D01*
X156835435Y-101363431D01*
X156837636Y-101359619D01*
X156942862Y-101099176D01*
X156976544Y-100964087D01*
X157009753Y-100830893D01*
X157009754Y-100830888D01*
X157010817Y-100826624D01*
X157011517Y-100819971D01*
X157039719Y-100551636D01*
X157039719Y-100551633D01*
X157040178Y-100547267D01*
X157030375Y-100266542D01*
X157006608Y-100131749D01*
X156982360Y-99994236D01*
X156981598Y-99989913D01*
X156894797Y-99722765D01*
X156771660Y-99470298D01*
X156769205Y-99466659D01*
X156769202Y-99466653D01*
X156661695Y-99307268D01*
X156614585Y-99237424D01*
X156426629Y-99028678D01*
X156211450Y-98848121D01*
X156040586Y-98741353D01*
X155993416Y-98688293D01*
X155982421Y-98618153D01*
X156011092Y-98553203D01*
X156070326Y-98514064D01*
X156107356Y-98508500D01*
X169365500Y-98508500D01*
X169433621Y-98528502D01*
X169480114Y-98582158D01*
X169491500Y-98634500D01*
X169491500Y-149365500D01*
X169471498Y-149433621D01*
X169417842Y-149480114D01*
X169365500Y-149491500D01*
X155928814Y-149491500D01*
X155860693Y-149471498D01*
X155814200Y-149417842D01*
X155804096Y-149347568D01*
X155833590Y-149282988D01*
X155869660Y-149254249D01*
X155907158Y-149234311D01*
X156094942Y-149134464D01*
X156179645Y-149072924D01*
X156318629Y-148971947D01*
X156318632Y-148971944D01*
X156322192Y-148969358D01*
X156524252Y-148774231D01*
X156697188Y-148552882D01*
X156699384Y-148549078D01*
X156699389Y-148549071D01*
X156835435Y-148313431D01*
X156837636Y-148309619D01*
X156942862Y-148049176D01*
X156968220Y-147947470D01*
X157009753Y-147780893D01*
X157009754Y-147780888D01*
X157010817Y-147776624D01*
X157012593Y-147759734D01*
X157039719Y-147501636D01*
X157039719Y-147501633D01*
X157040178Y-147497267D01*
X157039827Y-147487213D01*
X157030529Y-147220939D01*
X157030528Y-147220933D01*
X157030375Y-147216542D01*
X157024425Y-147182793D01*
X156982360Y-146944236D01*
X156981598Y-146939913D01*
X156894797Y-146672765D01*
X156771660Y-146420298D01*
X156769205Y-146416659D01*
X156769202Y-146416653D01*
X156688935Y-146297653D01*
X156614585Y-146187424D01*
X156426629Y-145978678D01*
X156211450Y-145798121D01*
X155973236Y-145649269D01*
X155716625Y-145535018D01*
X155446610Y-145457593D01*
X155442260Y-145456982D01*
X155442257Y-145456981D01*
X155339310Y-145442513D01*
X155168448Y-145418500D01*
X154957854Y-145418500D01*
X154955668Y-145418653D01*
X154955664Y-145418653D01*
X154752173Y-145432882D01*
X154752168Y-145432883D01*
X154747788Y-145433189D01*
X154473030Y-145491591D01*
X154468901Y-145493094D01*
X154468897Y-145493095D01*
X154213219Y-145586154D01*
X154213215Y-145586156D01*
X154209074Y-145587663D01*
X153961058Y-145719536D01*
X153957499Y-145722122D01*
X153957497Y-145722123D01*
X153852895Y-145798121D01*
X153733808Y-145884642D01*
X153531748Y-146079769D01*
X153358812Y-146301118D01*
X153356616Y-146304922D01*
X153356611Y-146304929D01*
X153242794Y-146502067D01*
X153218364Y-146544381D01*
X153113138Y-146804824D01*
X153112073Y-146809097D01*
X153112072Y-146809099D01*
X153078379Y-146944236D01*
X153045183Y-147077376D01*
X153015822Y-147356733D01*
X153015975Y-147361121D01*
X153015975Y-147361127D01*
X153020297Y-147484876D01*
X153025625Y-147637458D01*
X153026387Y-147641781D01*
X153026388Y-147641788D01*
X153050164Y-147776624D01*
X153074402Y-147914087D01*
X153161203Y-148181235D01*
X153163131Y-148185188D01*
X153163133Y-148185193D01*
X153177312Y-148214264D01*
X153284340Y-148433702D01*
X153286795Y-148437341D01*
X153286798Y-148437347D01*
X153349730Y-148530647D01*
X153441415Y-148666576D01*
X153629371Y-148875322D01*
X153844550Y-149055879D01*
X154082764Y-149204731D01*
X154110716Y-149217176D01*
X154185322Y-149250393D01*
X154239418Y-149296373D01*
X154260067Y-149364301D01*
X154240715Y-149432609D01*
X154187504Y-149479610D01*
X154134073Y-149491500D01*
X131418814Y-149491500D01*
X131350693Y-149471498D01*
X131304200Y-149417842D01*
X131294096Y-149347568D01*
X131323590Y-149282988D01*
X131359660Y-149254249D01*
X131397158Y-149234311D01*
X131584942Y-149134464D01*
X131669645Y-149072924D01*
X131808629Y-148971947D01*
X131808632Y-148971944D01*
X131812192Y-148969358D01*
X132014252Y-148774231D01*
X132187188Y-148552882D01*
X132189384Y-148549078D01*
X132189389Y-148549071D01*
X132325435Y-148313431D01*
X132327636Y-148309619D01*
X132432862Y-148049176D01*
X132458220Y-147947470D01*
X132499753Y-147780893D01*
X132499754Y-147780888D01*
X132500817Y-147776624D01*
X132502593Y-147759734D01*
X132529719Y-147501636D01*
X132529719Y-147501633D01*
X132530178Y-147497267D01*
X132529827Y-147487213D01*
X132520529Y-147220939D01*
X132520528Y-147220933D01*
X132520375Y-147216542D01*
X132514425Y-147182793D01*
X132472360Y-146944236D01*
X132471598Y-146939913D01*
X132384797Y-146672765D01*
X132261660Y-146420298D01*
X132259205Y-146416659D01*
X132259202Y-146416653D01*
X132178935Y-146297653D01*
X132104585Y-146187424D01*
X131916629Y-145978678D01*
X131701450Y-145798121D01*
X131463236Y-145649269D01*
X131206625Y-145535018D01*
X130936610Y-145457593D01*
X130932260Y-145456982D01*
X130932257Y-145456981D01*
X130829310Y-145442513D01*
X130658448Y-145418500D01*
X130447854Y-145418500D01*
X130445668Y-145418653D01*
X130445664Y-145418653D01*
X130242173Y-145432882D01*
X130242168Y-145432883D01*
X130237788Y-145433189D01*
X129963030Y-145491591D01*
X129958901Y-145493094D01*
X129958897Y-145493095D01*
X129703219Y-145586154D01*
X129703215Y-145586156D01*
X129699074Y-145587663D01*
X129451058Y-145719536D01*
X129447499Y-145722122D01*
X129447497Y-145722123D01*
X129342895Y-145798121D01*
X129223808Y-145884642D01*
X129021748Y-146079769D01*
X128848812Y-146301118D01*
X128846616Y-146304922D01*
X128846611Y-146304929D01*
X128732794Y-146502067D01*
X128708364Y-146544381D01*
X128603138Y-146804824D01*
X128602073Y-146809097D01*
X128602072Y-146809099D01*
X128568379Y-146944236D01*
X128535183Y-147077376D01*
X128505822Y-147356733D01*
X128505975Y-147361121D01*
X128505975Y-147361127D01*
X128510297Y-147484876D01*
X128515625Y-147637458D01*
X128516387Y-147641781D01*
X128516388Y-147641788D01*
X128540164Y-147776624D01*
X128564402Y-147914087D01*
X128651203Y-148181235D01*
X128653131Y-148185188D01*
X128653133Y-148185193D01*
X128667312Y-148214264D01*
X128774340Y-148433702D01*
X128776795Y-148437341D01*
X128776798Y-148437347D01*
X128839730Y-148530647D01*
X128931415Y-148666576D01*
X129119371Y-148875322D01*
X129334550Y-149055879D01*
X129572764Y-149204731D01*
X129600716Y-149217176D01*
X129675322Y-149250393D01*
X129729418Y-149296373D01*
X129750067Y-149364301D01*
X129730715Y-149432609D01*
X129677504Y-149479610D01*
X129624073Y-149491500D01*
X72216537Y-149491500D01*
X72148416Y-149471498D01*
X72101923Y-149417842D01*
X72097764Y-149407560D01*
X72053651Y-149282988D01*
X72000934Y-149134119D01*
X71864907Y-148870572D01*
X71851226Y-148851105D01*
X71697906Y-148632954D01*
X71694372Y-148627925D01*
X71517276Y-148437347D01*
X71495404Y-148413810D01*
X71495401Y-148413808D01*
X71492483Y-148410667D01*
X71489168Y-148407953D01*
X71489164Y-148407950D01*
X71266295Y-148225534D01*
X71262977Y-148222818D01*
X71010101Y-148067856D01*
X70738533Y-147948646D01*
X70711776Y-147941024D01*
X70599981Y-147909178D01*
X70539946Y-147871279D01*
X70509932Y-147806939D01*
X70508500Y-147787999D01*
X70508500Y-145000000D01*
X71286411Y-145000000D01*
X71306754Y-145388176D01*
X71307267Y-145391416D01*
X71307268Y-145391424D01*
X71322989Y-145490678D01*
X71367562Y-145772099D01*
X71468167Y-146147562D01*
X71469352Y-146150650D01*
X71469353Y-146150652D01*
X71483469Y-146187424D01*
X71607468Y-146510453D01*
X71608966Y-146513393D01*
X71757458Y-146804824D01*
X71783938Y-146856794D01*
X71785734Y-146859560D01*
X71785736Y-146859563D01*
X71837916Y-146939913D01*
X71995643Y-147182793D01*
X72240266Y-147484876D01*
X72515124Y-147759734D01*
X72817207Y-148004357D01*
X72819970Y-148006152D01*
X72819971Y-148006152D01*
X73095671Y-148185193D01*
X73143205Y-148216062D01*
X73146139Y-148217557D01*
X73146146Y-148217561D01*
X73326821Y-148309619D01*
X73489547Y-148392532D01*
X73852438Y-148531833D01*
X74227901Y-148632438D01*
X74420387Y-148662925D01*
X74608576Y-148692732D01*
X74608584Y-148692733D01*
X74611824Y-148693246D01*
X75000000Y-148713589D01*
X75388176Y-148693246D01*
X75391416Y-148692733D01*
X75391424Y-148692732D01*
X75579613Y-148662925D01*
X75772099Y-148632438D01*
X76147562Y-148531833D01*
X76510453Y-148392532D01*
X76673179Y-148309619D01*
X76853854Y-148217561D01*
X76853861Y-148217557D01*
X76856795Y-148216062D01*
X76904330Y-148185193D01*
X77180029Y-148006152D01*
X77180030Y-148006152D01*
X77182793Y-148004357D01*
X77484876Y-147759734D01*
X77759734Y-147484876D01*
X78004357Y-147182793D01*
X78162084Y-146939913D01*
X78214264Y-146859563D01*
X78214266Y-146859560D01*
X78216062Y-146856794D01*
X78242543Y-146804824D01*
X78391034Y-146513393D01*
X78392532Y-146510453D01*
X78516531Y-146187424D01*
X78530647Y-146150652D01*
X78530648Y-146150650D01*
X78531833Y-146147562D01*
X78632438Y-145772099D01*
X78677011Y-145490678D01*
X78692732Y-145391424D01*
X78692733Y-145391416D01*
X78693246Y-145388176D01*
X78713589Y-145000000D01*
X161286411Y-145000000D01*
X161306754Y-145388176D01*
X161307267Y-145391416D01*
X161307268Y-145391424D01*
X161322989Y-145490678D01*
X161367562Y-145772099D01*
X161468167Y-146147562D01*
X161469352Y-146150650D01*
X161469353Y-146150652D01*
X161483469Y-146187424D01*
X161607468Y-146510453D01*
X161608966Y-146513393D01*
X161757458Y-146804824D01*
X161783938Y-146856794D01*
X161785734Y-146859560D01*
X161785736Y-146859563D01*
X161837916Y-146939913D01*
X161995643Y-147182793D01*
X162240266Y-147484876D01*
X162515124Y-147759734D01*
X162817207Y-148004357D01*
X162819970Y-148006152D01*
X162819971Y-148006152D01*
X163095671Y-148185193D01*
X163143205Y-148216062D01*
X163146139Y-148217557D01*
X163146146Y-148217561D01*
X163326821Y-148309619D01*
X163489547Y-148392532D01*
X163852438Y-148531833D01*
X164227901Y-148632438D01*
X164420387Y-148662925D01*
X164608576Y-148692732D01*
X164608584Y-148692733D01*
X164611824Y-148693246D01*
X165000000Y-148713589D01*
X165388176Y-148693246D01*
X165391416Y-148692733D01*
X165391424Y-148692732D01*
X165579613Y-148662925D01*
X165772099Y-148632438D01*
X166147562Y-148531833D01*
X166510453Y-148392532D01*
X166673179Y-148309619D01*
X166853854Y-148217561D01*
X166853861Y-148217557D01*
X166856795Y-148216062D01*
X166904330Y-148185193D01*
X167180029Y-148006152D01*
X167180030Y-148006152D01*
X167182793Y-148004357D01*
X167484876Y-147759734D01*
X167759734Y-147484876D01*
X168004357Y-147182793D01*
X168162084Y-146939913D01*
X168214264Y-146859563D01*
X168214266Y-146859560D01*
X168216062Y-146856794D01*
X168242543Y-146804824D01*
X168391034Y-146513393D01*
X168392532Y-146510453D01*
X168516531Y-146187424D01*
X168530647Y-146150652D01*
X168530648Y-146150650D01*
X168531833Y-146147562D01*
X168632438Y-145772099D01*
X168677011Y-145490678D01*
X168692732Y-145391424D01*
X168692733Y-145391416D01*
X168693246Y-145388176D01*
X168713589Y-145000000D01*
X168693246Y-144611824D01*
X168632438Y-144227901D01*
X168531833Y-143852438D01*
X168392532Y-143489547D01*
X168315325Y-143338020D01*
X168217561Y-143146147D01*
X168217557Y-143146140D01*
X168216062Y-143143206D01*
X168004357Y-142817207D01*
X167848432Y-142624656D01*
X167761809Y-142517686D01*
X167761806Y-142517682D01*
X167759734Y-142515124D01*
X167484876Y-142240266D01*
X167462462Y-142222115D01*
X167330028Y-142114872D01*
X167182793Y-141995643D01*
X166856795Y-141783938D01*
X166853861Y-141782443D01*
X166853854Y-141782439D01*
X166513393Y-141608966D01*
X166510453Y-141607468D01*
X166147562Y-141468167D01*
X165772099Y-141367562D01*
X165568207Y-141335268D01*
X165391424Y-141307268D01*
X165391416Y-141307267D01*
X165388176Y-141306754D01*
X165000000Y-141286411D01*
X164611824Y-141306754D01*
X164608584Y-141307267D01*
X164608576Y-141307268D01*
X164431793Y-141335268D01*
X164227901Y-141367562D01*
X163852438Y-141468167D01*
X163489547Y-141607468D01*
X163486607Y-141608966D01*
X163146147Y-141782439D01*
X163146140Y-141782443D01*
X163143206Y-141783938D01*
X163140440Y-141785734D01*
X163140437Y-141785736D01*
X162885771Y-141951117D01*
X162817207Y-141995643D01*
X162669972Y-142114872D01*
X162537539Y-142222115D01*
X162515124Y-142240266D01*
X162240266Y-142515124D01*
X162238194Y-142517682D01*
X162238191Y-142517686D01*
X162151568Y-142624656D01*
X161995643Y-142817207D01*
X161783938Y-143143206D01*
X161782443Y-143146140D01*
X161782439Y-143146147D01*
X161684675Y-143338020D01*
X161607468Y-143489547D01*
X161468167Y-143852438D01*
X161367562Y-144227901D01*
X161306754Y-144611824D01*
X161286411Y-145000000D01*
X78713589Y-145000000D01*
X78693246Y-144611824D01*
X78632438Y-144227901D01*
X78531833Y-143852438D01*
X78392532Y-143489547D01*
X78315325Y-143338020D01*
X78217561Y-143146147D01*
X78217557Y-143146140D01*
X78216062Y-143143206D01*
X78004357Y-142817207D01*
X77848432Y-142624656D01*
X77761809Y-142517686D01*
X77761806Y-142517682D01*
X77759734Y-142515124D01*
X77484876Y-142240266D01*
X77462462Y-142222115D01*
X77461226Y-142221114D01*
X84763275Y-142221114D01*
X84765325Y-142238830D01*
X84767285Y-142248727D01*
X84830604Y-142472494D01*
X84834116Y-142481938D01*
X84932399Y-142692705D01*
X84937378Y-142701471D01*
X85068087Y-142893802D01*
X85074419Y-142901677D01*
X85234186Y-143070626D01*
X85241695Y-143077387D01*
X85426426Y-143218625D01*
X85434905Y-143224089D01*
X85639847Y-143333978D01*
X85649099Y-143338020D01*
X85868971Y-143413727D01*
X85878743Y-143416236D01*
X86108971Y-143456004D01*
X86116843Y-143456859D01*
X86140551Y-143457936D01*
X86143384Y-143458000D01*
X87077885Y-143458000D01*
X87093124Y-143453525D01*
X87094329Y-143452135D01*
X87096000Y-143444452D01*
X87096000Y-143439885D01*
X87604000Y-143439885D01*
X87608475Y-143455124D01*
X87609865Y-143456329D01*
X87617548Y-143458000D01*
X88508456Y-143458000D01*
X88513488Y-143457798D01*
X88686843Y-143443850D01*
X88696796Y-143442238D01*
X88922633Y-143386767D01*
X88932203Y-143383584D01*
X89146265Y-143292720D01*
X89155207Y-143288045D01*
X89351987Y-143164126D01*
X89360060Y-143158086D01*
X89534500Y-143004297D01*
X89541504Y-142997044D01*
X89689110Y-142817346D01*
X89694866Y-142809064D01*
X89811841Y-142608081D01*
X89816203Y-142598976D01*
X89899537Y-142381885D01*
X89902388Y-142372196D01*
X89933821Y-142221736D01*
X89932698Y-142207675D01*
X89922590Y-142204000D01*
X87622115Y-142204000D01*
X87606876Y-142208475D01*
X87605671Y-142209865D01*
X87604000Y-142217548D01*
X87604000Y-143439885D01*
X87096000Y-143439885D01*
X87096000Y-142222115D01*
X87091525Y-142206876D01*
X87090135Y-142205671D01*
X87082452Y-142204000D01*
X84779410Y-142204000D01*
X84765324Y-142208136D01*
X84763275Y-142221114D01*
X77461226Y-142221114D01*
X77330028Y-142114872D01*
X77182793Y-141995643D01*
X76856795Y-141783938D01*
X76853861Y-141782443D01*
X76853854Y-141782439D01*
X76649398Y-141678264D01*
X84766179Y-141678264D01*
X84767302Y-141692325D01*
X84777410Y-141696000D01*
X87077885Y-141696000D01*
X87093124Y-141691525D01*
X87094329Y-141690135D01*
X87096000Y-141682452D01*
X87096000Y-141677885D01*
X87604000Y-141677885D01*
X87608475Y-141693124D01*
X87609865Y-141694329D01*
X87617548Y-141696000D01*
X89920590Y-141696000D01*
X89934676Y-141691864D01*
X89936725Y-141678886D01*
X89934675Y-141661170D01*
X89932715Y-141651273D01*
X89869396Y-141427506D01*
X89865884Y-141418062D01*
X89767601Y-141207295D01*
X89762622Y-141198529D01*
X89631913Y-141006198D01*
X89625581Y-140998323D01*
X89465814Y-140829374D01*
X89458305Y-140822613D01*
X89273574Y-140681375D01*
X89265095Y-140675911D01*
X89060153Y-140566022D01*
X89050901Y-140561980D01*
X88831029Y-140486273D01*
X88821257Y-140483764D01*
X88591029Y-140443996D01*
X88583157Y-140443141D01*
X88559449Y-140442064D01*
X88556616Y-140442000D01*
X87622115Y-140442000D01*
X87606876Y-140446475D01*
X87605671Y-140447865D01*
X87604000Y-140455548D01*
X87604000Y-141677885D01*
X87096000Y-141677885D01*
X87096000Y-140460115D01*
X87091525Y-140444876D01*
X87090135Y-140443671D01*
X87082452Y-140442000D01*
X86191544Y-140442000D01*
X86186512Y-140442202D01*
X86013157Y-140456150D01*
X86003204Y-140457762D01*
X85777367Y-140513233D01*
X85767797Y-140516416D01*
X85553735Y-140607280D01*
X85544793Y-140611955D01*
X85348013Y-140735874D01*
X85339940Y-140741914D01*
X85165500Y-140895703D01*
X85158496Y-140902956D01*
X85010890Y-141082654D01*
X85005134Y-141090936D01*
X84888159Y-141291919D01*
X84883797Y-141301024D01*
X84800463Y-141518115D01*
X84797612Y-141527804D01*
X84766179Y-141678264D01*
X76649398Y-141678264D01*
X76513393Y-141608966D01*
X76510453Y-141607468D01*
X76147562Y-141468167D01*
X75772099Y-141367562D01*
X75568207Y-141335268D01*
X75391424Y-141307268D01*
X75391416Y-141307267D01*
X75388176Y-141306754D01*
X75000000Y-141286411D01*
X74611824Y-141306754D01*
X74608584Y-141307267D01*
X74608576Y-141307268D01*
X74431793Y-141335268D01*
X74227901Y-141367562D01*
X73852438Y-141468167D01*
X73489547Y-141607468D01*
X73486607Y-141608966D01*
X73146147Y-141782439D01*
X73146140Y-141782443D01*
X73143206Y-141783938D01*
X73140440Y-141785734D01*
X73140437Y-141785736D01*
X72885771Y-141951117D01*
X72817207Y-141995643D01*
X72669972Y-142114872D01*
X72537539Y-142222115D01*
X72515124Y-142240266D01*
X72240266Y-142515124D01*
X72238194Y-142517682D01*
X72238191Y-142517686D01*
X72151568Y-142624656D01*
X71995643Y-142817207D01*
X71783938Y-143143206D01*
X71782443Y-143146140D01*
X71782439Y-143146147D01*
X71684675Y-143338020D01*
X71607468Y-143489547D01*
X71468167Y-143852438D01*
X71367562Y-144227901D01*
X71306754Y-144611824D01*
X71286411Y-145000000D01*
X70508500Y-145000000D01*
X70508500Y-139708456D01*
X90642000Y-139708456D01*
X90642202Y-139713488D01*
X90656150Y-139886843D01*
X90657762Y-139896796D01*
X90713233Y-140122633D01*
X90716416Y-140132203D01*
X90807280Y-140346265D01*
X90811955Y-140355207D01*
X90935874Y-140551987D01*
X90941914Y-140560060D01*
X91095703Y-140734500D01*
X91102956Y-140741504D01*
X91282654Y-140889110D01*
X91290936Y-140894866D01*
X91491919Y-141011841D01*
X91501024Y-141016203D01*
X91718115Y-141099537D01*
X91727804Y-141102388D01*
X91878264Y-141133821D01*
X91892325Y-141132698D01*
X91896000Y-141122590D01*
X91896000Y-141120590D01*
X92404000Y-141120590D01*
X92408136Y-141134676D01*
X92421114Y-141136725D01*
X92438830Y-141134675D01*
X92448727Y-141132715D01*
X92672494Y-141069396D01*
X92681938Y-141065884D01*
X92892705Y-140967601D01*
X92901471Y-140962622D01*
X93093802Y-140831913D01*
X93101677Y-140825581D01*
X93270626Y-140665814D01*
X93277387Y-140658305D01*
X93418625Y-140473574D01*
X93424089Y-140465095D01*
X93533978Y-140260153D01*
X93538020Y-140250901D01*
X93613727Y-140031029D01*
X93616236Y-140021257D01*
X93656004Y-139791029D01*
X93656859Y-139783157D01*
X93657936Y-139759449D01*
X93658000Y-139756616D01*
X93658000Y-138822115D01*
X93653525Y-138806876D01*
X93652135Y-138805671D01*
X93644452Y-138804000D01*
X92422115Y-138804000D01*
X92406876Y-138808475D01*
X92405671Y-138809865D01*
X92404000Y-138817548D01*
X92404000Y-141120590D01*
X91896000Y-141120590D01*
X91896000Y-138822115D01*
X91891525Y-138806876D01*
X91890135Y-138805671D01*
X91882452Y-138804000D01*
X90660115Y-138804000D01*
X90644876Y-138808475D01*
X90643671Y-138809865D01*
X90642000Y-138817548D01*
X90642000Y-139708456D01*
X70508500Y-139708456D01*
X70508500Y-138277885D01*
X90642000Y-138277885D01*
X90646475Y-138293124D01*
X90647865Y-138294329D01*
X90655548Y-138296000D01*
X91877885Y-138296000D01*
X91893124Y-138291525D01*
X91894329Y-138290135D01*
X91896000Y-138282452D01*
X91896000Y-138277885D01*
X92404000Y-138277885D01*
X92408475Y-138293124D01*
X92409865Y-138294329D01*
X92417548Y-138296000D01*
X93639885Y-138296000D01*
X93655124Y-138291525D01*
X93656329Y-138290135D01*
X93658000Y-138282452D01*
X93658000Y-137391544D01*
X93657798Y-137386512D01*
X93643850Y-137213157D01*
X93642238Y-137203204D01*
X93586767Y-136977367D01*
X93583584Y-136967797D01*
X93492720Y-136753735D01*
X93488045Y-136744793D01*
X93364126Y-136548013D01*
X93358086Y-136539940D01*
X93204297Y-136365500D01*
X93197044Y-136358496D01*
X93017346Y-136210890D01*
X93009064Y-136205134D01*
X92808081Y-136088159D01*
X92798976Y-136083797D01*
X92581885Y-136000463D01*
X92572196Y-135997612D01*
X92421736Y-135966179D01*
X92407675Y-135967302D01*
X92404000Y-135977410D01*
X92404000Y-138277885D01*
X91896000Y-138277885D01*
X91896000Y-135979410D01*
X91891864Y-135965324D01*
X91878886Y-135963275D01*
X91861170Y-135965325D01*
X91851273Y-135967285D01*
X91627506Y-136030604D01*
X91618062Y-136034116D01*
X91407295Y-136132399D01*
X91398529Y-136137378D01*
X91206198Y-136268087D01*
X91198323Y-136274419D01*
X91029374Y-136434186D01*
X91022613Y-136441695D01*
X90881375Y-136626426D01*
X90875911Y-136634905D01*
X90766022Y-136839847D01*
X90761980Y-136849099D01*
X90686273Y-137068971D01*
X90683764Y-137078743D01*
X90643996Y-137308971D01*
X90643141Y-137316843D01*
X90642064Y-137340551D01*
X90642000Y-137343384D01*
X90642000Y-138277885D01*
X70508500Y-138277885D01*
X70508500Y-136698134D01*
X84541500Y-136698134D01*
X84548255Y-136760316D01*
X84599385Y-136896705D01*
X84686739Y-137013261D01*
X84803295Y-137100615D01*
X84939684Y-137151745D01*
X85001866Y-137158500D01*
X89698134Y-137158500D01*
X89760316Y-137151745D01*
X89896705Y-137100615D01*
X90013261Y-137013261D01*
X90100615Y-136896705D01*
X90151745Y-136760316D01*
X90158500Y-136698134D01*
X90158500Y-134601866D01*
X90151745Y-134539684D01*
X90100615Y-134403295D01*
X90013261Y-134286739D01*
X89896705Y-134199385D01*
X89760316Y-134148255D01*
X89698134Y-134141500D01*
X85001866Y-134141500D01*
X84939684Y-134148255D01*
X84803295Y-134199385D01*
X84686739Y-134286739D01*
X84599385Y-134403295D01*
X84548255Y-134539684D01*
X84541500Y-134601866D01*
X84541500Y-136698134D01*
X70508500Y-136698134D01*
X70508500Y-130268134D01*
X79679500Y-130268134D01*
X79686255Y-130330316D01*
X79737385Y-130466705D01*
X79824739Y-130583261D01*
X79941295Y-130670615D01*
X80077684Y-130721745D01*
X80139866Y-130728500D01*
X83436134Y-130728500D01*
X83498316Y-130721745D01*
X83634705Y-130670615D01*
X83751261Y-130583261D01*
X83838615Y-130466705D01*
X83889745Y-130330316D01*
X83896500Y-130268134D01*
X83896500Y-126971866D01*
X83889745Y-126909684D01*
X83838615Y-126773295D01*
X83751261Y-126656739D01*
X83634705Y-126569385D01*
X83498316Y-126518255D01*
X83436134Y-126511500D01*
X80139866Y-126511500D01*
X80077684Y-126518255D01*
X79941295Y-126569385D01*
X79824739Y-126656739D01*
X79737385Y-126773295D01*
X79686255Y-126909684D01*
X79679500Y-126971866D01*
X79679500Y-130268134D01*
X70508500Y-130268134D01*
X70508500Y-117681151D01*
X72355296Y-117681151D01*
X72367480Y-117934798D01*
X72417021Y-118183857D01*
X72418600Y-118188255D01*
X72418602Y-118188262D01*
X72463022Y-118311980D01*
X72502831Y-118422858D01*
X72623025Y-118646551D01*
X72625820Y-118650294D01*
X72625822Y-118650297D01*
X72772171Y-118846282D01*
X72772176Y-118846288D01*
X72774963Y-118850020D01*
X72778272Y-118853300D01*
X72778277Y-118853306D01*
X72876859Y-118951031D01*
X72955307Y-119028797D01*
X72959069Y-119031555D01*
X72959072Y-119031558D01*
X73123239Y-119151930D01*
X73160094Y-119178953D01*
X73164229Y-119181129D01*
X73164233Y-119181131D01*
X73352137Y-119279992D01*
X73403109Y-119329411D01*
X73419272Y-119398544D01*
X73395493Y-119465440D01*
X73339322Y-119508860D01*
X73293469Y-119517500D01*
X72819866Y-119517500D01*
X72757684Y-119524255D01*
X72621295Y-119575385D01*
X72504739Y-119662739D01*
X72417385Y-119779295D01*
X72366255Y-119915684D01*
X72359500Y-119977866D01*
X72359500Y-122474134D01*
X72366255Y-122536316D01*
X72417385Y-122672705D01*
X72504739Y-122789261D01*
X72621295Y-122876615D01*
X72757684Y-122927745D01*
X72819866Y-122934500D01*
X75316134Y-122934500D01*
X75378316Y-122927745D01*
X75514705Y-122876615D01*
X75631261Y-122789261D01*
X75718615Y-122672705D01*
X75769745Y-122536316D01*
X75776500Y-122474134D01*
X75776500Y-119977866D01*
X75769745Y-119915684D01*
X75718615Y-119779295D01*
X75631261Y-119662739D01*
X75514705Y-119575385D01*
X75378316Y-119524255D01*
X75316134Y-119517500D01*
X74838964Y-119517500D01*
X74770843Y-119497498D01*
X74724350Y-119443842D01*
X74714246Y-119373568D01*
X74743740Y-119308988D01*
X74789225Y-119275733D01*
X74859110Y-119245708D01*
X74863090Y-119243245D01*
X74863094Y-119243243D01*
X75071064Y-119114547D01*
X75071066Y-119114545D01*
X75075047Y-119112082D01*
X75173428Y-119028797D01*
X75265289Y-118951031D01*
X75265291Y-118951029D01*
X75268862Y-118948006D01*
X75436295Y-118757084D01*
X75573669Y-118543512D01*
X75677967Y-118311980D01*
X75746896Y-118067575D01*
X75766515Y-117913361D01*
X75778545Y-117818798D01*
X75778545Y-117818792D01*
X75778943Y-117815667D01*
X75781291Y-117726000D01*
X75777368Y-117673213D01*
X75762818Y-117477411D01*
X75762817Y-117477407D01*
X75762472Y-117472759D01*
X75706428Y-117225082D01*
X75649685Y-117079167D01*
X75616084Y-116992762D01*
X75616083Y-116992760D01*
X75614391Y-116988409D01*
X75593866Y-116952498D01*
X75490702Y-116771997D01*
X75490700Y-116771995D01*
X75488383Y-116767940D01*
X75331171Y-116568517D01*
X75213379Y-116457710D01*
X75149610Y-116397722D01*
X75149608Y-116397720D01*
X75146209Y-116394523D01*
X75055540Y-116331624D01*
X74941393Y-116252437D01*
X74941390Y-116252435D01*
X74937561Y-116249779D01*
X74933384Y-116247719D01*
X74933377Y-116247715D01*
X74713996Y-116139528D01*
X74713992Y-116139527D01*
X74709810Y-116137464D01*
X74467960Y-116060047D01*
X74463355Y-116059297D01*
X74221935Y-116019980D01*
X74221934Y-116019980D01*
X74217323Y-116019229D01*
X74090365Y-116017567D01*
X73968083Y-116015966D01*
X73968080Y-116015966D01*
X73963406Y-116015905D01*
X73711787Y-116050149D01*
X73467993Y-116121208D01*
X73237380Y-116227522D01*
X73233471Y-116230085D01*
X73028928Y-116364189D01*
X73028923Y-116364193D01*
X73025015Y-116366755D01*
X72978783Y-116408019D01*
X72844827Y-116527579D01*
X72835562Y-116535848D01*
X72673183Y-116731087D01*
X72541447Y-116948182D01*
X72539638Y-116952496D01*
X72539637Y-116952498D01*
X72461022Y-117139975D01*
X72443246Y-117182365D01*
X72380738Y-117428490D01*
X72355296Y-117681151D01*
X70508500Y-117681151D01*
X70508500Y-113357869D01*
X79674689Y-113357869D01*
X79691238Y-113644883D01*
X79692063Y-113649088D01*
X79692064Y-113649096D01*
X79706509Y-113722722D01*
X79746586Y-113926995D01*
X79747973Y-113931045D01*
X79747974Y-113931050D01*
X79807386Y-114104577D01*
X79839710Y-114198986D01*
X79968885Y-114455822D01*
X80131721Y-114692750D01*
X80325206Y-114905388D01*
X80328501Y-114908143D01*
X80328502Y-114908144D01*
X80379258Y-114950582D01*
X80545759Y-115089798D01*
X80789298Y-115242571D01*
X81051318Y-115360877D01*
X81055437Y-115362097D01*
X81322857Y-115441311D01*
X81322862Y-115441312D01*
X81326970Y-115442529D01*
X81331204Y-115443177D01*
X81331209Y-115443178D01*
X81579811Y-115481219D01*
X81611153Y-115486015D01*
X81757485Y-115488314D01*
X81894317Y-115490464D01*
X81894323Y-115490464D01*
X81898608Y-115490531D01*
X81902860Y-115490016D01*
X81902868Y-115490016D01*
X82179756Y-115456508D01*
X82179761Y-115456507D01*
X82184017Y-115455992D01*
X82462097Y-115383039D01*
X82727704Y-115273021D01*
X82975922Y-115127974D01*
X83202159Y-114950582D01*
X83243285Y-114908144D01*
X83399244Y-114747206D01*
X83402227Y-114744128D01*
X83404760Y-114740680D01*
X83404764Y-114740675D01*
X83569887Y-114515886D01*
X83572425Y-114512431D01*
X83593518Y-114473582D01*
X83642858Y-114382709D01*
X110437744Y-114382709D01*
X110455937Y-114466858D01*
X110456163Y-114469160D01*
X110456940Y-114471495D01*
X110476302Y-114561051D01*
X110512690Y-114639085D01*
X110513418Y-114641273D01*
X110514689Y-114643372D01*
X110553415Y-114726419D01*
X110557729Y-114731981D01*
X110557730Y-114731982D01*
X110567152Y-114744128D01*
X110606181Y-114794444D01*
X110607380Y-114796424D01*
X110609091Y-114798196D01*
X110640473Y-114838653D01*
X112941795Y-117139975D01*
X112975821Y-117202287D01*
X112978700Y-117229070D01*
X112978700Y-138166783D01*
X112978693Y-138168103D01*
X112977744Y-138258709D01*
X112985446Y-138294329D01*
X112986967Y-138301365D01*
X112989028Y-138313949D01*
X112993893Y-138357325D01*
X112996208Y-138363972D01*
X113005002Y-138389226D01*
X113009164Y-138404036D01*
X113016302Y-138437051D01*
X113019280Y-138443438D01*
X113019281Y-138443440D01*
X113034752Y-138476619D01*
X113039547Y-138488427D01*
X113053899Y-138529639D01*
X113057632Y-138535613D01*
X113071797Y-138558282D01*
X113079133Y-138571792D01*
X113093415Y-138602419D01*
X113112796Y-138627405D01*
X113120169Y-138636910D01*
X113127462Y-138647364D01*
X113150589Y-138684376D01*
X113155554Y-138689375D01*
X113155555Y-138689377D01*
X113179356Y-138713344D01*
X113179953Y-138713982D01*
X113180473Y-138714653D01*
X113206731Y-138740911D01*
X113275206Y-138809865D01*
X113279159Y-138813846D01*
X113280200Y-138814506D01*
X113281435Y-138815615D01*
X118290289Y-143824469D01*
X118291218Y-143825406D01*
X118330826Y-143865852D01*
X118354718Y-143890250D01*
X118360636Y-143894064D01*
X118360641Y-143894068D01*
X118391407Y-143913895D01*
X118401760Y-143921334D01*
X118435869Y-143948563D01*
X118442209Y-143951628D01*
X118442214Y-143951631D01*
X118466279Y-143963265D01*
X118479692Y-143970792D01*
X118502164Y-143985274D01*
X118502171Y-143985277D01*
X118508090Y-143989092D01*
X118549111Y-144004023D01*
X118560848Y-144008981D01*
X118569675Y-144013248D01*
X118593801Y-144024911D01*
X118593803Y-144024912D01*
X118600144Y-144027977D01*
X118633064Y-144035577D01*
X118647799Y-144039943D01*
X118672928Y-144049089D01*
X118672934Y-144049091D01*
X118679549Y-144051498D01*
X118700203Y-144054107D01*
X118722859Y-144056969D01*
X118735400Y-144059203D01*
X118777930Y-144069022D01*
X118784976Y-144069047D01*
X118784979Y-144069047D01*
X118818741Y-144069165D01*
X118819634Y-144069195D01*
X118820470Y-144069300D01*
X118857406Y-144069300D01*
X118857846Y-144069301D01*
X118956846Y-144069647D01*
X118956853Y-144069647D01*
X118960392Y-144069659D01*
X118961598Y-144069389D01*
X118963247Y-144069300D01*
X120894783Y-144069300D01*
X120896104Y-144069307D01*
X120986709Y-144070256D01*
X121029370Y-144061032D01*
X121041949Y-144058972D01*
X121078329Y-144054892D01*
X121078332Y-144054891D01*
X121085325Y-144054107D01*
X121117226Y-144042998D01*
X121132036Y-144038836D01*
X121165051Y-144031698D01*
X121173031Y-144027977D01*
X121204619Y-144013248D01*
X121216429Y-144008452D01*
X121257639Y-143994101D01*
X121286283Y-143976202D01*
X121299792Y-143968867D01*
X121330419Y-143954585D01*
X121364910Y-143927831D01*
X121375366Y-143920537D01*
X121406400Y-143901145D01*
X121412376Y-143897411D01*
X121441344Y-143868644D01*
X121441982Y-143868047D01*
X121442653Y-143867527D01*
X121468911Y-143841269D01*
X121541846Y-143768841D01*
X121542506Y-143767800D01*
X121543615Y-143766565D01*
X122499856Y-142810324D01*
X122562168Y-142776298D01*
X122588951Y-142773419D01*
X152945664Y-142773419D01*
X152946985Y-142773426D01*
X153037590Y-142774375D01*
X153080251Y-142765151D01*
X153092830Y-142763091D01*
X153129210Y-142759011D01*
X153129213Y-142759010D01*
X153136206Y-142758226D01*
X153168107Y-142747117D01*
X153182917Y-142742955D01*
X153215932Y-142735817D01*
X153222321Y-142732838D01*
X153255500Y-142717367D01*
X153267310Y-142712571D01*
X153308520Y-142698220D01*
X153337164Y-142680321D01*
X153350673Y-142672986D01*
X153381300Y-142658704D01*
X153415791Y-142631950D01*
X153426247Y-142624656D01*
X153457281Y-142605264D01*
X153463257Y-142601530D01*
X153492225Y-142572763D01*
X153492863Y-142572166D01*
X153493534Y-142571646D01*
X153519792Y-142545388D01*
X153552621Y-142512787D01*
X153590216Y-142475454D01*
X153590220Y-142475450D01*
X153592727Y-142472960D01*
X153593387Y-142471919D01*
X153594496Y-142470684D01*
X155052775Y-141012405D01*
X155115087Y-140978379D01*
X155141870Y-140975500D01*
X156496134Y-140975500D01*
X156558316Y-140968745D01*
X156694705Y-140917615D01*
X156811261Y-140830261D01*
X156898615Y-140713705D01*
X156949745Y-140577316D01*
X156956500Y-140515134D01*
X156956500Y-138418866D01*
X156949745Y-138356684D01*
X156898615Y-138220295D01*
X156811261Y-138103739D01*
X156694705Y-138016385D01*
X156694550Y-138016327D01*
X156647537Y-137969209D01*
X156632522Y-137899818D01*
X156657406Y-137833325D01*
X156662381Y-137827114D01*
X156668557Y-137819883D01*
X156674357Y-137811899D01*
X156793205Y-137617958D01*
X156797687Y-137609163D01*
X156884734Y-137399012D01*
X156887783Y-137389627D01*
X156940885Y-137168446D01*
X156942428Y-137158699D01*
X156960275Y-136931930D01*
X156960275Y-136922070D01*
X156942428Y-136695301D01*
X156940885Y-136685554D01*
X156887783Y-136464373D01*
X156884734Y-136454988D01*
X156797687Y-136244837D01*
X156793205Y-136236042D01*
X156690568Y-136068555D01*
X156680110Y-136059093D01*
X156671334Y-136062876D01*
X155537095Y-137197115D01*
X155474783Y-137231141D01*
X155403968Y-137226076D01*
X155358905Y-137197115D01*
X154227710Y-136065920D01*
X154215330Y-136059160D01*
X154207680Y-136064887D01*
X154102795Y-136236042D01*
X154098313Y-136244837D01*
X154011266Y-136454988D01*
X154008217Y-136464373D01*
X153955115Y-136685554D01*
X153953572Y-136695301D01*
X153935725Y-136922070D01*
X153935725Y-136931930D01*
X153953572Y-137158699D01*
X153955115Y-137168446D01*
X154008217Y-137389627D01*
X154011266Y-137399012D01*
X154098313Y-137609163D01*
X154102795Y-137617958D01*
X154221643Y-137811899D01*
X154227443Y-137819883D01*
X154233619Y-137827114D01*
X154262651Y-137891904D01*
X154252047Y-137962104D01*
X154205823Y-138014688D01*
X154201295Y-138016385D01*
X154084739Y-138103739D01*
X153997385Y-138220295D01*
X153946255Y-138356684D01*
X153939500Y-138418866D01*
X153939500Y-139773130D01*
X153919498Y-139841251D01*
X153902595Y-139862225D01*
X152654906Y-141109914D01*
X152592594Y-141143940D01*
X152565811Y-141146819D01*
X130567904Y-141146819D01*
X130499783Y-141126817D01*
X130453290Y-141073161D01*
X130443186Y-141002887D01*
X130472680Y-140938307D01*
X130519686Y-140904410D01*
X130730389Y-140817135D01*
X130730393Y-140817133D01*
X130734963Y-140815240D01*
X130779628Y-140787869D01*
X130933202Y-140693759D01*
X130933208Y-140693755D01*
X130937416Y-140691176D01*
X131117969Y-140536969D01*
X131272176Y-140356416D01*
X131274755Y-140352208D01*
X131274759Y-140352202D01*
X131393654Y-140158183D01*
X131396240Y-140153963D01*
X131405254Y-140132203D01*
X131485211Y-139939167D01*
X131485212Y-139939165D01*
X131487105Y-139934594D01*
X131542535Y-139703711D01*
X131561165Y-139467000D01*
X131542535Y-139230289D01*
X131487105Y-138999406D01*
X131438363Y-138881731D01*
X131398135Y-138784611D01*
X131398133Y-138784607D01*
X131396240Y-138780037D01*
X131375873Y-138746801D01*
X131274759Y-138581798D01*
X131274755Y-138581792D01*
X131272176Y-138577584D01*
X131117969Y-138397031D01*
X131114213Y-138393823D01*
X131114208Y-138393818D01*
X130961384Y-138263294D01*
X130922574Y-138203844D01*
X130920360Y-138169442D01*
X130912123Y-138150333D01*
X130060812Y-137299022D01*
X130046868Y-137291408D01*
X130045035Y-137291539D01*
X130038420Y-137295790D01*
X129186920Y-138147290D01*
X129177740Y-138164102D01*
X129163980Y-138227350D01*
X129135224Y-138262775D01*
X129099690Y-138293124D01*
X128978031Y-138397031D01*
X128823824Y-138577584D01*
X128821242Y-138581798D01*
X128821239Y-138581802D01*
X128814048Y-138593536D01*
X128761400Y-138641167D01*
X128706616Y-138653700D01*
X122670217Y-138653700D01*
X122668897Y-138653693D01*
X122667789Y-138653681D01*
X122578291Y-138652744D01*
X122571409Y-138654232D01*
X122571408Y-138654232D01*
X122535628Y-138661967D01*
X122523050Y-138664026D01*
X122486682Y-138668106D01*
X122486673Y-138668108D01*
X122479675Y-138668893D01*
X122466770Y-138673387D01*
X122447769Y-138680003D01*
X122432962Y-138684165D01*
X122413671Y-138688336D01*
X122399949Y-138691303D01*
X122393564Y-138694280D01*
X122393562Y-138694281D01*
X122381881Y-138699728D01*
X122360386Y-138709751D01*
X122348593Y-138714540D01*
X122307361Y-138728899D01*
X122301386Y-138732633D01*
X122301383Y-138732634D01*
X122278710Y-138746801D01*
X122265193Y-138754140D01*
X122234581Y-138768415D01*
X122213702Y-138784611D01*
X122200090Y-138795169D01*
X122189636Y-138802462D01*
X122152624Y-138825589D01*
X122147625Y-138830554D01*
X122147623Y-138830555D01*
X122123656Y-138854356D01*
X122123018Y-138854953D01*
X122122347Y-138855473D01*
X122096089Y-138881731D01*
X122023154Y-138954159D01*
X122022494Y-138955200D01*
X122021385Y-138956435D01*
X120296470Y-140681350D01*
X120274816Y-140708475D01*
X120273493Y-140709771D01*
X120272283Y-140711648D01*
X120211437Y-140787869D01*
X120176237Y-140860683D01*
X120175235Y-140862238D01*
X120174472Y-140864335D01*
X120132023Y-140952144D01*
X120113831Y-141030944D01*
X120113197Y-141032685D01*
X120112917Y-141034902D01*
X120090978Y-141129930D01*
X120090696Y-141210798D01*
X120090463Y-141212640D01*
X120090681Y-141214868D01*
X120090341Y-141312392D01*
X120091879Y-141319272D01*
X120107688Y-141389999D01*
X120107689Y-141390001D01*
X120107982Y-141391312D01*
X120108163Y-141393160D01*
X120108870Y-141395284D01*
X120130144Y-141490460D01*
X120164834Y-141563518D01*
X120165418Y-141565273D01*
X120166573Y-141567181D01*
X120167869Y-141569910D01*
X120205387Y-141648924D01*
X120205389Y-141648928D01*
X120208408Y-141655285D01*
X120212760Y-141660815D01*
X120212761Y-141660817D01*
X120236926Y-141691525D01*
X120258419Y-141718837D01*
X120259380Y-141720424D01*
X120260935Y-141722034D01*
X120321245Y-141798674D01*
X120384095Y-141849569D01*
X120385382Y-141850902D01*
X120387252Y-141852126D01*
X120389607Y-141854033D01*
X120457566Y-141909066D01*
X120457571Y-141909069D01*
X120463045Y-141913502D01*
X120535610Y-141949208D01*
X120537159Y-141950222D01*
X120539252Y-141951000D01*
X120541985Y-141952345D01*
X120620440Y-141990950D01*
X120620443Y-141990951D01*
X120626761Y-141994060D01*
X120705428Y-142012801D01*
X120707168Y-142013448D01*
X120709387Y-142013744D01*
X120712337Y-142014447D01*
X120712339Y-142014448D01*
X120721608Y-142016656D01*
X120783238Y-142051901D01*
X120816029Y-142114872D01*
X120809571Y-142185574D01*
X120781500Y-142228320D01*
X120604025Y-142405795D01*
X120541713Y-142439821D01*
X120514930Y-142442700D01*
X119261070Y-142442700D01*
X119192949Y-142422698D01*
X119171975Y-142405795D01*
X114642205Y-137876025D01*
X114608179Y-137813713D01*
X114605300Y-137786930D01*
X114605300Y-136931930D01*
X128535725Y-136931930D01*
X128553572Y-137158699D01*
X128555115Y-137168446D01*
X128608217Y-137389627D01*
X128611266Y-137399012D01*
X128698313Y-137609163D01*
X128702795Y-137617958D01*
X128805432Y-137785445D01*
X128815890Y-137794907D01*
X128824666Y-137791124D01*
X129675978Y-136939812D01*
X129682356Y-136928132D01*
X130412408Y-136928132D01*
X130412539Y-136929965D01*
X130416790Y-136936580D01*
X131268290Y-137788080D01*
X131280670Y-137794840D01*
X131288320Y-137789113D01*
X131393205Y-137617958D01*
X131397687Y-137609163D01*
X131484734Y-137399012D01*
X131487783Y-137389627D01*
X131540885Y-137168446D01*
X131542428Y-137158699D01*
X131560275Y-136931930D01*
X131560275Y-136922070D01*
X131542428Y-136695301D01*
X131540885Y-136685554D01*
X131487783Y-136464373D01*
X131484734Y-136454988D01*
X131397687Y-136244837D01*
X131393205Y-136236042D01*
X131290568Y-136068555D01*
X131280110Y-136059093D01*
X131271334Y-136062876D01*
X130420022Y-136914188D01*
X130412408Y-136928132D01*
X129682356Y-136928132D01*
X129683592Y-136925868D01*
X129683461Y-136924035D01*
X129679210Y-136917420D01*
X128827710Y-136065920D01*
X128815330Y-136059160D01*
X128807680Y-136064887D01*
X128702795Y-136236042D01*
X128698313Y-136244837D01*
X128611266Y-136454988D01*
X128608217Y-136464373D01*
X128555115Y-136685554D01*
X128553572Y-136695301D01*
X128535725Y-136922070D01*
X128535725Y-136931930D01*
X114605300Y-136931930D01*
X114605300Y-116849217D01*
X114605307Y-116847897D01*
X114605351Y-116843711D01*
X114606256Y-116757291D01*
X114600591Y-116731087D01*
X114597033Y-116714628D01*
X114594974Y-116702050D01*
X114590894Y-116665682D01*
X114590892Y-116665673D01*
X114590107Y-116658675D01*
X114585613Y-116645770D01*
X114578997Y-116626769D01*
X114574835Y-116611962D01*
X114569186Y-116585836D01*
X114567697Y-116578949D01*
X114549249Y-116539386D01*
X114544460Y-116527593D01*
X114530101Y-116486361D01*
X114526366Y-116480383D01*
X114512199Y-116457710D01*
X114504860Y-116444193D01*
X114493561Y-116419963D01*
X114490585Y-116413581D01*
X114463831Y-116379090D01*
X114456537Y-116368634D01*
X114454564Y-116365476D01*
X114433411Y-116331624D01*
X114404644Y-116302656D01*
X114404047Y-116302018D01*
X114403527Y-116301347D01*
X114377269Y-116275089D01*
X114307335Y-116204665D01*
X114307331Y-116204661D01*
X114304841Y-116202154D01*
X114303800Y-116201494D01*
X114302565Y-116200385D01*
X111794650Y-113692470D01*
X111763445Y-113667559D01*
X111761815Y-113665918D01*
X111759737Y-113664599D01*
X111758059Y-113663260D01*
X111758058Y-113663258D01*
X111693635Y-113611831D01*
X111688131Y-113607437D01*
X111681473Y-113604218D01*
X111612408Y-113570831D01*
X111612409Y-113570831D01*
X111610617Y-113569965D01*
X111608666Y-113568727D01*
X111606350Y-113567902D01*
X111523856Y-113528023D01*
X111515717Y-113526144D01*
X111441915Y-113509105D01*
X111441913Y-113509105D01*
X111439964Y-113508655D01*
X111437790Y-113507881D01*
X111435352Y-113507590D01*
X111431710Y-113506749D01*
X111352931Y-113488562D01*
X111346070Y-113486978D01*
X111339030Y-113486953D01*
X111339027Y-113486953D01*
X111261999Y-113486684D01*
X111259973Y-113486677D01*
X111257680Y-113486404D01*
X111255236Y-113486661D01*
X111163608Y-113486341D01*
X111079584Y-113505123D01*
X111077288Y-113505364D01*
X111074962Y-113506156D01*
X111072864Y-113506625D01*
X111072863Y-113506625D01*
X111047639Y-113512263D01*
X110985540Y-113526144D01*
X110979184Y-113529162D01*
X110979181Y-113529163D01*
X110909589Y-113562207D01*
X110909588Y-113562208D01*
X110907766Y-113563073D01*
X110905579Y-113563818D01*
X110903485Y-113565106D01*
X110820715Y-113604408D01*
X110753054Y-113657653D01*
X110751088Y-113658862D01*
X110749333Y-113660580D01*
X110747625Y-113661924D01*
X110685754Y-113710613D01*
X110677326Y-113717245D01*
X110623142Y-113784156D01*
X110621493Y-113785771D01*
X110620162Y-113787836D01*
X110562498Y-113859045D01*
X110559391Y-113865360D01*
X110529063Y-113926995D01*
X110524484Y-113936300D01*
X110523235Y-113938238D01*
X110522396Y-113940544D01*
X110481940Y-114022761D01*
X110461988Y-114106512D01*
X110461197Y-114108685D01*
X110460888Y-114111127D01*
X110439655Y-114200257D01*
X110438753Y-114286342D01*
X110438463Y-114288640D01*
X110438704Y-114291094D01*
X110437744Y-114382709D01*
X83642858Y-114382709D01*
X83707554Y-114263555D01*
X83707555Y-114263553D01*
X83709604Y-114259779D01*
X83780587Y-114071930D01*
X83809707Y-113994866D01*
X83809708Y-113994862D01*
X83811225Y-113990848D01*
X83875407Y-113710613D01*
X83876804Y-113694966D01*
X83900743Y-113426726D01*
X83900743Y-113426724D01*
X83900963Y-113424260D01*
X83901427Y-113380000D01*
X83887915Y-113181798D01*
X83882165Y-113097452D01*
X83882164Y-113097446D01*
X83881873Y-113093175D01*
X83877336Y-113071264D01*
X83824443Y-112815855D01*
X83823574Y-112811658D01*
X83727607Y-112540657D01*
X83595750Y-112285188D01*
X83582488Y-112266317D01*
X83432904Y-112053482D01*
X83430441Y-112049977D01*
X83234740Y-111839378D01*
X83012268Y-111657287D01*
X82767142Y-111507073D01*
X82749048Y-111499130D01*
X82507830Y-111393243D01*
X82503898Y-111391517D01*
X82477963Y-111384129D01*
X82231534Y-111313932D01*
X82231535Y-111313932D01*
X82227406Y-111312756D01*
X82014704Y-111282485D01*
X81947036Y-111272854D01*
X81947034Y-111272854D01*
X81942784Y-111272249D01*
X81938495Y-111272227D01*
X81938488Y-111272226D01*
X81659583Y-111270765D01*
X81659576Y-111270765D01*
X81655297Y-111270743D01*
X81651053Y-111271302D01*
X81651049Y-111271302D01*
X81525660Y-111287810D01*
X81370266Y-111308268D01*
X81366126Y-111309401D01*
X81366124Y-111309401D01*
X81289311Y-111330415D01*
X81092964Y-111384129D01*
X81089016Y-111385813D01*
X80832476Y-111495237D01*
X80832472Y-111495239D01*
X80828524Y-111496923D01*
X80778269Y-111527000D01*
X80585521Y-111642357D01*
X80585517Y-111642360D01*
X80581839Y-111644561D01*
X80357472Y-111824313D01*
X80240372Y-111947711D01*
X80195882Y-111994594D01*
X80159577Y-112032851D01*
X79991814Y-112266317D01*
X79857288Y-112520392D01*
X79758489Y-112790373D01*
X79697245Y-113071264D01*
X79674689Y-113357869D01*
X70508500Y-113357869D01*
X70508500Y-103000000D01*
X71286411Y-103000000D01*
X71306754Y-103388176D01*
X71307267Y-103391416D01*
X71307268Y-103391424D01*
X71314868Y-103439406D01*
X71367562Y-103772099D01*
X71468167Y-104147562D01*
X71607468Y-104510453D01*
X71608966Y-104513393D01*
X71753174Y-104796416D01*
X71783938Y-104856794D01*
X71785734Y-104859560D01*
X71785736Y-104859563D01*
X71991881Y-105177000D01*
X71995643Y-105182793D01*
X72240266Y-105484876D01*
X72515124Y-105759734D01*
X72517682Y-105761806D01*
X72517686Y-105761809D01*
X72666165Y-105882045D01*
X72817207Y-106004357D01*
X73143205Y-106216062D01*
X73146139Y-106217557D01*
X73146146Y-106217561D01*
X73486607Y-106391034D01*
X73489547Y-106392532D01*
X73852438Y-106531833D01*
X74227901Y-106632438D01*
X74431793Y-106664732D01*
X74608576Y-106692732D01*
X74608584Y-106692733D01*
X74611824Y-106693246D01*
X75000000Y-106713589D01*
X75388176Y-106693246D01*
X75391416Y-106692733D01*
X75391424Y-106692732D01*
X75568207Y-106664732D01*
X75772099Y-106632438D01*
X76147562Y-106531833D01*
X76510453Y-106392532D01*
X76513393Y-106391034D01*
X76853854Y-106217561D01*
X76853861Y-106217557D01*
X76856795Y-106216062D01*
X77182793Y-106004357D01*
X77333834Y-105882046D01*
X77482314Y-105761809D01*
X77482318Y-105761806D01*
X77484876Y-105759734D01*
X77759734Y-105484876D01*
X78004357Y-105182793D01*
X78008119Y-105177000D01*
X78214264Y-104859563D01*
X78214266Y-104859560D01*
X78216062Y-104856794D01*
X78246827Y-104796416D01*
X78391034Y-104513393D01*
X78392532Y-104510453D01*
X78531833Y-104147562D01*
X78632438Y-103772099D01*
X78685132Y-103439406D01*
X78692732Y-103391424D01*
X78692733Y-103391416D01*
X78693246Y-103388176D01*
X78713589Y-103000000D01*
X78693246Y-102611824D01*
X78684842Y-102558760D01*
X78643917Y-102300378D01*
X78632438Y-102227901D01*
X78531833Y-101852438D01*
X78522179Y-101827287D01*
X78393716Y-101492632D01*
X78392532Y-101489547D01*
X78326330Y-101359619D01*
X78217561Y-101146147D01*
X78217557Y-101146140D01*
X78216062Y-101143206D01*
X78099742Y-100964087D01*
X78006152Y-100819971D01*
X78006152Y-100819970D01*
X78004357Y-100817207D01*
X77759734Y-100515124D01*
X77484876Y-100240266D01*
X77182793Y-99995643D01*
X76856795Y-99783938D01*
X76853861Y-99782443D01*
X76853854Y-99782439D01*
X76513393Y-99608966D01*
X76510453Y-99607468D01*
X76163409Y-99474250D01*
X76150652Y-99469353D01*
X76150650Y-99469352D01*
X76147562Y-99468167D01*
X75772099Y-99367562D01*
X75568207Y-99335268D01*
X75391424Y-99307268D01*
X75391416Y-99307267D01*
X75388176Y-99306754D01*
X75000000Y-99286411D01*
X74611824Y-99306754D01*
X74608584Y-99307267D01*
X74608576Y-99307268D01*
X74431793Y-99335268D01*
X74227901Y-99367562D01*
X73852438Y-99468167D01*
X73849350Y-99469352D01*
X73849348Y-99469353D01*
X73836591Y-99474250D01*
X73489547Y-99607468D01*
X73486607Y-99608966D01*
X73146147Y-99782439D01*
X73146140Y-99782443D01*
X73143206Y-99783938D01*
X73140440Y-99785734D01*
X73140437Y-99785736D01*
X72832464Y-99985735D01*
X72817207Y-99995643D01*
X72515124Y-100240266D01*
X72240266Y-100515124D01*
X71995643Y-100817207D01*
X71993848Y-100819970D01*
X71993848Y-100819971D01*
X71900259Y-100964087D01*
X71783938Y-101143206D01*
X71782443Y-101146140D01*
X71782439Y-101146147D01*
X71673670Y-101359619D01*
X71607468Y-101489547D01*
X71606284Y-101492632D01*
X71477822Y-101827287D01*
X71468167Y-101852438D01*
X71367562Y-102227901D01*
X71356083Y-102300378D01*
X71315159Y-102558760D01*
X71306754Y-102611824D01*
X71286411Y-103000000D01*
X70508500Y-103000000D01*
X70508500Y-98634500D01*
X70528502Y-98566379D01*
X70582158Y-98519886D01*
X70634500Y-98508500D01*
X129436637Y-98508500D01*
X129504758Y-98528502D01*
G37*
G04 #@! TD.AperFunction*
M02*
